<?xml version="1.0" encoding="utf-8"?>
<!-- Generator: Adobe Illustrator 24.0.1, SVG Export Plug-In . SVG Version: 6.00 Build 0)  -->
<svg version="1.1" id="Layer_1" xmlns="http://www.w3.org/2000/svg" xmlns:xlink="http://www.w3.org/1999/xlink" x="0px" y="0px"
	 viewBox="0 0 50 40" style="enable-background:new 0 0 50 40;" xml:space="preserve">
<style type="text/css">
	.st0{fill:#5FB35F;}
</style>
<g>
	<path class="st0" d="M43.3,23.4H6.7c-1.9,0-3.4-1.5-3.4-3.4s1.5-3.4,3.4-3.4h36.6c1.9,0,3.4,1.5,3.4,3.4S45.1,23.4,43.3,23.4z"/>
	<path class="st0" d="M28.4,38.2c-0.9,0-1.8-0.3-2.4-1c-1.3-1.3-1.3-3.5,0-4.8L38.4,20L26,7.5c-1.3-1.3-1.3-3.5,0-4.8s3.5-1.3,4.8,0
		l14.9,14.9c1.3,1.3,1.3,3.5,0,4.8L30.8,37.3C30.1,37.9,29.3,38.2,28.4,38.2z"/>
</g>
</svg>
