<?xml version="1.0" encoding="utf-8"?>
<!-- Generator: Adobe Illustrator 22.1.0, SVG Export Plug-In . SVG Version: 6.00 Build 0)  -->
<svg version="1.1" id="logo-wordmark" xmlns="http://www.w3.org/2000/svg" xmlns:xlink="http://www.w3.org/1999/xlink" x="0px"
	 y="0px" viewBox="0 0 1200 254.6" style="enable-background:new 0 0 1200 254.6;" xml:space="preserve">
<style type="text/css">
	.st0{fill:#5FB35F;}
</style>
<path class="st0" d="M140.5,20c1.3-5,3.5-13.4,4.5-17.4c0.3-1-0.4-2-1.4-2.3c-0.2,0-0.3-0.1-0.5-0.1H90.7L0,166.3l26.1,40
	c0,0,43.3-3.6,64.6-5.2v29.7c-1.3,5-3.3,13.1-4.3,17.2c-0.2,1,0.4,2,1.4,2.3c0.2,0,0.4,0.1,0.6,0l54.9-4.5c1-0.1,1.8-1,1.7-2
	c0-0.1,0-0.3-0.1-0.4c-1.1-3.7-3.4-11.2-4.6-16v-30.9l9.5-0.9c0.9-0.1,1.6-0.8,1.7-1.7l3.8-37.1c0.1-1-0.7-2-1.7-2.1
	c-0.1,0-0.2,0-0.3,0l-13,0.9L140.5,20z M90.8,83.2l-0.1,74.9c-9,0.8-23.6,1.2-35.4,2C55.3,160.1,81.1,108.7,90.8,83.2L90.8,83.2z"/>
<path class="st0" d="M302.7,0H187.1c-1,0-1.9,0.8-1.9,1.9c0,0.1,0,0.3,0,0.4c1,4.1,3.1,12.9,4.4,17.7l-0.1,203.9
	c-1.3,4.8-3.2,12.5-4.2,16.4c-0.3,1,0.3,2,1.4,2.3c0.2,0.1,0.4,0.1,0.6,0.1l54.8-3.5c1-0.1,1.8-1,1.8-2c0-0.1,0-0.3-0.1-0.4
	c-1-3.5-3-10.2-4.3-16.1l0.6-69.9l53.5-2.1l45.7-42.7l-0.1-73L302.7,0z M273,105.4l-33.8,0.5l0.1-55.8c9.8-0.1,25.6-0.2,35.4-0.3
	l15.1,12.2v29C290.2,91.5,273.6,106.1,273,105.4z"/>
<path class="st0" d="M504.2,0.1H368.1c-1,0-1.9,0.8-1.9,1.9c0,0.2,0,0.3,0.1,0.5c1.2,4.2,3.5,12.8,4.8,17.4l-0.2,192.9
	c-1.3,4.6-4.5,13.2-6.1,17.5c-0.4,1,0.1,2.1,1.1,2.4c0.2,0.1,0.5,0.1,0.7,0.1l63.6-2.1c1,0,1.9-0.9,1.8-2c0-0.3-0.1-0.5-0.2-0.7
	c-1.9-4-5.5-11.7-7.1-17.2l0.1-66.1c6.8-0.1,15.5-0.2,22.2-0.4c4.8,1.3,13.8,6,18.4,8.4c0.9,0.5,2.1,0.1,2.6-0.8
	c0.1-0.3,0.2-0.6,0.2-0.9V95.4c0-1-0.8-1.9-1.9-1.9c-0.3,0-0.6,0.1-0.9,0.2c-4.6,2.5-13.7,7.3-18.5,8.8l-22.1,0.3l0.1-52.8
	c15.4-0.1,34.2-0.1,49.6-0.2l27.5,8.9c1,0.3,2-0.2,2.4-1.2c0.1-0.2,0.1-0.4,0.1-0.6L504.2,0.1z"/>
<path class="st0" d="M670.6,32.3C658.8,22,633.8,0.1,633.8,0.1h-64.6l-38.5,33.8l-0.1,161.4l38.6,33.8h64.7c0,0,25-22.3,36.9-32.5
	L670.6,32.3z M593.6,179.5c-2.8-1.2-12.4-10.6-12.4-10.6V61.3l12.4-10.6h14.7l12.4,10.6v107.6c0,0-9.6,9.4-12.4,10.6L593.6,179.5z"
	/>
<path class="st0" d="M849,32.3C837.2,22,812.2,0.1,812.2,0.1h-64.6L709,33.9l-0.1,161.4l38.6,35.5l63,1.6c0,0,26.7-25.7,38.5-35.9
	L849,32.3z M772,179.5c-2.8-1.2-12.4-10.6-12.4-10.6V61.3L772,50.6h14.7l12.4,10.7v107.6c0,0-9.6,9.4-12.4,10.6L772,179.5z"/>
<path class="st0" d="M1024.1,37.5c-12.4-11.8-25.2-23.9-38.2-35.9l-1.4-1.3h-2l-96.3-0.1h-2.6c-1,0-1.9,0.8-1.9,1.9
	c0,0.1,0,0.3,0,0.4c1,4.2,3,12.9,4.3,17.6v194.9c-1.3,4.7-3.5,13.7-4.5,17.8c-0.2,1,0.4,2,1.4,2.3c0.1,0,0.2,0,0.3,0.1l101.3,5.8
	c0,0,27.3-23.4,39.6-34.1l1.7-1.5L1025.6,39L1024.1,37.5z M956.1,188.6c-8.6-0.5-20-1.2-20-1.2l-0.2-137.6c12,0.1,10.9,0.1,19.7,0.2
	l16.6,15.4l0.2,109.2L956.1,188.6z"/>
<path class="st0" d="M1112.5,70.6V59.2l11.9-9.4l47.1,3.1l25.8,8.8c1,0.3,2.1-0.2,2.4-1.2c0.1-0.3,0.1-0.6,0.1-0.9l-7.5-51.3
	l-93.3-7.9l-38.3,36.5l0.1,48.7l14.9,26.6l62.3,45.9l12.4,17.5v12.2c0,0-14.6,13.6-14.6,13.8c0-0.2-46-3.5-46-3.3l-25.9-10.8
	c-1-0.4-2.1,0-2.5,1c-0.1,0.3-0.2,0.6-0.1,0.9l5.1,56.9l95.2,8.2l38.6-31.5v-64.7l-16.4-29.3l-64.1-47L1112.5,70.6z"/>
</svg>
