<?xml version="1.0" encoding="utf-8"?>
<!-- Generator: Adobe Illustrator 20.1.0, SVG Export Plug-In . SVG Version: 6.00 Build 0)  -->
<svg version="1.1" id="Layer_1" xmlns="http://www.w3.org/2000/svg" xmlns:xlink="http://www.w3.org/1999/xlink" x="0px" y="0px"
	 viewBox="0 0 265 112" style="enable-background:new 0 0 265 112;" xml:space="preserve">
<style type="text/css">
	.st0{fill:#275C36;}
	.st1{fill:#5EB35F;}
</style>
<g>
	<g>
		<path class="st0" d="M31.8,59.6c0.3-1.1,0.8-2.9,1-3.8c0.1-0.3-0.1-0.5-0.4-0.5l-11.5,0L1,91.6l5.7,8.8c0,0,9.5-0.8,14.2-1.2
			l0,6.5c-0.3,1.1-0.7,2.9-0.9,3.8c-0.1,0.3,0.2,0.5,0.4,0.5l12-1c0.3,0,0.4-0.3,0.4-0.5c-0.2-0.8-0.7-2.5-1-3.5l0-6.8l2.1-0.2
			c0.2,0,0.4-0.2,0.4-0.4l0.8-8.1c0-0.3-0.2-0.5-0.4-0.5l-2.8,0.2L31.8,59.6z M20.9,73.4l0,16.4c-2,0.2-5.2,0.3-7.8,0.4
			C13.1,90.3,18.7,79,20.9,73.4z"/>
		<path class="st0" d="M67.3,55.2H42c-0.3,0-0.5,0.2-0.4,0.5c0.2,0.9,0.7,2.8,1,3.9l0,44.7c-0.3,1.1-0.7,2.7-0.9,3.6
			c-0.1,0.3,0.1,0.5,0.4,0.5l12-0.8c0.3,0,0.4-0.3,0.4-0.5c-0.2-0.8-0.7-2.2-0.9-3.5l0.1-15.3c4-0.2,11.7-0.5,11.7-0.5l10-9.4l0-16
			L67.3,55.2z M60.8,78.3l-7.4,0.1l0-12.2c2.1,0,5.6,0,7.8-0.1l3.3,2.7l0,6.4C64.6,75.3,60.9,78.4,60.8,78.3z"/>
		<path class="st0" d="M111.5,55.2l-29.8,0c-0.3,0-0.5,0.3-0.4,0.5c0.3,0.9,0.8,2.8,1.1,3.8l-0.1,42.3c-0.3,1-1,2.9-1.3,3.8
			c-0.1,0.3,0.1,0.6,0.4,0.6l13.9-0.5c0.3,0,0.5-0.3,0.4-0.6c-0.4-0.9-1.2-2.6-1.5-3.8l0-14.5c1.5,0,3.4-0.1,4.9-0.1
			c1.1,0.3,3,1.3,4,1.8c0.3,0.1,0.6-0.1,0.6-0.4l0-12.2c0-0.3-0.3-0.5-0.6-0.4c-1,0.5-3,1.6-4.1,1.9c-1.5,0-3.4,0-4.8,0.1l0-11.6
			c3.4,0,7.5,0,10.9,0l6,1.9c0.3,0.1,0.5-0.1,0.5-0.4L111.5,55.2z"/>
		<path class="st0" d="M148,62.3c-2.6-2.3-8.1-7.1-8.1-7.1l-14.2,0l-8.4,7.4l0,35.4l8.5,7.4h14.2c0,0,5.5-4.9,8.1-7.1L148,62.3z
			 M131.1,94.5c-0.6-0.3-2.7-2.3-2.7-2.3V68.6l2.7-2.3c1.4,0,1.8,0,3.2,0l2.7,2.3l0,23.6c0,0-2.1,2.1-2.7,2.3
			C132.9,94.5,132.5,94.5,131.1,94.5z"/>
		<path class="st0" d="M187.1,62.3c-2.6-2.3-8.1-7.1-8.1-7.1l-14.2,0l-8.4,7.4l0,35.4l8.5,7.8l13.8,0.4c0,0,5.9-5.6,8.4-7.9
			L187.1,62.3z M170.2,94.5c-0.6-0.3-2.7-2.3-2.7-2.3V68.6l2.7-2.3c1.4,0,1.8,0,3.2,0l2.7,2.3l0,23.6c0,0-2.1,2.1-2.7,2.3
			C172,94.5,171.6,94.5,170.2,94.5z"/>
		<path class="st0" d="M225.5,63.4c-2.7-2.6-5.5-5.2-8.4-7.9l-0.3-0.3l-0.4,0c-7.8,0-13.3,0-21.1,0l-0.6,0c-0.3,0-0.5,0.2-0.4,0.5
			c0.2,0.9,0.7,2.8,1,3.9v42.7c-0.3,1-0.8,3-1,3.9c-0.1,0.3,0.1,0.5,0.4,0.5l22.2,1.3c0,0,6-5.1,8.7-7.5l0.4-0.3l0-36.5L225.5,63.4z
			 M210.5,96.5c-1.9-0.1-4.4-0.3-4.4-0.3l0-30.2c2.6,0,2.4,0,4.3,0.1l3.6,3.4l0,23.9L210.5,96.5z"/>
		<path class="st0" d="M244.8,70.7l0-2.5l2.6-2.1l10.3,0.7l5.7,1.9c0.3,0.1,0.6-0.1,0.5-0.5L262.3,57l-20.5-1.7l-8.4,8l0,10.7
			l3.3,5.8l13.7,10.1l2.7,3.8l0,2.7c0,0-3.2,3-3.2,3c0,0-10.1-0.8-10.1-0.7l-5.7-2.4c-0.3-0.1-0.6,0.1-0.6,0.4l1.1,12.5l20.9,1.8
			l8.5-6.9l0-14.2l-3.6-6.4l-14.1-10.3L244.8,70.7z"/>
	</g>
	<g>
		<g>
			<path class="st1" d="M131.3,11.2h-2.5v11.5h-2.3c-0.6,0-1.1-0.3-1.4-0.7c-0.3-0.4-0.5-1-0.3-1.5l2.2-9.2h-2.6l-2,8.6
				c-0.3,1.3,0,2.6,0.8,3.7c0.8,1,2.1,1.6,3.4,1.6h2.3v4.5h2.5v-4.5h1.1v-2.5h-1.1V11.2z"/>
			<path class="st1" d="M141.1,11.2h-1h-1.6h-1.1h-1.2h-0.5h-2v11.5v2.5v4.5h2.5v-4.5v-2.5v-9h1.2h1.6l1.3,6.9
				c0.1,0.5,0,1.1-0.4,1.5c-0.3,0.4-0.9,0.7-1.4,0.7h-1.1v2.5h1.1c1.3,0,2.5-0.6,3.3-1.6c0.8-1,1.2-2.3,0.9-3.5L141.1,11.2z"/>
			<path class="st1" d="M132.5,1c-10.5,0-19.1,8.6-19.1,19.1s8.6,19.1,19.1,19.1s19.1-8.6,19.1-19.1S143,1,132.5,1z M132.5,36.7
				c-9.1,0-16.6-7.4-16.6-16.6c0-3.7,1.2-7.1,3.3-9.9c0.4-0.5,0.8-1,1.2-1.5c3-3.2,7.3-5.2,12.1-5.2c9.1,0,16.6,7.4,16.6,16.6
				S141.6,36.7,132.5,36.7z"/>
		</g>
	</g>
</g>
</svg>
