<?xml version="1.0" encoding="UTF-8"?>
<svg id="Layer_2" data-name="Layer 2" xmlns="http://www.w3.org/2000/svg" viewBox="0 0 100 100">
  <defs>
    <style>
      .cls-1 {
        fill: #635f5a;
      }

      .cls-1, .cls-2 {
        stroke-width: 0px;
      }

      .cls-2 {
        fill: none;
      }
    </style>
  </defs>
  <g id="Layer_1-2" data-name="Layer 1">
    <g>
      <rect class="cls-2" width="100" height="100"/>
      <g>
        <path class="cls-1" d="M15.98,66.66c-.4-1.65-1.21-2.81-2.25-3.83v-3.38c.81-.44,1.69-.92,2.52-1.38-.81-1.69-.24-3.54-.36-5.33-.04-.55,2.35-2.85,3.45-3.55.19.17.38.34.63.57.3-.82.59-1.59,1.01-2.73.65-.64,1.6-1.57,2.61-2.55q3.92-.79,7.24.5c1.19-1.18,3-.98,4.85-1.57,1.65,1.09,3.53,2.34,5.5,3.65-.3.39-.44.56-.58.74.37.51.75,1.03,1.41,1.95.45.31,1.86-.18,2.38,1.35.31.9,1.87,1.03,2.03,2.32.15,1.18.4,2.34.64,3.65.2.19.52.5.82.78.05.2.14.36.13.52-.06,1.46.28,2.96-.52,4.33-.12.2.03.64-.11.74-1.91,1.36-1.69,3.79-2.83,5.53-.19-.17-.38-.34-.73-.65-.05.54-.08.96-.12,1.39-.51.37-1.18.66-1.56,1.17-1.36,1.83-2.22,2.43-4.36,3.51-1.18.6-2.17,1.57-3.58,1.72-.49.05-.97.23-1.44.39-1.1.37-1.95-.64-2.99-.54-1.05.11-2.06-.1-2.99-.55-3.23-1.55-6.66-3.07-9.33-7.17-.42-.65-1.07-1.15-1.48-1.58ZM18.75,56.1c.18.43.36,1.18.77,1.77.39.56,1.4.56,1.45,1.61.58-.16,1.12-.32,1.73-.49,1.69,1.14,3.5,2.36,5.32,3.58.41.28,1.13.49,1.2.83.25,1.18,1.37,1.52,1.9,2.41,1.32-1.32,2.56-2.59,3.84-3.83,1.29-1.24,2.69-2.31,4.52-2.62,1.39-.24,2.62-1.36,4.21-.57v-4.12c-.79-.97-1.34-1.65-1.61-1.99-1.51-.37-2.63-.65-3.72-.91v-2.15c-.63-.92-1.16-1.68-1.66-2.42-.67-.18-1.29-.34-1.77-.47-1.58.22-2.76.93-3.32,2.62-.78-.29-1.55-.57-2.09-.77-.39-.63-.65-1.06-.86-1.4-1.28-.48-2.41.33-3.65,0-.8,1.52-2.27,2.7-2.26,4.52-1.56.55-3.4.33-3.96,2.32-.04.13-.1.25-.15.37.1.01.19.03.29.04-.06.49-.11.98-.19,1.67ZM29.9,70c-1.6-2.34-3.24-4.53-5.54-6.23-1.56-1.16-3.63-1.33-5-2.77-.08-.09-.34-.01-.51-.01-.26.2-.52.41-.74.58-.43-.2-.75-.35-1.22-.57.07,1.94,1.22,3.29,2.2,4.31,1.02,1.07,1.23,2.99,3.07,3.27.18,1.92,2.77,1.39,3.08,2.79,1.41.5,2.63.94,3.84,1.37.27-.87.51-1.66.84-2.73ZM33.09,73.23c.33-.16.58-.28.82-.39.14.14.27.27.47.47.7-1.45,2.58-.87,3.47-2.1.81-1.11,2.44-1.52,2.75-3.09,1.62-.43,1.53-2.22,2.52-3.23.9-.92,1.18-2.44,1.84-3.93-1.35.84-2.57.39-3.3.53-.98.57-1.62.95-2.26,1.32-2.65,1.58-5.09,3.47-6.32,6.64v3.79Z"/>
        <path class="cls-1" d="M58.76,63.44c1.11-1.5,1.08-3.25,1.62-4.81.51-1.47,1.3-2.85,2.01-4.24.75-1.47,1.57-2.91,2.42-4.5q4.22-2.27,6.87-2.38c-.28-.34-.55-.52-.61-.76-.09-.33-.02-.7-.02-1.19-.97-.76-1.99-1.55-3.12-2.44v-2.41c2.83.19,4.35,1.04,5.77,3.37,1.91-3.67,4.99-6.01,8.39-8.28,1,.26,2.32-.55,3.29.68-.28,1.2-.96,2.02-2.16,2.44-1.74.61-2.82,2.13-4.26,3.17-.4.29-.8.56-1.48,1.04,0,.13.02.55,0,.97-.02.27-.7.3-.21.91,1.09-.85,2.41-.72,3.67-.61,1.27.11,2.66-.59,3.79.5,1.22-.9,2.05.42,3.08.59,1.21.2,2.36.73,3.65,1.15-.21.27-.35.44-.52.66.13.16.28.34.5.6-.46.36-.94.74-1.46,1.15-.05-.04-.23-.2-.42-.36-.18.16-.37.33-.47.42-1.11-.45-2.18-.88-3.59-1.46-7.22-.33-6.06-.36-9.46,1.67.42.85.84,1.7,1.26,2.55.17.01.34.03.51.04.06.06.13.13.19.19l.2,3.62c.15.67.38,1.21.19,2.03-1.08,4.56-3.06,7.6-5.04,9.79-.45.49-.74,1.13-1.15,1.66-1.42,1.81-2.32,4.02-4.29,5.43-.39.28-.45,1.04-.72,1.72-.34.07-.83.16-1.32.25-2.09,3.16-5.28,5.42-7.31,8.81-.47.16-1.09.36-1.78.59-.45-.26-1.02-.6-1.51-.88-.13-.26-.25-.4-.27-.55-.15-1.39.89-2.63.53-4.06,1.14-.95.17-2.45,1-3.62.64-.9.43-2.32.68-3.45.65-2.98,1.26-5.94,1.57-8.97.04-.39.98-.71-.01-1.02ZM75.31,54.31c-.83-1.16-1.55-2.29-2.9-3.12-1.44-.89-2.66.27-3.87-.24-1.9,1.57-3.2,3.5-3.94,5.85-.32,1.01-.91,1.94-1.58,3.35-.35,1.63-.81,3.76-1.27,5.91.7.43,1.2.74,1.75,1.07v1.41c-.57,1.51-1.86.64-2.41,1.03-.3.95-.53,1.66-.75,2.34.18.21.35.39.5.57-1.33,1.74-.69,3.97-1.56,5.81-.09.19.04.49.07.86,1.99-1.05,2.86-3.12,4.58-4.29,1.7-1.15,2.61-3.05,3.82-4.61,1.29-1.67,2.49-3.42,3.91-4.86-.42-1.07-1.05-1.38-1.92-1.22-.65-.63-1.28-1.25-1.79-1.75-.17-.76-.31-1.36-.44-1.94.21-.21.4-.4.47-.47,1.91.64,3.76,1.26,5.62,1.89.6-1.15.57-2.64,1.77-3.39-.15-1.38.24-2.68-.41-3.87l.34-.34Z"/>
        <path class="cls-1" d="M42.74,20.71c.43.33.69.53,1.05.81,1.24-.99,1.83-2.62,3.63-2.89,1.58-.24,3.1-.92,4.55.5,1.68-1.25,3.69-1.39,5.52-.8,1.71.55,3.47,1.47,4.14,3.61,1.87-.66,2.83,1.15,4.34,1.65,1.61.55,1.52,2.82,2.91,3.86v2.27c-.32.18-.79.45-1.02.59v2.04c-.92.51-1.85,1.02-3.2,1.77-.54,1.33-.29,3.94-3.36,3.97.26.26.39.39.52.52-.65.93-.13,2.01-.31,3.03-.21,1.2.2,2.53.47,3.77.24,1.13.65,2.22,1.07,3.6-.45.25-1.07.6-1.69.95.09.12.18.24.27.37-.48-.12-.97-.23-1.43-.35-.95.13-1.92.26-2.9.39-.11.29-.22.6-.39,1.06-.41-.19-.76-.36-1.14-.54-.64,1.18-1.72-.14-2.86.29-.44-.6-1.35-1.32-1.5-2.17-.44-2.47-2.4-3.84-3.67-5.95-1.01.98-2.05,1.02-3.03.23-.82-.66-1.58-1.4-2.4-2.14h-2.41c-.6-.31-1.1-.46-1.47-.78-.74-.64-1.4-1.37-2.19-2.16,0-.43.21-1.09-.04-1.45-1.06-1.57-.35-2.88.37-4.26.48-.9.75-1.83.78-2.9.05-1.44-.62-3,.49-4.33-.26-1.46,1.01-2,1.8-2.71.85-.76,1.97-1.21,3.1-1.86ZM60.19,33.22c.6-.99.96-1.56,1.19-1.94,1.41-.34,2.62-.63,3.65-.88.29-1.14.52-2.02.69-2.7-.33-1.08-1.77-.75-1.73-1.9-1.08-.26-2.05-1.45-3.3-.28-.24.23-.81.11-1.02.13-.55-.77-.97-1.36-1.25-1.76.14-.7.25-1.25.34-1.69-.93-.96-1.82-1.57-3.18-1.27-.13.6-.26,1.2-.42,1.94-.33.1-.96.28-1.56.46-.8-.61-1.69-1.29-2.58-1.97-.21.19-.4.36-.58.53-.18-.16-.37-.33-.54-.49-.2.17-.38.32-.54.46-.22-.17-.39-.31-.47-.38-.88.45-1.65.84-2.03,1.03-.19,1.49-1.03,2.82.1,3.96-.44.41-.89.83-1.24,1.15-.65-.19-1.28-.38-1.82-.54-.32-1.04-.62-2.03-.91-2.97-.87.62-1.67,1.2-2.46,1.76.22.28.35.46.5.65-.4.14-.71.26-1.05.38,0,.92-.34,2.01.06,2.65,1.26,2.02-.19,3.15-1.14,4.5.05,1.34-.28,2.76.84,3.87.67-.86,1.28.37,1.99.05.68-.31,1.43-.44,2.12-.64.8,1.18,1.54,2.28,2.31,3.42,1.05-.31,2.01-.59,2.87-.84,1.16-1.21,1.04-2.49.52-4.05,1.55-.69,3.12-1.39,4.76-2.11.91,1.5,2.65,1.86,4.19,2.49.97-.6,2.53-.53,3-2.38-.32-.16-.81-.4-1.3-.64ZM59.1,46.89c-.13-1.15-.3-2.23-.35-3.31-.06-1.33,0-2.67-.02-4,0-.15-.11-.31-.2-.55h-1.93c-1.25-.63-2.16-1.09-3.04-1.53l-.69.69c.15.18.31.36.47.55-.71,1.2-1.42,2.4-2,3.38.85,1.7,1.63,3.24,2.4,4.79.04-.06.07-.12.11-.18.3.54.6,1.09.79,1.42,1.76-.49,3.19-.89,4.47-1.25Z"/>
        <path class="cls-1" d="M20.65,38.48c-.45.57-.93,1.18-1.42,1.8-.11-.12-.21-.25-.32-.37-1.24.24-2.48.48-3.72.72-.13-.1-.37-.19-.38-.29-.08-1.15-1.58-1.57-1.38-2.95.15-1.01.02-2.15-.3-3.12-.28-.82-.9-2-.41-2.38.96-.75-.85-1.52.32-2.21.54-.32-.05-1.59.64-2.36.53-.58.69-1.49,1.12-2.18.36-.58.77-1.21,1.32-1.58,2.18-1.46,4.35-2.71,7.27-2,1.58.38,3.09.85,4.02,1.28,1.12,1.12,1.87,1.86,2.88,2.86,0-.02.05.4.1.89.22.05.46.11.83.2.25.85.52,1.8.8,2.74-1.24.98-2.41,1.9-3.68,2.9.75.93,1.62,2.01,2.5,3.1-.17.19-.34.38-.51.57.13.13.25.25.44.44-1.72,2.35-3.7,4.34-6.72,5.06-1.06-.96-2.21-2.02-3.41-3.11ZM24.95,32.83c.59-1.96,1.26-3.6,3.2-4.18-.95-1.81-2.13-3.17-4.32-3.6-1.95-.39-3.81-.92-5.5.07-.51.76-.91,1.36-1.31,1.95l.34.34c-.55.84-1.08,1.67-1.53,2.36.63,1.4-.54,2.71.08,3.75.75,1.26.17,2.69.71,3.97,1.8-.37,1.86-2.84,4.1-2.74.37.44.88,1.05,1.31,1.57.49.02.83.04,1.3.07.61.68,1.26,1.39,1.89,2.08.29-.47.52-.92.83-1.31.37-.46.81-.87,1.18-1.25-.88-1.18-1.63-2.2-2.28-3.08Z"/>
        <path class="cls-1" d="M28.34,51.98c-.84.84-1.54,1.53-2.07,2.07-.32.97-.58,1.75-.84,2.53-.92.13-1.78.32-2.51-.65v-2.25c.54-.85,1.13-1.76,1.86-2.92.69-.18,1.65-.42,2.77-.7.32.78.57,1.39.79,1.92Z"/>
        <path class="cls-1" d="M32.08,53.87c.25-.61.41-.99.59-1.42h2.52c.82.83,1.63,1.64,2.59,2.6v2.53c-.83-.17-1.62-.34-2.48-.52-.26-1.83-2.44-1.9-3.22-3.19Z"/>
      </g>
    </g>
  </g>
</svg>