<?xml version="1.0" encoding="UTF-8"?>
<svg id="Layer_2" data-name="Layer 2" xmlns="http://www.w3.org/2000/svg" viewBox="0 0 100 100">
  <defs>
    <style>
      .cls-1 {
        fill: #635f5a;
      }

      .cls-1, .cls-2 {
        stroke-width: 0px;
      }

      .cls-2 {
        fill: none;
      }
    </style>
  </defs>
  <g id="Layer_1-2" data-name="Layer 1">
    <g>
      <rect class="cls-2" width="100" height="100"/>
      <g>
        <path class="cls-1" d="M55.69,65.8c.06.51.17,1.06.31,1.72-.01.01-.18.18-.34.34-.91.58-1.68-.33-2.49-.24-.77.09-1.41-.37-2.2-.18-.86.21-1.8.11-2.71.13-.84.01-1.68,0-2.52,0-.92,0-1.84-.03-2.75,0-.78.03-1.56.15-2.78.28.05.02-.35-.27-.74-.25-.55.02-1.09.33-1.65.41-.39.05-.73-.57-1.26-.01-.29.3-.85-.76-1.38-.07-.22-.88-.9.62-1.14-.22-3.34.7-6.72.13-10.08.33-.59.03-1.21.05-1.77.24-.51.17-.96-.28-1.48.06-.53.34-1.17-.22-1.87.09-.54.25-1.35-.09-2.13-.18,0,0-.11.11-.14.14-.62-.85-1.32-1.66-1.84-2.59-.51-.92-.88-1.93-1.23-2.92-.23-.67-.18-1.47-.5-2.08-1.32-2.53-.86-5.24-.83-7.88,0-.59.29-1.34.33-1.96.06-.87.54-1.48.78-2.22.16-.48.19-1,.29-1.6.2-.1.57-.2.82-.42,1.58-1.39,3.08-2.85,4.7-4.19,2.41-2,4.71-4.13,7.12-6.11,2.15-1.77,4.04-3.89,6.51-5.26.12-.06.08-.4.12-.65h1.77c.65.37,1.26.72,1.87,1.07.97.59,1.81,1.33,2.97,1.77,1.11.42,2.11,1.27,3.03,2.07,1.1.95,2.49,1.04,3.95,1.77.16.24.52.78.94,1.4-.2.05-.44.12-.82.22-.21,1.33.34,2.47,1.02,3.56h2.41c.37-.41.78-.87,1.18-1.31h2.06c.31.56.32,1.25,1.25,1.39.4.06.7.83,1.09,1.34,1.21-.14,1.35-1.45,1.88-2.2.46-.65,1.4-1.08,1.43-1.89.04-1.05,1.54-.64,1.45-1.68,0-.06.37-.15.57-.22.66-.25,1.32-.51,2.22-.86,1.09-.17,2.46-.39,3.83-.61-.01.11-.03.21-.04.32.95.3,1.89.6,2.95.93v.94c.26.09.46.17.71.26.71,1.15,1.45,2.36,2.17,3.55,1.04-.61,2-1.18,2.96-1.75.11.11.22.22.35.35.28-.14.57-.28.98-.48.12.3.22.54.34.84.43-.1.94-.22,1.44-.34.44.83.92,1.44,1.73,1.94,1.26.78,2.3,1.86,3,3.22.58,1.14,1.21,2.26,2.02,3.75v2.04c.28.06.49.11.78.17.22.94.45,1.91.73,3.07.11.11.38.38.65.65.08.14.2,2.95.15,3.26-.17,1.08-.33,2.15-.49,3.2-.48.5-.93.97-1.09,1.14-.16.93-.26,1.49-.37,2.15-.48.79-1.67,1.17-1.85,2.33-.58.27-1.18.5-1.72.82-.56.33-1.07.75-1.6,1.12-.5-.6-.97.03-1.43.09-.61.09-1.19.45-1.85.73-.41-.5-.94-.32-1.47.03-.48-.7-1.3-.08-1.87-.48-.53-.37-1.09-.71-1.78-1.14-1.12,1.62-3.17,2.36-4.66,4.03-1.02.21-2.36-.42-3.55.42-1.29-.62-2.62-1.25-4.31-2.06-.29-.25-.89-.77-1.87-1.63-.51-1.07-1.54-2.49-2.3-4-.06-1.15.06-2.22-.36-3.33-.35-.94-.13-2.11-.06-3.18.07-1.05.27-2.09.44-3.35-.37.33-.53.48-.75.67-.36-.56-.71-1.11-.9-1.41-.74-3.23.63-6.04.79-9.02-.99-.71-1.92-1.39-2.81-2.04-.61.34-1.11.62-1.72.96h-3.26c-.33-.41-.77-.93-1.09-1.33-.56-.05-.91-.07-1.09-.09-.44-1.72-1.53-3.1-1-4.93-2.06-.17-3.09-2.16-5.02-2.46-1.37-1.44-3.41-1.83-4.88-3.04-1.08.88-2.3,1.63-3.18,2.67-.99,1.18-2.82,1.47-3.25,3.17-.85.19-1.38.72-1.93,1.4-.58.73-1.45,1.22-2.2,1.81-.69.54-1.39,1.07-2.08,1.62-.74.6-1.22,1.54-2.24,1.78.08,1.07-1.68.7-1.41,2.14.84.33,1.81.71,2.72,1.06,1.72-1.72,3.74-1.54,5.57-1.49,1.08.88,2.05,1.67,3.14,2.56-.72,1.36,1.28,1.96.92,3.26.34.24.56.44.82.57,3.85,1.94,7.77,3.73,11.69,5.52,1.16.53,2.19,1.41,3.38,1.78,3.43,1.06,6.56,2.67,9.75,4.68ZM37.04,60.24c-.09-.34-.08-.68-.21-.73-1.15-.54-2.31-1.05-3.48-1.55-.64-.27-1.3-.5-1.94-.75.12-.89-.86-.92-1.17-1.01-1.12-.32-2.11-.8-3.15-1.27-1.1-.49-2.38-.54-3.25-1.56-1.03.42-1.36-.74-2.13-.94-.74-.2-1.51-.48-2.13-.92-1.28-.9-2.76-1.19-3.97-1.62-.74,1.38-.36,2.93-1.16,4.22-.03.06,0,.15,0,.23.66.98.69,1.99.08,3,.28.28.55.55.82.82-.17.22-.35.44-.43.54.95,2.45,1.85,4.74,2.74,7.03h1.98c.53,0,1.1-.11,1.6.03.58.16,1.05-.69,1.51-.18.54.6.97-.71,1.5,0,.06.08.72-.2,1.09.05.56-.86,1,.06,1.07.06,1.04-.19,1.67-.4,2.3-.4,3.74-.03,7.49,0,11.23-.02.66,0,1.44.09,1.96-.21.59-.34,1.22.87,1.62-.16.43.45.81-.05,1.19-.04.48,0,.95.25,1.41.39.6-.2,1.2-.41,1.98-.68-.72-.25-1.3-.46-1.88-.66-1.07-.36-2.33-.47-3.19-1.11-1.24-.93-2.7-1.31-3.94-2.13-.64-.42-1.24-.41-2.03-.43ZM72.27,64.37c-.31-.92.53-1.93-.02-2.95,1-1.08.34-2.18,0-3.16.22-.32.38-.55.51-.75-.49-.91-.52-1.83-.75-2.65-.22-.78-.39-1.78-1.07-2.42-.71-.67-1.23-1.47-1.72-2.31h-.82c-.93-.35-.6-1.67-1.8-1.88-.78-.14-1.46-.86-2.27-1.38-.28.13-.6.27-.92.42-.32.15-.67.27-.94.49-1.9,1.57-3.92,5.87-4,8.41-.02.5.21,1.08-.37,1.44,0,1.88-.24,3.81.07,5.64.29,1.71.79,3.47,2.02,4.87.17.2.2.52.26.69,2.19.78,4.2,2.02,7.07,1.26.57-.53,1.57-1.32,2.37-2.27.84-.99,1.49-2.13,2.39-3.46ZM76.06,43.46c-1.45.13-1.09,1.66-2.24,1.69-.38.83-.6,1.8-1.17,2.47-.63.74-1.11,1.38-.94,1.95.82.83,1.6,1.29,1.86,1.95.78,2.01,1.53,4.06,1.39,6.27-.04.65.53,1.16.09,1.94-.33.58-.06,1.49-.06,2.25,0,.69.11,1.4-.03,2.05-.13.56-.55,1.05-.82,1.53.18.2.28.31.37.42-.12.07-.24.15-.37.21-.17.07-.34.13-.5.19.9,1.43,2.57.92,3.61,1.58.92-.44,1.78-.85,2.61-1.25.19.19.29.29.52.52,1.1-1.09,2.18-2.16,3.36-3.32v-.79c.69-1.44,1.21-2.52,1.74-3.63-.09-.1-.23-.26-.37-.41.58-1.17.67-1.23.04-2.19-.88-1.32-.6-3.12-1.87-4.28-.19-.17.08-.78-.05-1.11-.47-1.18-1.33-2.19-1.46-3.51-1.06-.19-1.02-1.21-1.43-1.88-.72-.12-1.04-.54-1.33-1.24-.2-.49-.99-.75-1.48-1.08-.26.17-.49.33-.89.61-.27-.44-.51-.83-.58-.94ZM68.46,40.19c-1.55-.22-2.74-1.51-3.86-1.12-1.36.68-2.31,1.16-3.17,1.6-.85,1.15-1.76,2.2-2.47,3.38-.69,1.15-1.17,2.41-1.77,3.68-.19,1.19-.39,2.45-.59,3.72.7-.96,1.92-1.63,1.37-2.97,1.89-1.65,3.69-3.21,5.58-4.86.48.82,1.52.3,2.09,1.05.51.67,1.3.82,2.13.94.74.11,1.14.87,1.72,1.38.95-.36,1.03-1.3,1.45-2.01-.36-.38-.68-.71-1.07-1.13v-1.88c-1.09-.16-1.05-1.08-1.4-1.78ZM25.18,49.65c-.67.06-1.37.11-2.45.2,1.37,1.33,2.77,1.54,4.55,2.26-.75-1.23-1.49-1.76-2.1-2.46Z"/>
        <path class="cls-1" d="M44.85,48.75c1.32.44,2.26.76,3.51,1.17.43.46,1.1,1.18,1.81,1.95.05.39.09.9.19,1.4.05.27.34.71.29.75-.47.35-.19.61-.08,1.01.08.29-.32.76-.6,1.08-.55.62-1.17,1.19-1.94,1.96-1.04-.26-2.21-.55-3.37-.86-.27-.07-.7-.15-.75-.32-.33-1.03-1.55-1.13-1.99-2.1-.6-1.35-.63-2.73.39-3.8.8-.84,1.75-1.54,2.54-2.22ZM45.14,52.05c-.57.54-.91.86-1.25,1.19.84.63,1.68,1.26,2.51,1.89.15-.15.25-.25.36-.36.16.15.32.29.48.44.21-.21.43-.43.62-.62v-1.49c-.54-.54-1.02-1.02-1.41-1.41-.53.15-.99.28-1.32.38Z"/>
      </g>
    </g>
  </g>
</svg>