<?xml version="1.0" encoding="UTF-8"?>
<svg id="Layer_2" data-name="Layer 2" xmlns="http://www.w3.org/2000/svg" viewBox="0 0 100 100">
  <defs>
    <style>
      .cls-1 {
        fill: #635f5a;
      }

      .cls-1, .cls-2 {
        stroke-width: 0px;
      }

      .cls-2 {
        fill: none;
      }
    </style>
  </defs>
  <g id="Layer_1-2" data-name="Layer 1">
    <g>
      <rect class="cls-2" width="100" height="100"/>
      <g>
        <path class="cls-1" d="M18.45,73.07c-1.43-1.31-2.83-2.6-4.51-4.14-.22-.44-.63-1.26-1.07-2.15q.72-1.69,3.31-3.21s1.67-.06,1.67-.06c.34.2.68.39,1,.58.29-.27.48-.45.68-.63.56.87,1.44.38,2.3.61-.4-1.53-.76-2.92-1.14-4.38-.24.21-.43.36-.64.55-3.6-.91-6.4-2.98-8.29-6.19-.7-1.2-1.19-2.55-1.58-3.88-.32-1.13-.35-2.34-.54-3.7,1.16-.36,2.41-.75,3.72-1.16,2.81.36,4.2,3.15,6.83,4.15.22-1.23.34-2.56.71-3.83.34-1.17.95-2.27,1.35-3.2-.76-1.24-1.81-2.37-2.19-3.69-.73-2.48-1.12-5.07-.68-7.78.22-.22.54-.54.95-.95v-1.79h4.39c.72.73,1.76,1.59,2.54,2.65.47.63.54,1.55.84,2.51,2.55-2.02,5.08-4.31,8.4-5.44-.22-.19-.35-.31-.52-.46.54-.56-.22-1.37.42-1.92-.43-2.3.97-4.03,1.82-5.93.13-.3.28-.59.4-.84,1.67-1.18,3.32-2.34,4.97-3.5.22.2.41.37.69.62.4-.2.84-.42,1.52-.75.33.56.68,1.17,1.04,1.79.09-.09.18-.18.28-.27,0,1.43.15,2.87-.04,4.27-.18,1.29-.63,2.58-1.15,3.79-.49,1.14-1.85,1.75-2.05,2.96-.86.7-1.65,1.35-2.52,2.06h-.95c-.32.32-.64.64-1.01,1.01h-2.66c-.49.59-.99,1.21-1.49,1.81-.31-.28-.43-.39-.65-.59-.31.31-.62.66-.96.97-.38.35-.74.81-1.2.97-1.61.55-2.51,1.94-3.48,3.11-.57.7-1.38,1.25-1.76,2.14-.36.83-.89,1.59-1.3,2.4-.45.88-.84,1.79-1.3,2.67-.84,1.62-.8,3.5-1.47,5.17.94.58-.47.86-.19,1.51.26.6-.24,1.74.12,2.05.81.7-.31,1.08-.04,1.48.35.54-.04,1.06.05,1.43.49,2.1.99,4.21,1.58,6.29.16.59.27,1.2.52,1.75.28.6.61,1.23,1.07,1.69.94.92.92,2.33,1.86,3.26.85.84,1.46,1.92,2.31,2.77,1.47,1.47,2.99,2.99,4.7,4.06,2.29,1.42,4.95,2.23,7.45,3.29.15.06.35,0,.67,0v2.5c-1.24-.15-2.51-.3-4.03-.48-.17-.21-.49-.63-.94-1.21-.55.98-.99,1.78-1.54,2.76-.42.28-1.05.7-1.86,1.25-.76.08-1.76-.08-2.77.47-.85.46-1.93-.01-3.01.48-1.04.47-2.4-.43-3.5-.99-.82-.42-1.62-1.03-1.52-2.22.02-.27-.33-.56-.51-.85.99-2.75.62-2.2,5.99-5.41-.67-.87-1.33-1.74-2.15-2.81-.77.17-1.73.49-2.72.59-1.11.11-2.17,1.09-3.23.51-1-.55-1.99-.43-2.98-.5ZM18.56,52.34c-1.75-1.31-3.41-2.55-5.04-3.78-.25.25-.44.44-.57.57.58,1.28,1.14,2.54,1.93,4.27,1.02.87,2.07,2.69,4.45,3.17-.27-1.53-.51-2.83-.76-4.24ZM39.27,27.38c2.05-1.48,3.39-3.13,4.63-5.08,0-.42-.07-1.05.02-1.65.08-.51.35-.98.73-1.94-.9.44-1.32.65-1.75.85-.52.24-1.05.47-1.57.7-1.92,3.62-2.23,4.6-2.06,7.13ZM35.35,79.22c-1.02-.45-1.96-.99-2.98-1.23-.23-.05-.72.44-1.11-.06-.55.97-1.66.13-2.36.73-.37.32-.86.49-1.27.77-.22.14-.39.36-.57.56-.1.11-.18.24-.24.32.43.47.84.92,1.36,1.49,1.73-.19,3.5-.39,5.01-.56.84-.79,1.48-1.39,2.14-2ZM16.29,66.84c1.31,1.62,2.77,2.65,4.41,3.55h2.58c.26-.26.51-.51.82-.82-.69-.49-1.39-.93-2.03-1.45-1.13-.92-1.15-.78-2.41-1.11-1.07-.27-2.04-.48-3.37-.17ZM22.79,31.11c-.3.86-.84,1.63-.66,2.17.16.5-.14.92-.13.93,1.03,1.38.48,3.18,1.26,4.59.61-.98,1.23-1.96,1.87-3,.24-1.87-.36-3.44-2.34-4.69Z"/>
        <path class="cls-1" d="M78.57,73.56c-1.06.58-2.12-.4-3.23-.51-.99-.1-1.95-.41-2.72-.59-.82,1.07-1.49,1.94-2.15,2.81,5.36,3.21,4.99,2.65,5.99,5.41-.18.28-.53.58-.51.85.1,1.19-.7,1.8-1.52,2.22-1.1.56-2.46,1.46-3.5.99-1.08-.49-2.17-.02-3.01-.48-1.01-.55-2-.39-2.77-.47-.81-.55-1.44-.97-1.86-1.25-.55-.98-.99-1.78-1.54-2.76-.45.58-.78.99-.94,1.21-1.52.18-2.79.33-4.03.48v-2.5c.31,0,.52.06.67,0,2.51-1.06,5.17-1.87,7.45-3.29,1.72-1.06,3.24-2.59,4.7-4.06.85-.85,1.46-1.93,2.31-2.77.94-.93.92-2.34,1.86-3.26.46-.46.79-1.08,1.07-1.69.25-.55.35-1.16.52-1.75.58-2.08,1.09-4.19,1.58-6.29.08-.37-.31-.89.05-1.43.27-.4-.85-.79-.04-1.48.35-.3-.14-1.44.12-2.05.28-.65-1.13-.93-.19-1.51-.68-1.67-.63-3.54-1.47-5.17-.46-.88-.85-1.79-1.3-2.67-.42-.81-.94-1.57-1.3-2.4-.39-.89-1.19-1.44-1.76-2.14-.97-1.17-1.87-2.56-3.48-3.11-.46-.16-.82-.62-1.2-.97-.34-.31-.65-.66-.96-.97-.21.2-.34.31-.65.59-.5-.6-1-1.22-1.49-1.81h-2.66c-.37-.37-.69-.69-1.01-1.01h-.95c-.86-.71-1.66-1.35-2.52-2.06-.2-1.2-1.56-1.82-2.05-2.96-.52-1.21-.97-2.5-1.15-3.79-.19-1.4-.04-2.85-.04-4.27.09.09.18.18.28.27.36-.61.72-1.23,1.04-1.79.68.33,1.12.55,1.52.75.28-.25.47-.43.69-.62,1.65,1.16,3.3,2.33,4.97,3.5.12.24.26.54.4.84.85,1.9,2.26,3.63,1.82,5.93.64.55-.11,1.36.42,1.92-.17.15-.3.27-.52.46,3.32,1.13,5.85,3.42,8.4,5.44.3-.95.37-1.88.84-2.51.79-1.05,1.82-1.92,2.54-2.65h4.39v1.79c.41.41.73.72.95.95.44,2.71.05,5.3-.68,7.78-.39,1.32-1.43,2.46-2.19,3.69.4.93,1.01,2.03,1.35,3.2.37,1.27.49,2.61.71,3.83,2.63-1.01,4.02-3.79,6.83-4.15,1.3.41,2.55.79,3.72,1.16-.18,1.35-.21,2.57-.54,3.7-.38,1.34-.88,2.69-1.58,3.88-1.88,3.21-4.69,5.27-8.29,6.19-.22-.18-.4-.34-.64-.55-.38,1.46-.74,2.85-1.14,4.38.86-.23,1.73.26,2.3-.61.19.18.38.36.68.63.32-.18.66-.38,1-.58,0,0,1.67.06,1.67.06q2.59,1.52,3.31,3.21c-.44.89-.85,1.71-1.07,2.15-1.68,1.54-3.08,2.83-4.51,4.14-.98.07-1.97-.06-2.98.5ZM80.68,56.58c2.38-.48,3.42-2.3,4.45-3.17.78-1.74,1.35-2.99,1.93-4.27-.13-.13-.32-.32-.57-.57-1.64,1.23-3.29,2.46-5.04,3.78-.25,1.41-.49,2.71-.76,4.24ZM58.67,20.25c-.52-.23-1.05-.46-1.57-.7-.43-.2-.85-.41-1.75-.85.37.96.65,1.44.73,1.94.09.6.02,1.23.02,1.65,1.24,1.95,2.58,3.6,4.63,5.08.17-2.53-.14-3.51-2.06-7.13ZM66.78,81.22c1.51.17,3.29.37,5.01.56.52-.57.94-1.02,1.36-1.49-.05-.07-.13-.2-.24-.32-.18-.19-.35-.41-.57-.56-.41-.27-.9-.45-1.27-.77-.69-.6-1.8.25-2.36-.73-.39.49-.88,0-1.11.06-1.02.24-1.96.78-2.98,1.23.66.61,1.29,1.21,2.14,2ZM80.34,67.01c-1.26.32-1.29.18-2.41,1.11-.64.52-1.34.97-2.03,1.45.31.31.56.56.82.82h2.58c1.64-.9,3.1-1.93,4.41-3.55-1.33-.31-2.3-.1-3.37.17ZM74.87,35.81c.64,1.03,1.26,2.02,1.87,3,.78-1.41.23-3.22,1.26-4.59.01-.02-.29-.43-.13-.93.17-.54-.37-1.3-.66-2.17-1.98,1.25-2.58,2.82-2.34,4.69Z"/>
        <path class="cls-1" d="M44.99,61.65c.1.11.28.3.53.57-.13.27-.28.57-.46.95.61,1.08.65,2.26-.19,3.44.19.34.39.71.65,1.17-.19.24-.39.51-.46.61.72,1.7.2,3.38.41,5.02-.86.18-1.67.35-2.64.55-.05-.05-.29-.31-.58-.61v-23.48c-.24-.26-.48-.51-.78-.83-.18.14-.35.27-.52.4-.71-.36-1.43-.72-2.33-1.18-1.08-1.77-1.31-3.93-1.27-6.19.02-.98.53-2.14-.31-2.84.29-1.57.56-3.04.83-4.53,1.16-.24,2.18-.47,2.78.97-.15.21-.34.48-.54.76.7.51.62,1.07.03,1.59.19.3.37.57.53.81-.25.39-.43.67-.61.96.66,1.37.9,2.74.08,4.15.89.51,0,2.44,1.75,2.39.07-.05.15-.1.2-.16.05-.06.11-.15.11-.22,0-3.74,0-7.47,0-11.3h2.68c0,.67-.3,1.69.07,2.14.52.63-.29,1.26.39,1.88.36.33.23,1.48-.42,2.09.73.66.77,1.34.03,2.02.19.34.38.68.56,1-.26.29-.44.48-.56.61.23.46.46.9.71,1.39.24-.23.49-.45.76-.71.05-.75,0-1.56.18-2.3.24-.99.12-2.09.77-3.02-.69-1.59-.19-3.31-.39-5.09h2.49c1.25,1.67.61,3.74.75,5.69-1.11,1.27.04,3.1-1.07,4.37.33,1.41-.88,2.32-1.17,3.69-.97.26-2.02.53-3.1.82.16.19.32.37.57.68-.29.79-1.17,1.72-.06,2.63-.42,1.37-.08,2.75-.12,4.1-.04,1.3.38,2.57.11,3.84-.08.4-.28.77-.44,1.2Z"/>
        <path class="cls-1" d="M58.77,72.45c-.59.83-.94,1.34-1.41,2-.66-.61-1.16-1.06-1.7-1.55v-23.08c-.7-.6-1.52-1.17-2.17-1.9-.61-.68-1.03-1.53-1.75-2.63.15-2.53.33-5.38.51-8.44,1.37-.97,2.74-1.94,4.12-2.91.71,1.24,2.49-.11,2.98,1.41,1.04.21,1.96.61,2.63,1.68v1.42c.4.46.8.9,1.26,1.42-.24.32-.44.59-.65.87.1.1.23.22.35.34-.33.92-.58,3.58-.38,4.09-.43.79-.86,1.58-1.51,2.76-.06.04-.53.41-1.05.67-.51.25-1.08.4-1.65.59.15.26.31.53.49.84-.18.34-.38.7-.64,1.16.18.24.38.5.59.77-.1.1-.23.23-.35.35.52.83.2,1.8.43,2.64.23.83-.61,1.38-.18,2.3.37.81.07,1.91.15,2.88.06.84-.37,1.79.49,2.47-.89.77-.38,1.8-.5,2.71-.11.79-.58,1.93-.24,2.29.87.9-.44,1.61.1,2.51.39.65.08,1.72.08,2.33ZM56.52,37.06c-.31.4-.61.79-.91,1.19-.68.9-.23,2.08-.61,2.95-.51,1.17-.08,2.18.15,3.13.27,1.15,1.07,2.18,2.58,2.4.51-.72,1.05-1.49,1.63-2.31,0-.65-.29-1.61.06-2.01,1.05-1.2.1-2.03-.26-2.99-.15-.38-.37-.74-.42-.83-.84-.58-1.44-1-2.21-1.53Z"/>
      </g>
    </g>
  </g>
</svg>