<?xml version="1.0" encoding="UTF-8"?>
<svg id="Layer_2" data-name="Layer 2" xmlns="http://www.w3.org/2000/svg" viewBox="0 0 100 100">
  <defs>
    <style>
      .cls-1 {
        fill: #635f5a;
      }

      .cls-1, .cls-2 {
        stroke-width: 0px;
      }

      .cls-2 {
        fill: none;
      }
    </style>
  </defs>
  <g id="Layer_1-2" data-name="Layer 1">
    <g>
      <rect class="cls-2" width="100" height="100"/>
      <path class="cls-1" d="M9.02,72.67c-.58-.47-.97-.79-1.47-1.19.46-.54.87-1,1.24-1.44h3.72v-1.47c0-.58.02-1.16,0-1.74-.02-.49.08-1.28-.16-1.41-.7-.38.66-.91-.17-1.16-.09-.03-.08-.38-.1-.59-.06-.68.08-1.37.11-2.03.03-.7-.11-1.36-.11-2.04,0-.73,0-1.45,0-2.18,0-.8.08-1.6-.02-2.39-.19-1.6.52-3.27-.39-4.81.97-.38-.17-1.08.22-1.5.64-.7-.45-1.05-.28-1.71.16-.61,0-1.3.05-1.95.03-.32.22-.62.32-.89-.91-2.09.02-4.22.08-6.75-.8,1.69-1.58,2.88-1.88,4.28-.06.26-.24.5-.26.76-.16,1.61-.36,3.21-.43,4.82-.07,1.66-.06,3.34,0,5,.03.94-.16,1.77-.75,2.63-.59-.32-1.18-.64-1.81-.97v-6.78c.11-.15.28-.37.45-.6-.21-.29-.37-.51-.5-.69.67-1.98.23-4.16,1.27-6.03.99-1.78,1.28-4.02,3.34-5.11.71-2.12,3.13-2.55,4.33-4.22.1.09.25.22.45.4.42-.54.85-1.07,1.39-1.76.06,0,.34-.02.67-.03,1.36-1.48,3.23-1.84,5.14-2.19,1.22-.23,2.51-.11,3.66-.81.37-.23,1-.02,1.5-.04.38-.02.74-.6,1.14-.04.16-.14.31-.27.53-.46.29.17.58.34.91.53.27-.15.57-.31.95-.52.19.15.41.31.63.48.08-.08.18-.18.37-.37.12.09.25.18.46.34.11-.08.25-.19.5-.38.62-.07,1.39,1.11,2.09.01.23.17.44.32.66.49.34-.2.63-.36.96-.55.24.17.46.33.52.38.89-.12,1.66-.14,2.36-.35.58-.18.96.58,1.65.1.52-.35,1.3.04,1.97.31.56.23,1.29,0,1.94.06.53.06,1.04.34,1.57.4.6.07,1.14-.34,1.84-.03.55.24,1.29.02,1.94.06.55.03,1.05-.01,1.62.31.47.27,1.29-.07,2.28-.18-.07-.05.15.11.41.31,1.64-.82,3.38-.6,5.01.04.77.3,1.52.22,2.22.43.54.16.71-.69,1.27-.24.29.23.77.22,1.26.35.48,1.54,2.06,2.12,3.17,3.12.71.64,1.48,1.28,2.22,1.92,1.13.97,2.02,2.17,3.33,2.97.72.44,1.5,1.06,1.76,2.07.09.36.55.66.9.92.77.6,1.57,1.17,2.51,1.87.8-.2,1.81-.9,2.9,0,.26.21.96.21,1.26.01,1.68-1.15,4-1.17,5.37-3.24.27.45.49.8.7,1.16.24-.24.34-.34.53-.53.29.39.59.77.92,1.21-.32.74.53,1.6.1,2.42-1.37,2.11-2.77,4.15-4.73,5.64v1.82c-.3.31-.59.62-.85.9.16.23.32.45.46.65-.65.85-1.24,1.62-1.82,2.38.49.91.56,1.36.45,2.32-.02.21-.1.55.01.63.92.72.69,2.15,1.72,2.75v2.91c-.47.69-.85,1.26-1.34,1.97-1.38-.04-2.27,1.52-3.83,1.44-2.51,1.15-4.54.1-6.46-1.4-.51-.4-.93-.91-1.19-1.17-.45-1.12-.8-2-1.2-3.01-.79-.2-1.88.1-2.55-.8-.54-.72-1.12-1.41-1.69-2.13.11-.12.24-.27.33-.36-.5-.9-1-1.78-1.58-2.82h-2.65c-.62-.32-1.14-.6-1.86-.97.19,1.04-.3,2.03.46,2.92.11.12.04.43.01.64-.31,2.29.55,4.5.46,6.78-.09,2.32-.02,4.64-.02,6.96v.76c.26.29.46.5.65.7.34-.1,2.22-.06,2.59-.06,1.65,0,3.3-.03,4.95-.08.11,0,.21-.19.31-.29.15.14.31.27.46.41.1-.1.19-.24.31-.3.89-.44,2.03-.57,2.26-1.83.76.16.54-.71.91-.87.41-.19.9-.19,1.68-.33.19.23.6.73,1.12,1.37.81-.43,1.59-.83,2.73-1.44h1.54c.94,1.1,1.93,2.28,2.94,3.46,1.57-.25,3.18.38,4.65-.48.81.39,1.92.03,2.51,1.17v1.35c-2.86.22-5.67.43-8.18.62-1.11-1.28-2.01-2.32-3-3.46-.67.7-1.48,1.56-2.73,1.66-.62-.42-1.25-.83-1.97-1.31-.78.78-1.58,1.56-2.37,2.37-.79.82-1.6,1.58-2.84,1.54-.24-.42-.48-.84-.73-1.26-.16.07-.26.15-.36.15-1.24-.07-2.51-.66-3.69.21-1.32-.85-2.78-.29-4.17-.39-1.37-.1-2.76-.02-4.14-.02h-4.36c-1.38,0-2.76.02-4.14,0-.71-.01-1.47.06-2.1-.19-.67-.27-1.04.5-1.69.22-.62-.26-1.36.2-2.06-.34-.26-.2-.97.24-1.49.29-.57.06-1.16.05-1.74,0-.58-.05-1.29-.45-1.69-.23-.58.32-1.12.25-1.65.22-.67-.03-1.4-.51-1.99-.36-1.09.29-2.09-.15-3.14-.07-1.16.09-2.32.02-3.48.02H9.02ZM19.38,58.47c.38-.33.89-.59,1.11-1.01.28-.53,1.15-.15,1.23-.99.03-.3.68-.56,1.06-.81.85-.57,1.64-1.11,2.19-2.1.52-.94,1.53-1.58,1.96-2.68.17-.44.7-.75,1.26-1.3,0,.03.01-.25.03-.68,1.84-1.13,1.64-3.57,2.77-4.9.36-1.5.66-2.72.96-3.95-.07-.08-.15-.18-.23-.28.34-.52.68-1.04.93-1.42h1.7c-.21,1.73.44,3.49-.89,4.94-.14.16,0,.56-.02.85-.03.34-.02.72-.16,1.02-.69,1.46-1.33,2.96-2.19,4.31-.38.59-.71,1.15-.76,1.74-.35.12-.57.2-1.14.39,1.47.52,2.58.91,3.74,1.32.09-.07.26-.2.4-.31,2.17.93,6.4,1.09,8.5.62,1.99-.45,3.88-1.23,5.88-1.54.1-.29.19-.54.28-.79.33,0,.61,0,.59,0,.51-.56.86-.96,1.13-1.26-1.09-2.33-2.01-4.85-2.71-7.54.16-.33.36-.75.58-1.2.15.13.3.26.43.37.29-.16.57-.32.85-.48,1.09,1.79,1.43,3.74,2.04,5.59.56,1.71,1.52,3.22,3.24,4.05.29.14.68.06.77.06.47.63.8,1.07,1.2,1.6,0,.59-.06,1.31.02,2.03.08.74.34,1.47.41,2.22.17,2.04-.26,4.1.41,6.14.26.79.1,1.73.03,2.6-.08.92.45,1.82.32,2.62-.14.83.48,1.52.14,2.29-.04.1.06.26.1.4.2.18.41.37.61.56.45.34.56-.8,1.08-.24.09.09.52-.18.8-.21.41-.04.83-.01,1.45-.01-.19-.67-.33-1.15-.46-1.63.84-.21-.62-.86.21-1.08-.1-.5-.3-1.01-.29-1.51.02-.53.24-1.05.37-1.56-.13-.29-.2-.65-.41-.9-.42-.5.74-.66.19-1.27-.26-.29-.11-.95-.19-1.43-.07-.4-.29-.79-.29-1.18,0-.43.39-1.16.26-1.25-.79-.54,0-1.18-.2-1.76-.21-.65-.14-1.39-.21-2.09-.04-.42.05-1.09-.16-1.2-.68-.36.61-.84-.15-1.19-.14-.06.08-.94.15-1.62-.44-.41-1.03-.94-1.56-1.43v-1.69c.4-.45.74-.83,1.05-1.17.65,0,1.25.1,1.8-.03.57-.14.79.91,1.52.3.28-.23.98-.08,1.47-.27.5-.2.99-.42,1.36-.58.59-1,1.1-1.95,1.7-2.85.16-.25.56-.37.87-.48,1.05-.4,2.11-.77,3.22-1.17.05.04.19.15.33.26.31-.31.57-.57.82-.82.16.14.31.28.47.42.94-.19,1.87-.38,3-.61-.97-.33-1.38-1.02-1.98-1.48-.7-.53-1.57-1.05-1.74-2.08,0-.06-.1-.1-.15-.15-.7-.45-1.7-.35-2.04-1.48-.24-.79-1.38-.99-1.74-1.85-.08-.19-.27-.39-.46-.45-1.97-.65-2.87-2.61-4.55-3.6-.11.1-.25.3-.44.37-.19.07-.52.11-.63,0-.58-.57-1.4-.21-1.97-.51-.64-.33-1.24.11-1.94-.25-.68-.36-1.81-.32-2.42.2-.83-.1-1.5-.2-2.17-.24-.15,0-.43.33-.44.31-.59-.66-1.38-.39-2.04-.32-.7.07-1.34-.2-1.97-.28-.64-.08-1.01.59-1.67.24-.82-.44-1.8-.54-2.72-.41-1.17.17-2.2-.43-3.31-.44-3.63-.04-7.26-.02-10.9,0-.31,0-.62.22-.82.29-.44-.11-.84-.32-1.21-.29-.67.06-1.34.26-2,.41-1.46.33-2.99.5-4.36,1.05-.62.25-1.26,0-1.8.39-.39.28-.8.51-1.2.77-.61.4-.62,1.39-1.51,1.52-.12.02-.26.18-.3.3-.37,1.25-1.6,1.78-2.28,2.75-.01.29.05.61-.05.86-.37.86-.81,1.7-1.22,2.54.9.98-.22,1.88-.12,2.89.23,2.23.06,4.49.08,6.74,0,.49-.02,1.03.18,1.44.3.59-.48.95-.19,1.46.87,1.55.23,3.22.43,4.83-.59.75.19,1.47.05,2.26-.16.89.03,1.84.1,2.76,0,.11.18.21.26.29-.77.88-.63,2.08-.33,2.86.57,1.5.21,2.96.34,4.42.03.36-.18.73-.29,1.13h2.95c-.22-1.79,1.22-3.19.86-4.93.77-.62.24-1.49.45-2.21.2-.73.3-1.49.54-2.17.27-.79-.58-1.38-.22-2.18ZM84.03,60.65c.01-1.65-.89-3-1.66-4.4.1-.1.21-.21.38-.38-.2-.45-.33-1.01-.66-1.4-.45-.54-.36-1.16-.2-1.62.33-.94.93-1.79,1.33-2.71.32-.73.6-1.51.75-2.29.09-.44-.08-.92-.22-1.41-.42-1.37-.9-2.67-1.71-3.74-1.26-.22-2.41.11-3.58.31-1.11.19-2.24.39-3.37.51-1.17.12-2.33.37-3.84.61-.66.42-1.63,1.05-2.54,1.63.21,1.26-.28,2.26-.06,3.41.22,1.16,1.01,2.22.73,3.43.24.06.44.1.5.12.4,1.2.76,2.28,1.11,3.32.6.19,1.14.3,1.62.54,1.01.51,2.21.75,2.31,2.34.05.78.74,1.61,1.32,2.24.54.6,1.33.97,1.91,1.36.62.22,1.13.4,1.44.51,1.69-.57,3.34-.96,4.44-2.38ZM44.24,63.26c-.18-.42-.45-1.03-.72-1.64.91-.62-.36-1.33-.01-1.76.61-.78-.29-1.35-.08-2.07.19-.64.04-1.39.04-2.28-1.77.82-3.41.59-5.03.62-.51,0-1.02,0-1.52,0-.12,0-.25.1-.33.14-.22.52-.44,1.01-.47,1.09-1.78,1.56-3.31,2.83-5.31,3.22.14.85-.29,1.69.44,2.32-1.09.77.3,1.45.08,2.27-.19.69.09,1.52.18,2.28.09.83.2,1.66.31,2.48.83,1.32,2.14-.1,3.13.52.18.11.61-.19.77-.24,1.01.32,1.9.56,2.79-.12.79.8,1.78.31,2.67.38,1,.08,2.02.02,2.83.02.36-.28.58-.46.6-.47-.11-.64-.33-1.14-.22-1.54.12-.45-.88-.73-.12-1.23.1-.07-.33-.86-.2-.98.6-.56-.5-.75-.19-1.26.23-.37.2-.9.37-1.74ZM46.95,70.42h3.05c0-3.19,0-6.3-.01-9.41,0-.33-.3-.72-.2-.98.29-.76-.77-1.56.09-2.27-.39-.76.26-1.44.14-2.21-.14-.82.09-1.68-.29-3-.89,1.27-1.91,1.77-3.09,1.96-.23.04-.41.52-.55.83-.15.35-.22.73-.32,1.07.1.17.28.34.29.52.1,1.9-.21,3.82.42,5.7.2.59.21,1.36-.01,1.93-.27.68.84,1.2.08,1.82.67.48.34,1.19.39,1.79.05.71.01,1.43.01,2.23ZM52.19,52.21c0,.53.06,1.03-.02,1.5-.08.47.69.89.06,1.37.81.42-.17.75-.07,1.18.12.48-.01,1.01.04,1.51.03.29.35.79.29.83-.69.47.33.66.14,1.02-.16.3-.36.59-.42.91-.04.24.14.52.16.79.24,2.35.55,4.69,0,7.04.52.77-.15,1.94.74,2.45.62-.18,1.12-.32,1.66-.47.33-2.77-.74-5.48-.42-8.26.03-.26-.32-.57-.49-.84.21-.23.36-.39.43-.47-.95-1.95.3-4.15-.75-5.95.17-.49.33-.93.5-1.42-.58-.45-.81-1.24-1.85-1.2ZM25.04,60.54c.13.95.28,1.76.35,2.59.02.27-.25.56-.22.83.05.38.47.96.35,1.08-.62.62.23,1.07.1,1.65-.16.69-.12,1.45-.01,2.16.09.56.42,1.09.64,1.62.16-.14.32-.28.53-.47.35.17.71.35,1.04.52.25-.16.45-.29.62-.39.19.14.33.24.73.54-.16-1.63-.29-2.95-.44-4.4.03-.03.18-.19.22-.23-.48-1.83-.66-3.63-.85-5.49h-3.07ZM24.88,57.77c1.03-.09,1.64.47,2.57.17.63-.2,1.51.09,2.24.36.62-.84,1.75-.13,2.47-.85.61-.62,1.38-1.08,2.08-1.6-.15-.15-.36-.36-.59-.59-1.2-.05-2.53.26-3.49-.87h-1.45c-.19-.25-.44-.58-.65-.85-1.03,1.37-2.02,2.67-3.19,4.23ZM23.45,69.99c-.17-.88-.36-1.66-.47-2.45-.12-.9-.3-1.83-.2-2.72.07-.66-.6-1.39.08-1.91-.18-.55-.35-1.05-.52-1.56-.66,1.36-.7,1.36-.67,2.3.03,1.01-.07,1.95-.87,2.69.14.15.28.3.29.31-.07,1.23-.97,2.17-.66,3.34h3.02ZM62,49.37c1.33.54,2.46,1.01,3.42,1.4.48-.2.78-.32,1.03-.43-.18-.55-.35-1.1-.51-1.6-1.29.21-2.5.4-3.94.63ZM85,42.43c.29.58.61,1.23.93,1.87.46-.33.94-.68,1.54-1.12.21-.48.51-1.14.84-1.89-1.18.41-2.19.75-3.31,1.13Z"/>
    </g>
  </g>
</svg>