<?xml version="1.0" encoding="UTF-8"?>
<svg id="Layer_2" data-name="Layer 2" xmlns="http://www.w3.org/2000/svg" viewBox="0 0 100 100">
  <defs>
    <style>
      .cls-1 {
        fill: #635f5a;
      }

      .cls-1, .cls-2 {
        stroke-width: 0px;
      }

      .cls-2 {
        fill: none;
      }
    </style>
  </defs>
  <g id="Layer_1-2" data-name="Layer 1">
    <g>
      <rect class="cls-2" width="100" height="100"/>
      <g>
        <path class="cls-1" d="M76.52,65.29c1.63.67,2.78,1.14,3.61,1.48,2.12,2.19,2.01,5.24,3.92,7.18.32.99-.42,2.14.65,2.95-1.6,1.08.33,2.16,0,3.24-.89.9-1.98,1.16-3.2,1.04-2.42-.24-4.89.46-7.3-.4-.38-.13-.93.27-1.42.4-1.75.47-3.44-.74-5.19-.17-.66-.6-1.22-.28-1.98-.07-1.38.38-2.92.66-4.33-.31-1.7.69-3.45.98-5.36-.07-.21.15-.51.35-.96.67-.27-.14-.65-.35-1.18-.64-1.18.77-2.68.97-4.03.28-.57-.29-1.18.91-1.46-.2-.62.64-1.18.72-1.81-.04-.5-.6-.9,1.13-1.61.14-.16-.22-1.2-.18-1.25-.04-.39,1.01-1.02-.45-1.51.23-.51.71-.92-.22-1.37-.29-.79-.12-1.71-.27-2.43.65-1.11-1.01-2.46-.81-3.88-.73-.28.36-.57.73-.85,1.09h-4.36c-.48-.59-1.55-.66-1.66-1.84-1.07.71-1.96,1.31-2.88,1.93h-4.16c-1.97-.85-3.6-1.54-5.33-2.29.46-.85.83-1.52,1.19-2.19.37-.7-.97-1.4,0-2.11,0-2.34.17-2.96,1.29-4.15.85-.9,1.75-1.76,2.63-2.64-.49-1.96,1.28-5.18,3.55-6.38,0-.53-.07-1.11.02-1.66.08-.52.33-1,.52-1.56-.51-.91-.77-1.77-.22-3.01.35-.79-.29-2.01-.53-3.28-.93.18-1.96.55-2.98.53-.95-.02-1.9-.47-3-.77-.35-1.76-.74-3.73-1.18-5.94,1.36-.51,2.8-1.05,4.39-1.65.31-3.58,2.88-6.84,3.02-10.88,2.84-1.7,5.73-3.48,8.68-5.16,3.04-1.73,5.9-3.81,8.98-5.37,3.03-1.54,5.62-3.82,9.21-4.98.5.37,1.39.81,1.99,1.51.77.91,2.35.25,2.81,1.59,1.04-.05,1.58,1.18,2.28,1.21,1.22.06,1.59,1.16,2.58,1.5.93.33,1.72,1.19,2.79,1.56.87.3,1.59,1.01,2.36,1.53.19-.19.33-.33.28-.28,1.91,1.1,3.7,2.34,5.65,3.2,2.16.96,3.65,2.66,5.03,4.36.83,1.02.85,2.67,1.29,4.03.78,2.45,1.67,4.86,2.96,7.23.33-.28.57-.6.7-.57,1.08.32,2.14.7,3.35,1.12-.32.38-.48.58-.66.79.17.18.34.38.43.48-.6,2.02-1.18,3.97-1.83,6.16-1.5-.2-3.16.34-4.74-.43-.34.15-.74.34-1.36.62,0,1.17-.09,2.49.02,3.8.11,1.38-.2,2.73.28,4.17.35,1.04-.27,2.4-.44,3.46ZM67.75,71.15c.46-.52,1.15-1.29,1.81-2.03.27,0,.48.05.65,0,.5-.18.98-.4,1.45-.59.3.2.55.38.8.55.83-.95,1.73-2.01,1.23-2.98-.33-.64.35-1.23-.31-1.72-.75-.56,1.02-1.3-.1-2.11-.36-.26-.11-1.45-.04-2.21.05-.58.5-1.21.36-1.69-.75-2.58-.49-5.1.16-7.37-1.81-4.37-3.53-8.53-5.12-12.36-2.96-2.4-6.13-3.9-9.12-5.7-3.02-1.82-6.27-3.32-9.31-5.23-3.44,2.1-6.79,4.16-10.2,6.24-.03-.02-.22-.19-.5-.43-.09.34-.15.6-.27,1.05-2.96.87-5.34,2.97-7.87,4.92-.07.68-.13,1.4-.19,2.02-.44.09-.7.14-.7.14-1,2.78-1.53,5.51-3.2,7.97,0,1.07.13,2.33-.04,3.54-.17,1.2.53,2.28.11,3.57-.36,1.11-.07,2.42-.07,3.61,1.03.22,3.61,1.76,4.56,2.45,1.85,1.34.88,3.34,1.23,4.84.77.52,1.42.95,2.06,1.39.14-.14.27-.27.38-.38.47.22.94.45,1.29.61.65,1.26,1.25,2.44,1.95,3.81,0,.63.07,1.5-.02,2.35-.08.74-.36,1.47-.68,2.67,1.15-1.39,2.11.47,3.01-.69v-18.39c.16-.1.59-.37.96-.61-.15-.24-.25-.41-.41-.68h15.86c.2.2.39.31.46.47.53,1.12.74,2.39.61,3.53-.14,1.17.52,2.44-.09,3.38-.61.94.45,1.12.37,1.83-.16.28-.39.66-.7,1.21.74.53.92,1.17.53,2.12-.25.6.15,1.45.18,2.18.04.86,0,1.72,0,2.58v2.58h4.07v-3.4c.59-.9.99-1.5,1.38-2.09.9-.25,1.85-.52,3.44-.97ZM78.54,48.59c-2.47-4.56-3.85-9.24-5.42-13.7-2.4-.92-4.12-2.77-6.43-3.54-.37-1.09-1.49-.46-2.19-.98-4.46-3.3-9.5-5.63-14.2-8.34-1.09.57-2.08.99-2.97,1.56-1.82,1.17-3.47,2.7-5.42,3.56-2.3,1.01-4.24,2.63-6.57,3.54-2.33.91-4.03,3.01-6.61,3.45-.1,1.36-1.86,1.24-2.16,2.79-.51,2.65-1.76,5.17-2.71,7.79.19.3.43.67.78,1.23-1.12.71-2.07,1.4-3.11,1.93-.71.36-1.33.64-1.02,1.87,1.33-.29,2.62-.56,3.83-.83,1.01-4.13,3.37-7.61,4.3-11.81.29-.31.75-.79,1.2-1.28,3.58-1.49,6.61-3.9,9.97-5.73,3.36-1.83,6.62-3.85,9.84-5.74,1.17.28,2.22.54,3.33.81.04.18.1.44.18.83,1.45.1,2.56.98,3.77,1.79,2.76,1.82,5.86,3.03,8.51,5.12,1.71,1.35,3.87,2.13,5.92,3.21,1.04,2.88,2.11,5.87,3.19,8.87.26.06.52.11.73.16-.43,1.99,1.07,3.33,1.51,5.01h3.17c.26-.46.52-.9.89-1.55h-2.35ZM72.23,71.63c-1.65.31-2.15,1.79-2.7,3.32-1.29-.47-2.6-1.43-3.58-.07.21,1.03.38,1.88.55,2.73,2.65.51,5.43-.55,8.02.67.16.07.46.09.56,0,.95-.91,2.12-.51,3.21-.54,1.07-.03,1.96-.38,2.67-1.16.17-.19.25-.46.4-.75-.55-.53-1.06-1.02-1.5-1.45-.39.22-.69.4-1.07.62-.38-.72-.69-1.32-.99-1.89.44-.84.85-1.62,1.26-2.42-.56-.59-1.07-1.13-1.5-1.58-2.04.14-2.24,2.36-3.82,2.96-.41-.12-.84-.24-1.49-.44ZM30.05,71.89c-1.78,2.18-.79,3.96-.24,5.89.69.37,1.46.8,2.07,1.12,2.2-1.32,4.08-2.66,3.33-5.55-.57-.58-1.24-1.26-2.04-2.07-1.06.21-2.21.43-3.12.61ZM23,71.69c-1.11.3-2.5.45-3.14,1.71-.58,1.15-.9,2.37-.59,3.33,1.34,1.38,2.91,1.53,4.38,2.03.57-.36,1.25-.78,1.9-1.19v-3.61c-.85-.76-1.75-1.57-2.54-2.28ZM23.29,67.7c.9,1.03,1.82,1.83,3.4,1.75,1.47-.07,2.07-1.07,2.83-1.7v-1.87c-.96-.96-1.6-1.6-2.23-2.23-.23,1.22-1.59.78-2.44,1.25-1.19.66-.7,2.08-1.55,2.8ZM44.5,64.68v3.01c0,.96.03,1.91,0,2.86-.03.8.3,1.71-.54,2.33,1.01.76.51,1.56.05,2.36.27.25.53.5.89.84,1.21-2.07,2.38-4.07,3.54-6.07-1.2-1.62-2.42-3.27-3.95-5.34ZM49.2,60.63q-1.01.45-3.06-.05c1.52,2.18,2.48,4.5,4.38,6.65.41-2.57,1.84-4.18,3.11-5.89-.82-.27-1.66-.55-2.49-.83-.22.2-.43.39-.72.67-.28-.13-.6-.27-1.22-.55ZM54.21,77.62c-1.18-1.6-2.31-3.11-3.66-4.94-.55,2.07-2.16,3.13-2.67,4.94h6.33ZM55.37,64.16c-1.07,2.21-1.94,4.02-2.86,5.92,1.36.52,1.18,2.56,2.86,2.92v-8.84Z"/>
        <path class="cls-1" d="M59.43,39.31c0,1.44.25,3.03-.07,4.48-.3,1.33-1.23,2.51-1.94,3.87-.69.56-1.54,1.24-2.43,1.97h-1.11c-.17.29-.45.78-.64,1.11q-2.61-.38-3.66.1c-.23-.17-.51-.39-.79-.6-.18.16-.38.34-.63.56-.14-.38-.25-.71-.39-1.1h-1.46c-1.17-.4-1.41-1.77-2.62-1.78-.93-1.6-2.65-2.75-2.66-4.89,0-.96-.61-1.99-.41-2.87.16-.72.16-1.47.39-2.2.83-2.67,2.79-4.28,5.08-5.46.99-.51,2.3-.59,3.46-.59,1.26,0,2.72,0,3.73.61,1.69,1.03,3.5,2.07,4.45,4.01.44.88,1.02,1.69,1.71,2.81ZM47.95,40.21c1.19-.94.32-2.38.46-2.98-.8-.81-1.22-1.23-1.76-1.77-.88,1.01-1.88,2.17-2.9,3.33.42.44.68.71.9.94,1.07.15,2.1.3,3.31.48ZM52.02,47.43c1.87-.43,2.95-1.55,3.86-2.6v-2.3c-1.33.74-2.55,1.28-3.86.19v4.7ZM52.02,39.78h3.83c-.59-2.34-2.6-3.19-4.53-4.65.16,1.03.61,1.98.32,2.38-.78,1.05.69,1.4.39,2.26ZM44.99,43.41c.54,2.23,2.35,2.9,3.93,3.87.03-1.66-.19-2.84-.66-3.87h-3.27Z"/>
        <path class="cls-1" d="M65.74,40.06v2.4c-.28.28-.55.55-.97.97-.74-.26-1.57-.55-2.41-.84v-2.02c.63-.39,1.24-.76,1.86-1.15.44.18.9.38,1.52.64Z"/>
        <path class="cls-1" d="M33.81,42.43c.6-1.22,1.06-2.16,1.55-3.15.83.48,1.5.86,2.19,1.26,0,.7,0,1.34,0,1.97-.27.27-.53.54-.93.95-.76-.28-1.58-.58-2.81-1.03Z"/>
      </g>
    </g>
  </g>
</svg>