<?xml version="1.0" encoding="UTF-8"?>
<svg id="Layer_2" data-name="Layer 2" xmlns="http://www.w3.org/2000/svg" viewBox="0 0 100 100">
  <defs>
    <style>
      .cls-1 {
        fill: #635f5a;
      }

      .cls-1, .cls-2 {
        stroke-width: 0px;
      }

      .cls-2 {
        fill: none;
      }
    </style>
  </defs>
  <g id="Layer_1-2" data-name="Layer 1">
    <g>
      <rect class="cls-2" width="100" height="100"/>
      <path class="cls-1" d="M73.66,72.41c.03-.12.08-.29.13-.43.11-.31.21-.64.03-.87.19-.32.19-.61,0-.87-.04-.05-.07-.24-.08-.38-.02-.15-.04-.33-.1-.5-.06-.2,0-.44.07-.72.09-.35.2-.77.08-1.22.26-.43.04-.87-.06-1.07-.03-.06-.08-.15-.08-.18,0-.07,0-.14.01-.21.01-.35.03-.49.17-.6l.57-.44-.61-.38c-.15-.1-.17-.18-.13-.61.01-.12.02-.23.02-.34,0-.16.04-.33.07-.52.06-.32.13-.68.05-1.05-.11-.49-.13-.85.02-1.3.13-.37.03-.75-.05-1.08-.05-.19-.1-.38-.09-.52.04-.53,0-1.06-.02-1.57-.06-.94-.12-1.83.31-2.65l.16-.3-.22-.26c-.4-.46-.4-.93.03-1.79l.14-.29-.21-.25c-.29-.35-.27-.73-.21-1.32.03-.3.06-.62.03-.95-.05-.54-.04-1.08-.03-1.66,0-.26.01-.51.01-.77v-2.48c0-.27,0-.55-.01-.82-.01-.63-.02-1.22.03-1.81.02-.29,0-.56-.04-.83-.07-.58-.09-.89.23-1.18l.39-.36-.38-.37c-.28-.27-.27-.56-.22-1.1.03-.29.06-.62,0-.94-.02-.11-.02-.24-.02-.38,0-.35.01-.79-.31-1.25-.25-.35-.38-.82-.53-1.31-.03-.12-.07-.23-.1-.34-.14-.47-.41-.83-.64-1.16-.11-.15-.22-.3-.31-.46-.34-.59-.74-1.11-1.13-1.61-.13-.17-.26-.33-.39-.5-.21-.28-.5-.43-.73-.55-.3-.16-.41-.23-.46-.42-.13-.5-.52-.74-.83-.94-.26-.16-.42-.27-.49-.44-.18-.46-.49-.83-.79-1.19-.11-.13-.22-.26-.32-.4-.05-.07-.11-.13-.18-.2v-2.52l1.57-2.18-.09-.25c-.5-1.36-.52-2.55-.05-3.64l.06-.14-.03-.15c-.28-1.49-1.38-1.84-2.26-2.12-.15-.05-.31-.1-.46-.15l-.28-.1-.32.29c-.62-.41-1.27-.12-1.51-.02-.18.08-.51.07-.9-.01-.53-.12-1.07-.14-1.55-.16-.52-.02-1.14-.04-1.77,0-.23.02-.47.08-.71.14-.08.02-.19.05-.27.07-.46-.44-1.02-.14-1.22-.03,0,0-.02,0-.03.01l-.22-.41-.46.37c-.26.21-.35.24-.33.25,0,0-.03-.02-.08-.1l-.27-.46-.44.31c-.36.25-.83.25-1.36.24-.75-.01-1.69-.03-2.39.84l-.08.14c-.52,1.36-.48,2.76-.44,4.11.02.66.04,1.29,0,1.89v.14s.62,1.23.62,1.23l1.31.51c0,.14,0,.28,0,.41,0,.48.01.9-.11,1.24-.19.55-.54,1.13-1.11,1.82-.35.42-.74.84-1.12,1.24-.65.68-1.32,1.38-1.82,2.2-.34.55-.73,1.06-1.14,1.59-.46.6-.95,1.23-1.35,1.92-.96,1.64-1.23,3.24-.83,4.88.1.39.19.76.2,1.13.02.68.01,1.36.01,2.04v.6s-.5.49-.5.49c-.14-.08-.29-.16-.47-.19-.23-.04-.45-.05-.66-.06-.27-.01-.52-.02-.71-.1-.47-.18-.86,0-1.12.11-.22.1-.27.11-.34.08-.53-.23-1.03-.12-1.46-.02-.35.08-.65.15-.95.05-.69-.22-1.43-.17-2.14-.12-.51.03-1.01.04-1.51.04-.53,0-1.08.01-1.61-.02-.1,0-.24-.07-.4-.14-.1-.05-.21-.09-.32-.13l-.28-.1-.37.34-.8-.46-.26.39c-.05.08-.08.1-.41.09-.2,0-.45-.02-.69.08-.03-.02-.08-.05-.11-.08-.18-.13-.45-.32-.8-.25-.07.01-.14.04-.2.07-.42-.2-.84.05-1,.15-.06.03-.14.08-.14.09-.03,0-.11-.05-.16-.08-.25-.14-.83-.47-1.45.12-.11.02-.39-.01-.56-.03-.19-.02-.37-.04-.52-.04h-.3l-.14.27c-.15.3-.34.59-.52.87-.49.75-.99,1.52-.94,2.55-.81,1.36.04,2.31.74,3.02-.05.07-.11.13-.16.2-.33.42-.68.86-.98,1.33-.32.5-.6,1.01-.89,1.55-.13.24-.26.48-.39.72l-.06.11v1.77l.22.15c.19.12.36.28.54.44.39.34.84.75,1.5.88,0,.04-.01.07-.02.11-.02.34-.02.68-.02,1.01,0,.43,0,.84-.03,1.24-.03.38-.1.75-.18,1.15-.07.38-.14.77-.18,1.17-.1.99.06,1.94.21,2.87.16.99.31,1.92.17,2.86-.03.18-.09.61.23.84.16.12.17.23.14.61-.01.2-.03.42.01.66.05.29.12.57.18.85.07.3.14.59.19.89.04.22.06.47.08.74.04.62.09,1.27.46,1.75.22.28.22.57.23.95,0,.38.02.82.26,1.26.34.63.57,1.31.81,2.03.23.68.46,1.38.8,2.06.7,1.39,1.34,2.52,2.22,3.54l.31.37.38-.3c.06-.05.13-.11.2-.17.42.16.82.05,1.13-.03.16-.04.3-.08.42-.08.24,0,.48,0,.73,0,.7-.01,1.36-.02,1.93.31l.14.08.16-.02c1.53-.14,3.1.01,4.61.16,1.17.12,2.38.24,3.58.22h.12c.91,0,1.77-.02,2.6.29.11.04.22.06.32.06.27,0,.54-.11.78-.21.14-.06.29-.12.4-.14.12-.02.23-.02.35-.03.35,0,.83-.02,1.29-.42.14-.12.44-.17.73-.22.2-.03.4-.07.6-.13.15-.04.34-.17.42-.5l.07-.17-.26-.52,1.47-1.16v-1.14l1.2-.85c.09.06.21.11.34.09.07,0,.15,0,.24,0,.37,0,.82,0,1.13-.29.02.02.05.05.07.07.17.17.62.62,1.19.25.03-.02.07-.02.11-.03.1-.02.22-.05.35-.1.12-.06.31-.03.52,0,.3.04.7.09,1.1-.1,0,0,.01,0,.02,0,.18.11.4.25.66.27.25.02.48-.04.67-.1.11-.03.22-.07.29-.07.09,0,.24.04.37.07.31.07.68.16.96-.1.02.01.04.03.06.04.5.31.91.28,1.21-.1.13-.16.26-.17.69-.11.17.02.35.05.54.04.13,0,.27-.02.42-.03.52-.06.73-.06.92.19l.28.35.38-.24c.9-.58,1.8-.33,2.89.05.41.15.95.1,1.32-.1l.14-.08c.91-.51,1.85-1.03,2.67-1.84.61-.6.79-1.32.95-1.95.09-.34.17-.67.31-.96.34-.68.24-1.47-.28-2.17,0-.04.01-.11.04-.22ZM70.64,66.4s.02.07.03.11c.12,1.31.1,2.43-.03,3.44-.05.33.02.54.06.7.01.04.03.09.04.14.03.16-.02.39-.09.7-.04.19-.09.4-.13.64l-.02.09.02.09c.01.06.04.15.08.27.04.12.17.47.14.57-.26.47-.63,1.15-.07,1.85-.12.37-.42.59-.91.89-.2.13-.41.26-.6.42l-.16-.14-.29.12c-.99.41-2.09.28-3.15.15-.15-.02-.29-.03-.42-.03-.28,0-.52.03-.76.06l-.16.02c-.16.02-.34,0-.53,0-.32-.02-.69-.05-1.04.07-.04-.02-.09-.06-.12-.09-.18-.13-.45-.34-.81-.25-.07.02-.13.04-.19.07-.04-.02-.09-.04-.14-.05-.34-.09-.62.1-.78.21-.03.02-.05.04-.08.05-.11-.01-.22-.02-.34-.03-.17-.01-.38-.02-.45-.07-.55-.37-.99-.05-1.17.08-.03.02-.07.05-.09.07-.47-.15-.94-.18-1.48-.21-.24-.02-.49-.03-.76-.06l-.17-.02-.14.09c-.38.24-.94.21-1.57.18-.21-.01-.44-.02-.68-.03.08-.31.12-.62.15-.91.08-.7.15-1.11.58-1.42l.49-.36-.53-.49.61-2.53-.29-.19c-.16-.11-.19-.13.05-.66.16-.35.46-.99.08-1.54.08-.11.15-.25.14-.42,0-.25-.05-.49-.1-.72-.06-.31-.11-.6-.06-.81.14-.57.24-1.14,0-1.8.01-.05.04-.11.06-.16.09-.24.21-.56,0-.88-.19-.3-.28-.46-.27-.69.03-.54.06-1.17,0-1.8-.04-.35-.14-.68-.24-.99-.05-.15-.09-.3-.13-.45l-.07-.25c-.11-.42-.22-.85-.3-1.27-.02-.11-.02-.25-.01-.4.01-.32.03-.72-.19-1.12l1.69-1.69v-1.57l-.11-.14c-.07-.09-.15-.18-.23-.27-.43-.5-.83-.97-.76-1.67l.02-.25-.99-.91,1.18-1.18-.41-.69c.22-.45.2-.92.19-1.31,0-.18-.02-.35,0-.49l.03-.2-1.91-2.54h-.25c-.25,0-.5,0-.74,0-.57,0-1.16-.01-1.75.02-.43.02-.85.09-1.29.16l.11-.47-.23-.26c.41-1.32.36-2.65.31-3.94-.03-.93-.07-1.81.05-2.69.07-.12.13-.25.2-.37.4-.75.78-1.46,1.56-1.79l.31-.13v-.34c-.03-.3.13-.53.39-.88.21-.29.44-.61.54-1.03.03-.04.11-.1.16-.14.03-.02.05-.04.08-.07h1.11l.15-1,2.77-3.87-.27-.3c-.07-.08-.09-.1.06-.44.12-.29.31-.73.07-1.21-.06-.13-.13-.25-.2-.36l.22-.45c.4,0,.8,0,1.21,0,.51,0,1.03,0,1.54,0,.09,0,.2,0,.31,0,.42.02.9.03,1.21-.22.12.09.31.2.56.15.08-.02.18-.05.28-.14.17.1.43.22.71.1.06-.02.11-.06.16-.1.16.07.33.13.52.16.18.03.36-.03.5-.1.07.04.15.06.23.08.05,0,.09,0,.13,0-.02.34.03.65.29.86,0,0-.01.02-.02.02-.11.16-.3.44-.18.81.11.33.19.67.27,1.03.19.86.4,1.83,1.22,2.61.41.39.77.83,1.15,1.3.45.56.92,1.13,1.48,1.61.95.83,1.74,1.76,2.4,2.84l.08.14c.27.43.6.97.57,1.33-.04.56.05,1.1.13,1.61.12.7.23,1.37-.02,2.01-.13.35-.02.7.07.99.04.12.08.25.09.34,0,.06,0,.16-.02.26-.02.18-.05.37,0,.59.05.22.03.46,0,.72-.02.22-.03.45-.02.7.02.21-.04.47-.09.74-.09.44-.19.94,0,1.4.07.16.03.37,0,.62-.06.34-.13.8.12,1.23-.22.32-.39.79.09,1.34,0,.04,0,.09,0,.14,0,.2-.02.44.05.69.05.18,0,.45-.06.73-.05.24-.1.49-.1.75,0,.25.06.48.11.69.03.13.09.34.07.4-.02.05-.05.1-.07.15-.09.18-.24.49-.12.82-.04.07-.07.15-.09.23-.08.36.14.62.26.78.03.03.06.07.07.08,0,.03-.05.13-.08.19-.12.24-.35.68-.04,1.15,0,.03,0,.12-.02.18-.03.16-.06.38,0,.63.03.13.02.32,0,.52-.03.34-.06.77.11,1.21.06.14.03.39,0,.63,0,.1-.02.2-.02.3,0,.1,0,.22,0,.34,0,.12,0,.3-.01.4-.17.14-.28.31-.31.49-.05.3.11.52.2.64-.18.48-.14,1.08.11,1.64.13.28.08.83-.1,1.19-.26.51-.02.94.12,1.2.02.04.05.1.07.14-.37.39-.26.77-.21.95ZM51.69,67.47c.01.62.02,1.21-.03,1.8-.02.3,0,.59.03.87.05.62.07,1.03-.24,1.4l-.28.33.34.37c-.62.81-.6,1.75-.59,2.67,0,.18,0,.36,0,.55l-.73.46v.26c-.02.27,0,.54,0,.79.03.65.03,1.09-.18,1.21-.64.34-.84.87-1,1.29-.1.26-.18.46-.33.6-.33.3-.42.76-.48,1.18l-3.43.45-.14-.03c-.27-.06-.67-.14-1.07-.2-.25-.04-.49-.05-.73-.05-.3,0-.61.02-.9.04-.8.06-1.56.11-2.25-.28l-.34-.2-.27.29c-.17.18-.18.19-.61-.07-.61-.37-1.54-.11-2.04.08-.1.04-.17.02-.39-.07-.19-.08-.44-.19-.74-.17-.14,0-.29.02-.43.03-.68.04-1.26.08-1.85-.25-.49-.28-1.36-.38-2.02.08-.22-.22-.34-.54-.49-.98-.14-.43-.29-.87-.62-1.23-.38-.43-.58-.95-.78-1.5-.14-.37-.28-.75-.48-1.12-.29-.52-.41-1.16-.53-1.84-.04-.24-.09-.47-.14-.71l.24-.25-.06-.26c-.07-.28-.14-.56-.22-.83-.17-.62-.32-1.2-.4-1.78-.02-.18-.08-.34-.12-.48-.1-.29-.14-.44-.03-.67.24-.5-.02-1.07-.28-1.63-.05-.11-.1-.23-.15-.35.03-.03.06-.07.1-.1l.23-.25-.37-.77c.17-.34.35-.71.03-1.01-.23-.21-.22-.5-.19-.98.03-.42.07-.95-.23-1.43.25-.44.2-.91.17-1.27-.02-.24-.04-.46.02-.57.42-.75.42-1.51.41-2.23,0-.4,0-.81.06-1.22l2.26-1.59,4.25,2.98h.16s.08,0,.14,0c.09,0,.23-.02.33,0,1.26.33,2.43-.24,3.31-1.59.39-.6.83-.79,1.49-1.08h0c.21.24.46.41.68.56.27.19.51.35.68.61.29.44.79.61,1.29.77.26.09.53.18.72.3.6.39,1.51.81,2.52.03.05,0,.12.01.18.02.11.01.21.02.31.02h.19l.14-.12c.33-.29.64-.61.94-.92.62-.65,1.21-1.26,1.99-1.6l1.76.94c.07.27.07.56.08.86,0,.51,0,1.08.36,1.66.23.39.27.95.3,1.55.02.25.03.49.06.73.03.25.04.51.05.77.02.6.04,1.21.31,1.88.17.43.12.99.08,1.59-.02.29-.05.58-.05.87,0,.27,0,.55.01.82ZM32.78,46.82s.05-.02.08-.03c.14.09.29.14.44.13.24,0,.4-.13.51-.24.04.02.08.04.12.06.14.07.3.15.47.21.36.12.65-.07.8-.18,0,0,.02-.01.03-.02,0,0,0,0,0,0,.29.36.79.31,1.27.26.14-.02.29-.03.41-.03h6.49c.2,0,.42-.02.63-.05.23-.03.61-.07.68-.05.62.63,1.19.25,1.41.1.01,0,.03-.02.05-.03.17.1.36.17.53.24.09.04.18.07.28.12l.27.12.24-.18c.42-.33.97-.31,1.6-.28.5.02,1.04.04,1.59-.12.02.04.04.07.05.11-.07.09-.11.2-.13.31-.06.32.11.56.21.7.01.02.03.04.04.06-.01.01-.03.02-.04.04l-.07.07c-.11.15-.4.14-.87.1-.5-.04-1.12-.08-1.64.25-.31.19-.68.15-1.11.11-.51-.05-1.12-.11-1.66.28-.98-.45-1.97-.24-2.89-.05-.11.02-.22.05-.33.08-.22.06-.43.11-.61.11-.06,0-.15-.03-.24-.06-.15-.05-.34-.12-.58-.12-.19,0-.41.04-.64.18-.09-.02-.24-.08-.35-.12-.23-.09-.49-.19-.75-.22-.3-.03-.56.09-.79.2l-.48-.43-.82.52c-.07-.02-.15-.04-.22-.07-.35-.11-.71-.22-1.09-.23-.28,0-.55.08-.79.16-.09.03-.23.07-.3.09-.35-.2-.68-.11-.89-.06-.03,0-.08.02-.11.03-.28-.32-.67-.15-.99-.02-.07.03-.16.07-.24.1-.59-.38-1.09-.4-1.49-.06-.15-.03-.3-.06-.44-.1-.59-.14-1.21-.28-1.74-.05-.21.09-.39.04-.7-.05-.26-.08-.59-.18-.95-.1l-.62-.57.38-1.07c.34-.37,3-.71,4.76-.01l.28.11.32-.28.16.14.24-.05c.07-.01.16-.04.25-.07ZM26.77,52.98l.23-.12.1-.89c.47.02.94,0,1.4-.01.99-.03,1.92-.06,2.88.21l.28.08.49-.49s.09.02.13.03c.29.08.6.15.92.16,1.5,0,3.01,0,4.51,0,2.58,0,5.25,0,7.87.03.3,0,.54-.11.73-.2.06-.03.15-.07.2-.09.72.67,1.28.12,1.47-.06.04-.04.1-.1.09-.1.04,0,.15.04.25.08.27.12.76.34,1.32-.03.13.02.4.13.55.19.09.04.18.08.27.11l1.26,1.84-2.97-1.12-.13.02c-2.16.33-3.52,1.69-4.46,2.91h-.72l-3.74-2.78-.24.07c-.31.09-.61.17-.9.26-.67.19-1.3.36-1.93.59-.52.19-.82.59-1.08.94-.29.39-.52.71-1.04.8-.06-.05-.12-.11-.19-.17-.4-.36-.94-.85-1.6-1.12-.84-.34-1.48-.78-1.96-1.34l-.19-.22-.28.05c-.19.04-.38.06-.57.09-.44.06-.85.12-1.26.27-.2.07-.4.13-.61.19-.73.22-1.49.46-2.13.97-.22.18-.36.25-.47.26.16-.67.74-1.02,1.51-1.43ZM53.82,18.9s0-.06,0-.08l1.03-.34s.03.02.04.02c.28.15.66.37,1.05.23,1.27-.44,2.57-.39,3.94-.33.74.03,1.5.06,2.26.01.54-.04,1.09-.03,1.67-.02.15,0,.3,0,.46,0l.41,2.44c-.39,0-.77,0-1.15,0-1.37,0-2.66-.01-3.96.02-.18,0-.37-.01-.56-.02-.59-.05-1.31-.1-1.97.39-.07-.02-.16-.05-.22-.06-.13-.04-.25-.08-.36-.1-.6-.12-1.17-.02-1.71.08-.35.06-.69.13-1.02.12.15-.37.2-.82-.09-1.25.22-.38.2-.8.19-1.11Z"/>
    </g>
  </g>
</svg>