<?xml version="1.0" encoding="UTF-8"?>
<svg id="Layer_2" data-name="Layer 2" xmlns="http://www.w3.org/2000/svg" viewBox="0 0 100 100">
  <defs>
    <style>
      .cls-1 {
        fill: #635f5a;
      }

      .cls-1, .cls-2 {
        stroke-width: 0px;
      }

      .cls-2 {
        fill: none;
      }
    </style>
  </defs>
  <g id="Layer_1-2" data-name="Layer 1">
    <g>
      <rect class="cls-2" width="100" height="100"/>
      <g>
        <path class="cls-1" d="M48.62,32.81c.35-.68.7-1.36,1.12-2.19-.83-.33-1.44-.36-2.27.05-.45.23-1.26-.26-2.19-.49-.33-.38-.86-1-1.65-1.91-.17-1.45.52-2.79,2.55-3.65-.42-.07-.84-.14-1.26-.2.15-.11.3-.23.44-.34-1.66-.23-3.32-.45-5.01-.68-.63-1.11-1.26-2.25-1.8-3.21.43-1.09,1.16-1.04,1.82-1.3,1.25-.51,2.47-.73,3.78-.67.4.02.91.36,1.16.21.43-.26.88-.7,1.29-.42,1.05.69,2.2.31,3.27.53.34.07.59.55.97.93h1.49c.9,2.03,3.89,1.81,3.97,4.5.09-.1-.06.07-.27.31,1.75.84,2.31,2.26,2.59,4.1.27,1.79,1.1,3.49,1.8,5.56-.66,1.21,1.73,2.76-.06,4.37,1.62,1.36.09,2.7.11,4.06.02,1.25-.55,2.5-.64,3.88.4-.58,1.19-1.21,1.14-1.75-.16-1.4.68-2.35,1.39-3.16.89-1.01,1.17-2.24,1.57-3.34.36-1.01.4-2.11,1.17-3,.67-.78,1.22-1.66,1.9-2.59-.18-1.36,1.05-2.25,1.69-3.36.75-1.3,1.86-2.42,2.95-3.49.84-.82,1.86-1.46,2.83-2.12,1.14-.77,2.4-1.12,3.81-1.02,1.24.09,2.48.02,3.51.02,1.06.54,1.95,1,2.86,1.46.17-.15.34-.31.52-.47.69.7,1.39,1.4,2.09,2.11-.58.63.28,1.16.14,1.76-.14.6-.31,1.19-.45,1.75-1.6,1.12-3.19,2.1-5.25,1.79-.28.81-.56,1.6-.75,2.14-.7.5-1.2.86-1.93,1.37h-3.06c-.3.9-.5,1.81-.91,2.62-.43.84-1.07,1.57-1.52,2.22-1.27.28-2.43-.07-3.15,1.38-.53,1.07-2.57,1.38-4.02,1.33-.57-.02-1.15.29-1.49.39-.43.87-.77,1.56-1.26,2.56v2.18c.81-1.09,1.69-1.61,2.45-2.31.78-.71,1.7-1.28,2.62-1.82,1.26-.74,2.57-1.4,3.85-2.1.27-.15.57-.31.76-.55,1.75-2.16,4.39-2.66,6.81-3.35,2.66-.76,5.42-1.28,8.27-1.09,2.39.15,3.38.45,5.68,2.41.16.14.47.08.66.2.21.12.36.34.53.51-.46,1.52-.45,3.26-2.29,4.38-.43.17-1.42-.4-1.91.6.14.47.29.95.41,1.35-.66.61-1.24,1.16-1.82,1.7.04.04.09.09.13.13-.69.34-1.37.69-2.2,1.1-.17-.31-.41-.74-.63-1.13-1.6.58-2.17,1.89-3.18,2.59-1.75.23-3.63,1.27-4.88-.85-1.54.67-3.02,1.39-4.62.43-.95-.56-1.98-.49-2.97-.49-.68-.68-1.33-1.33-1.97-1.97-2.29-.27-2.98,2.17-4.95,2.79.39.46.62,1,.99,1.13,1.96.71,3.45,1.89,4.31,3.83.09.19.55.22.85.33v2.11c.73.64,1.51,1.31,2.33,2.02-.49,1.67,1.25,2.7,1.67,4.2.2.87-1.26,1.7-.04,2.63-.82,1.29-1.59,2.61-2.47,3.86-.28.39-.82.59-1.25.88-.59-.91-1,.21-1.56.16-.49-.04-1.15.17-1.48.51-.47.49-1.01-.35-1.51.3-.27.35-1.02-.34-1.48-.39-1.56-.16-3.14-.06-4.67-.06-.38.18-.76.3-1.08.5-1.51.99-2.64,2.25-3.58,3.85-1.2,2.06-1.91,4.36-3.22,6.34.15.17.31.35.53.6-.27.53-.54,1.08-.85,1.71-.85-.41-1.67-.81-2.7-1.31.12-.91.07-1.97-1.17-2.56.27-.43.48-.75.68-1.07-1-2.02-.23-4.17-.59-6.46.31-.25.91-.49,1.03-.88.16-.5,0-1.11.52-1.5-.83-1,.47-2.09-.12-3.09-.08-.14-.23-.23-.26-.26.18-.49.34-.92.47-1.26-.13-.25-.16-.44-.27-.52-.88-.63-1.28-1.68-2.22-2.3-.92-.6-1.68-1.45-2.59-2.12-.84-.62-1.3-1.74-1.94-2.63-.28-.39-.58-.76-.83-1.09.16-.57.25-1.17.48-1.71.92-2.24,1.43-2.65,3.91-4.12,1.77-1.05,3.81-1.18,5.66-1.95.78-.32,1.66-.89,2.48-.44.64.35,1.38-.14,1.91.53.88-1.51,1.26-2.94.38-4.42.38-1.3.75-2.55,1.13-3.87-1.32-.51-2.47-.93-3.59-1.41-1.22-.52-.76-2.26-2.05-2.9-.24.16-.5.32-.76.48-1.7-.95-2.12-2.74-2.76-4.42ZM68.05,56.28c-.68-.45-1.67-.73-1.94-1.33-.88-1.94-2.65-2.17-4.31-2.81-.74-.29-1.24-.68-1.9-.01-.56-.75-1.14-.02-1.51.15-.76.34-1.17-.77-1.94-.25-.3.21-.96.08-1.37-.09-1.06-.45-2.01-.28-2.93.29-.63.39-1.29.52-2.03.51-1.69-.03-2.87,1.14-4.11,2.02-.54.38-.71,1.29-1,1.86.69.95,1.08,2,1.83,2.43,2.25,1.29,3.98,2.98,5.19,5.25.11.21.34.36.43.44.18,1,.68,2.02.42,2.75-.36,1,.19,2.18-.34,2.8-.72.84-.06,1.88-.87,2.68-.57.56-.64,1.62-.86,2.24.21.73.37,1.26.54,1.86.28-.28.61-.46.6-.63-.09-1.56.95-2.62,1.67-3.78,1.51-2.4,3.65-3.89,6.57-4.05.55-.03,1.17.18,1.56-.44.48.56,1.15.49,1.76.43,1.75-.16,3.5-.37,5.25-.56,1.23-.21,1.39-1.54,2.23-2.18v-3.68c-.29-.2-.68-.49-1.02-.74v-1.29c-.96-1.1-1.75-2.01-2.56-2.94.2-.28.34-.47.65-.92ZM76.7,40.85c-.86,1.05-2.63,1.22-2.9,2.89-1.14.05-2.09.4-2.88,1.43,1.03.55,1.91,1.03,2.84,1.53.12-.11.29-.26.46-.41.76.65,1.47.65,2.39.13.99-.55,2.14-.83,3.19-1.22.58.3,1.09.56,1.59.82-.17.22-.3.38-.42.54.28.26.51.47.73.67.52-.63,1.7-.5,1.7-1.53,0-1.11.87-1.42,1.42-2.05,1.08.36,2,.68,3,1.01v-1.84c.56-.83.95-1.42,1.38-2.05.84-.22,1.74-.45,2.63-.68-1.08,0-1.4-1.25-2.61-1.39-1.41-.15-2.67-.47-4.09.07-1.15.44-2.48.4-3.66.78-1.27.42-2.5.91-3.83.73-.15.4-.25.69-.36.99-.15-.11-.27-.2-.58-.43ZM74.56,26.26c-.32,1.27-1.4,1.59-2.01,2.35-.68.84-1.11,1.87-1.79,2.71-.66.82-1.33,1.57-1.26,2.72-.53.49-1.07.99-1.62,1.49.55,1.47-.71,1.6-1.4,2.18.03.54.07,1.09.14,2.12,1.27-1.43,2.24-2.51,3.22-3.61.78.17,1.43.32,2.08.46.2-.23.41-.47.63-.72-.22-.39-.41-.73-.59-1.05.42-.85.82-1.67,1.23-2.51,1.16-.34,2.34-.68,3.49-1.01.2.18.37.33.48.41.47-.24.88-.45,1.42-.72-.58-.79-.93-1.66-.49-2.56.24-.24.41-.41.67-.67h5.17c-.03-.71-.06-1.32-.11-2.15-.54.31-.87.49-1.21.68-1.05-1.27-2.76-.64-3.98-1.3-.51.27-.99.53-1.47.79-.19-.14-.43-.33-.82-.62-.45.59-.83,1.1-1.21,1.6-.12-.11-.23-.23-.57-.57ZM58,35.18c-.59-1.23-1.38-2.3-1.07-3.7-.92-1.68-1-3.77-2.61-5.12-.27-.23-.34-.68-.54-1-.39-.59-.72-1.52-1.24-1.64-.85-.2-.73-1.41-1.67-1.28-.91-1.16-2.45-.73-3.57-1.4-.21.22-.42.45-.52.55.81.69,1.59,1.35,2.33,1.98.14,1.69-.31,2.98-1.98,3.83,1.65-.81,2.79.94,4.58.7.16.45.2,1.34.65,1.69.83.64-.66,1.29.17,1.8.07.05-.15.53-.2.82-.09.55-.16,1.09-.2,1.65,0,.08.19.17.29.25.3-.3.59-.59.87-.87.56.39,1.12.79,1.79,1.26.17.49.41,1.14.74,2.08.47.32.85,1.52,2.19.92v-2.51ZM59.68,48.75h.25v-1.99h-.25v1.99Z"/>
        <path class="cls-1" d="M35.02,81.29c-.9-2.87-3.24-5.04-3.88-8.06-2.01-2.58-3.02-5.69-4.56-8.52-1.21-2.23-2.63-4.36-3.63-6.68-1.13-2.61-2.7-4.98-3.74-7.62-.27-.67-.97-1.04-1.38-1.62-.39-.56-.75-1.18-.99-1.82-.19-.52-.37-1.16-.24-1.66.16-.59-.91-1.3.19-1.74-.59-.59-.63-1.14-.15-1.89.36-.56.17-1.41.89-1.87.2-.13.22-.56.27-.86.22-1.27,1.51-1.76,2.04-2.83.14-.28.85-.27,1.31-.4.1-.26.2-.55.3-.82.44-.04.83-.08,1.27-.12,0-.29.09-.58-.02-.72-.29-.37-3.25-1.9-3.79-2.21-1.62-.93-3.56-.97-5.16-2.02-.2.15-.39.29-.63.46-.46-.33-1-.77-1.49.07-.27-.46-.52-.9-.84-1.46.12-.2.29-.47.48-.78-.1-.11-.24-.28-.4-.47.39-.2.78-.41,1.13-.59.42.11.85.34,1.27.32,3.12-.16,5.66,1.46,8.36,2.62.49.21.67.91,1.37.9.4,0,.8.22,1.38.39-1.13-3.36-3.37-5.34-6.45-6.5-.15-.36-.3-.71-.45-1.06.14-.52.29-1.09.46-1.72.2-.02.47-.13.66-.06,1.9.76,3.73,1.58,5.15,3.17,1.33,1.48,2.68,2.88,3.02,4.96.08.47.53.88.89,1.46,2.65-2.48,5.61-4.29,9.22-5.24.38.49.78,1,1.28,1.64v.53c-1.31.68-2.53,1.32-3.76,1.94-.34.17-.69.33-1.05.45-1.42.45-2.48,1.31-3.21,2.56.19.2.3.41.4.41,1.31,0,2.54.21,3.66.99.49.34,1.13.46,1.88.74.35.59.65,1.58,1.32,2.15,1.1.93.69,2.28,1.25,3.31-.75.86.64,1.81-.16,2.73-.53.62.39,1.58-.31,2.26.98,1.56-.95,3.41.6,4.82-.26.28-.43.46-.51.55.15.41.38.76.39,1.12.04,1.73,0,3.47.03,5.21.01.8.02,1.63.23,2.39.18.66-.62,1.37.23,1.99.3.22-.9.85.03,1.29-.5.42-.76.81-.14,1.4.19.18-.54.66.05,1.07.12.08-.24.75-.24,1.15,0,.37.24.72.32,1.1.12.52-.34.89-.43,1.29-.19.77-.35,1.85.04,2.41.68.97.24,1.9.39,2.83.11.68-.52,1.37-.01,2.08.04.05-.28.36-.44.56.14.16.3.33.45.5-.15.17-.31.34-.47.51.13.13.25.25.38.38-.16.39-.29.8-.49,1.18-.21.4-.48,1.11-.71,1.1-.8-.03-.6.61-.8.91-.59-.16-1.15-.32-2.05-.57ZM35.81,40.27c-.77-.97-1.36-2.07-2.27-2.79-1.57-1.25-3.75-.8-5.52-1.61-.35.78-1.05.05-1.65.39-1.11.62-2.48.78-3.98,1.2-1.94,1.8-3.35,4.07-3.08,7.08.31.31.73.55.87.9.45,1.14.8,2.32,1.32,3.89.24.2.8.67.92.77,1.34,3.71,3.53,6.38,4.54,9.72,1.77-.24,3.42-.45,5.24-.7.23.6.45,1.17.64,1.64-.55.56-.96.97-1.45,1.47h-2.87c.49,1.22.9,2.27,1.3,3.27.36.12.64.21.94.31-.2.23-.35.4-.41.46,1.14,2.17,2.25,4.28,3.36,6.39.75,1.44,1.5,2.88,2.49,4.77v-1.94c0-2.97.08-5.95-.02-8.92-.1-2.91.51-5.86-.47-8.71.64-1.1-.15-2.19-.03-3.31.14-1.31.04-2.64.03-3.96,0-.46-.06-.91-.08-1.16-1.5.14-2.84.27-4.1.39-.29-.55-.5-.96-.69-1.33.19-.37.41-.78.62-1.2,1.65.01,2.98-.77,4.27-1.73-.09-1.36.27-2.75-.46-3.85.21-.55.37-.97.56-1.45Z"/>
      </g>
    </g>
  </g>
</svg>