<svg width="158" height="60" viewBox="0 0 158 60" fill="none" xmlns="http://www.w3.org/2000/svg">
<g id="Layer_1" style="mix-blend-mode:luminosity" clip-path="url(#clip0_2775_1459)">
<g id="kqR730.tif">
<g id="Group">
<path id="Vector" d="M157.975 2.77189V4.19457C157.695 4.2356 157.455 4.27568 157.214 4.30526C156.711 4.36823 156.199 4.38827 155.706 4.49609C154.821 4.68979 154.415 5.16879 154.318 6.07813C154.281 6.4245 154.294 6.77659 154.294 7.12582C154.293 13.6725 154.294 20.2191 154.291 26.7667C154.291 27.1713 154.257 27.5759 154.232 28.1102C153.539 28.1102 152.904 28.1799 152.297 28.0826C151.967 28.0291 151.637 27.7343 151.386 27.4728C148.7 24.6818 146.03 21.8746 143.355 19.0732C140.11 15.6744 136.865 12.2746 133.619 8.87675C133.388 8.63439 133.145 8.40443 132.747 8.00844C132.709 8.53992 132.669 8.84049 132.669 9.14106C132.666 13.7173 132.666 18.2936 132.669 22.8708C132.669 23.2515 132.687 23.6341 132.727 24.013C132.859 25.2477 133.453 25.9003 134.682 26.1274C135.301 26.2419 135.93 26.302 136.616 26.3946V27.7906C135.84 28.0034 127.936 28.0406 126.827 27.8383V26.4127C127.28 26.3373 127.74 26.2677 128.197 26.1818C129.471 25.9423 129.984 25.3421 130.028 24.032C130.043 23.5874 130.034 23.1418 130.034 22.6971C130.034 17.1676 130.035 11.6372 130.033 6.10771C130.033 5.09055 129.979 4.977 129.019 4.67548C128.358 4.46747 127.666 4.36251 126.894 4.1898V2.67933C127.209 2.64975 127.517 2.59632 127.824 2.59536C130.013 2.58773 132.203 2.60681 134.391 2.582C135.014 2.57532 135.452 2.79574 135.88 3.24516C140.806 8.4197 145.751 13.5761 150.685 18.743C150.945 19.0149 151.143 19.347 151.37 19.6504L151.611 19.5035C151.644 19.3079 151.705 19.1123 151.705 18.9157C151.71 15.0389 151.723 11.1611 151.702 7.28422C151.691 5.12013 151.117 4.52567 148.978 4.33388C148.511 4.2919 148.042 4.27854 147.505 4.24896V2.80146C148.258 2.52857 156.967 2.49613 157.975 2.77284V2.77189Z" fill="black"/>
<path id="Vector_2" d="M109.839 28.4995C107.659 28.5768 105.534 28.2524 103.505 27.4557C98.857 25.6293 95.8383 22.3384 95.2316 17.306C94.5953 12.0198 96.5242 7.70788 100.937 4.62682C103.03 3.16501 105.393 2.35777 107.91 2.0219C110.938 1.61828 113.918 1.81198 116.808 2.88257C127.058 6.67927 127.509 19.0846 120.686 24.9118C118.052 27.1627 114.952 28.2209 111.55 28.4929C110.983 28.5387 110.409 28.4995 109.839 28.4995ZM119.117 16.2135C118.999 15.1095 118.944 13.994 118.752 12.9025C118.301 10.3529 117.345 8.03326 115.524 6.12203C111.976 2.39976 104.872 2.81006 102.365 8.38821C102.093 8.99317 101.845 9.62579 101.704 10.2708C100.862 14.119 101.207 17.8623 102.923 21.4195C103.372 22.3489 103.995 23.2372 104.7 23.992C106.922 26.3688 109.696 27.1637 112.85 26.4576C115.175 25.9366 116.753 24.4261 117.792 22.326C118.742 20.4042 119.063 18.3451 119.116 16.2135H119.117Z" fill="black"/>
<path id="Vector_3" d="M44.0104 4.21176V2.70892C44.3638 2.66789 44.6953 2.59728 45.0258 2.59633C51.8155 2.58965 58.6053 2.5906 65.395 2.59442C65.7046 2.59442 66.0141 2.64308 66.4256 2.67839C66.5628 4.64878 66.6952 6.55905 66.8333 8.55616C66.3923 8.58478 66.0846 8.60673 65.7779 8.6239C65.3521 8.6468 65.1492 8.43021 65.0797 8.018C65.0054 7.58098 64.9121 7.14206 64.7806 6.71935C64.3834 5.44647 63.8376 5.00564 62.5002 4.98847C60.216 4.95793 57.9318 4.97606 55.6467 4.97415C55.0485 4.97415 54.4503 4.97415 53.8949 4.97415C53.5911 5.73178 53.5034 12.4311 53.7597 13.8862C54.033 13.9091 54.335 13.9549 54.6379 13.9559C56.542 13.9626 58.4452 13.9654 60.3494 13.9521C60.7256 13.9492 61.1095 13.9034 61.4762 13.8185C62.3383 13.6191 62.8403 13.0589 62.9974 12.1868C63.0584 11.8462 63.1279 11.5074 63.2013 11.1267H64.6349C64.9273 11.9111 64.9597 18.2497 64.6701 19.2316H63.2099C63.1432 18.8489 63.0651 18.4854 63.0174 18.1171C62.8993 17.2049 62.3507 16.6992 61.4924 16.5169C61.0285 16.4186 60.5513 16.3442 60.0788 16.3394C58.1757 16.3184 56.2715 16.327 54.3683 16.3318C54.1845 16.3318 53.9997 16.3766 53.7397 16.411C53.7035 16.7087 53.6425 16.9816 53.6415 17.2535C53.6339 19.3833 53.6377 21.5121 53.6415 23.6418C53.6415 23.8641 53.6568 24.0864 53.6777 24.3078C53.772 25.3231 54.0378 25.6026 55.0446 25.6084C57.4879 25.6227 59.9312 25.636 62.3735 25.5979C64.3491 25.5673 65.3293 24.8288 66.0132 22.9786C66.177 22.5349 66.3161 22.0817 66.4828 21.5817H68.0078C68.0278 23.6819 67.764 25.7429 67.5935 27.783C66.7714 28.01 44.1104 28.0349 43.1436 27.8144V26.3717C43.536 26.3517 43.8732 26.3374 44.2114 26.3154C44.7476 26.2792 45.2915 26.2782 45.8193 26.1885C47.129 25.9662 47.6796 25.3803 47.8606 24.054C47.912 23.6781 47.912 23.2935 47.912 22.9128C47.9148 17.828 47.9168 12.7422 47.9101 7.65732C47.9101 7.18309 47.8872 6.70218 47.8082 6.23558C47.6291 5.18312 47.13 4.66691 46.0888 4.47321C45.4392 4.35203 44.7762 4.30623 44.0132 4.21367L44.0104 4.21176Z" fill="black"/>
<path id="Vector_4" d="M70.0101 4.24039V2.76713C70.9331 2.51999 82.8742 2.52667 83.762 2.77381V4.23657C83.3771 4.26233 83.0399 4.27665 82.7037 4.30909C82.2636 4.35203 81.8159 4.37302 81.3863 4.47034C80.5395 4.66214 79.9813 5.19266 79.7965 6.05333C79.7041 6.48463 79.6441 6.93214 79.6432 7.37297C79.6327 12.7746 79.6365 18.1762 79.6365 23.5779C79.6365 23.7363 79.6365 23.8956 79.6479 24.054C79.7356 25.1962 80.1061 25.5874 81.2558 25.6026C83.2219 25.6294 85.1889 25.6084 87.1549 25.6084C88.337 25.6084 89.3248 25.1303 90.1088 24.2849C90.8622 23.4719 91.6109 22.637 92.2348 21.7248C92.834 20.8489 93.5455 20.6237 94.5886 20.9367C94.5038 21.2086 94.4428 21.4787 94.3381 21.7306C93.5836 23.5492 92.7959 25.3546 92.0758 27.1866C91.8367 27.7944 91.4976 27.9795 90.867 27.9776C84.2058 27.9576 77.5447 27.9662 70.8836 27.9633C70.6035 27.9633 70.3235 27.9308 69.9596 27.9089V26.4099C70.5235 26.345 71.0817 26.3001 71.6332 26.2133C73.2592 25.9566 73.8469 25.3336 73.8946 23.6914C73.9412 22.0722 73.9146 20.451 73.9146 18.8308C73.9165 15.1772 73.9155 11.5227 73.9146 7.86915C73.9146 7.51991 73.9174 7.16973 73.8926 6.82145C73.7831 5.29094 73.1516 4.60298 71.6189 4.37397C71.1226 4.29955 70.6169 4.29096 70.0082 4.2442L70.0101 4.24039Z" fill="black"/>
<path id="Vector_5" d="M33.8857 13.5007C33.8857 16.3298 33.8391 19.159 33.8953 21.9872C34.0162 28.1312 31.3339 32.8935 26.674 36.6301C23.9317 38.8295 20.7854 40.3609 17.5229 41.6462C17.0781 41.8218 16.678 41.8027 16.2408 41.6309C13.066 40.3848 10.0312 38.8648 7.31357 36.7904C3.65104 33.9937 1.19729 30.3792 0.275225 25.8106C0.106625 24.9747 0.017086 24.1083 0.0142284 23.2562C-0.0067276 16.6771 0.000892755 10.0971 0.00279784 3.51801C0.00279784 2.40161 0.00660803 2.39303 1.07822 2.09055C4.63026 1.08579 8.25278 0.454125 11.9315 0.204129C14.1128 0.0562309 16.3046 -0.0248747 18.4898 0.0066133C22.5657 0.0648185 26.5607 0.807173 30.5385 1.63827C31.4072 1.81956 32.2712 2.02757 33.1304 2.24894C33.88 2.44169 33.8896 2.45696 33.8991 3.20313C33.9124 4.25177 33.9029 5.30042 33.9029 6.35002C33.9029 8.73357 33.9029 11.1181 33.9029 13.5016C33.8972 13.5016 33.8915 13.5016 33.8857 13.5016V13.5007ZM1.26397 3.38061C1.26397 3.84243 1.26397 4.18784 1.26397 4.53421C1.26397 10.8251 1.2573 17.117 1.27254 23.408C1.27444 24.1665 1.3316 24.9366 1.47353 25.6799C2.1203 29.0672 3.78249 31.924 6.23053 34.3019C9.12722 37.1148 12.6802 38.8734 16.3685 40.3867C16.8238 40.5737 17.2334 40.4392 17.6525 40.2684C20.3958 39.1539 23.0077 37.7961 25.4167 36.0633C27.7504 34.3858 29.5945 32.2733 30.929 29.7256C32.0835 27.5224 32.6903 25.1837 32.6827 22.6799C32.6646 16.6743 32.6779 10.6696 32.6741 4.66398C32.6741 4.25941 32.6389 3.85579 32.6198 3.44549C22.1618 0.691717 11.7848 0.4484 1.26397 3.38061Z" fill="black"/>
<path id="Vector_6" d="M67.9374 54.3417C68.2889 54.2854 68.5746 54.2339 68.8613 54.1938C69.6672 54.0821 69.973 53.7797 70.0682 52.9839C70.0873 52.8264 70.0939 52.6671 70.0939 52.5087C70.0949 49.3647 70.0949 46.2206 70.0939 43.0766C70.0939 42.9182 70.0854 42.7588 70.0701 42.6014C69.9825 41.7178 69.7063 41.4268 68.848 41.3056C68.6004 41.2703 68.3536 41.235 68.1069 41.1949C68.0812 41.1911 68.0612 41.1549 67.9783 41.0785C68.1022 40.9631 68.2193 40.8505 68.3422 40.7427C68.3632 40.7245 68.4032 40.7226 68.4337 40.7226C71.5951 40.6902 74.7643 40.2159 77.9143 40.8524C79.0745 41.0871 80.1557 41.5365 81.1082 42.2598C83.2305 43.8714 84.0659 46.7292 83.139 49.4744C82.1265 52.4705 79.9518 54.1375 76.8818 54.627C75.8873 54.7854 74.8614 54.772 73.8498 54.7863C72.2019 54.8102 70.5531 54.7997 68.9042 54.7863C68.5918 54.7835 68.2012 54.9132 67.9374 54.3445V54.3417ZM72.1667 41.2188C72.1457 41.6415 72.1133 41.985 72.1133 42.3276C72.1095 45.755 72.1114 49.1824 72.1114 52.6089C72.1114 52.7997 72.1057 52.9906 72.12 53.1795C72.1733 53.9218 72.3562 54.1709 73.1049 54.1728C74.2404 54.1756 75.3806 54.1213 76.5112 54.0087C77.5524 53.9047 78.4401 53.3942 79.1831 52.6671C81.0444 50.8484 81.5692 48.6156 81.1082 46.1166C80.6034 43.3791 78.8183 41.6577 76.075 41.2856C75.1072 41.1539 74.1203 41.1463 73.1421 41.1081C72.8392 41.0967 72.5325 41.1739 72.1676 41.2169L72.1667 41.2188Z" fill="black"/>
<path id="Vector_7" d="M42.9169 34.176C43.0883 34.1302 43.2598 34.0433 43.4312 34.0433C80.4233 34.0576 117.416 34.0777 154.408 34.1044C154.473 34.1044 154.538 34.218 154.664 34.3363C154.446 34.4174 154.286 34.5157 154.119 34.5309C153.772 34.5615 153.422 34.55 153.073 34.55C116.84 34.55 80.6062 34.55 44.3733 34.5452C43.8875 34.5452 43.3741 34.655 42.9216 34.3983L42.9169 34.175V34.176Z" fill="black"/>
<path id="Vector_8" d="M121.933 55.2653C121.319 54.9237 120.897 54.7549 120.554 54.4867C119.692 53.8121 119.788 52.9619 120.758 52.462C121.144 52.2625 121.547 52.0975 122.03 51.8751C121.762 51.6776 121.589 51.5478 121.414 51.4209C119.904 50.3274 119.652 48.4506 120.819 47.0012C121.914 45.6405 124.162 45.0737 125.755 45.9306C126.577 46.3733 127.359 46.4287 128.215 46.3647C128.593 46.3361 128.969 46.3113 129.465 46.276C129.492 46.7311 129.517 47.151 129.546 47.651H127.57C127.593 47.8504 127.608 48.0326 127.636 48.212C127.877 49.6958 127.286 50.9133 125.971 51.6309C125.136 52.0879 124.23 52.2721 123.304 52.1204C122.65 52.0135 122.198 52.315 121.749 52.6528C121.351 52.9514 121.414 53.357 121.901 53.5049C122.411 53.6595 122.953 53.7387 123.487 53.774C124.278 53.8255 125.073 53.7864 125.864 53.8283C126.432 53.8589 127.01 53.9028 127.56 54.0373C129.115 54.4171 129.818 56.0335 128.974 57.3922C128.634 57.9399 128.141 58.459 127.6 58.8054C125.778 59.9714 123.76 60.2538 121.665 59.7834C121.164 59.6708 120.651 59.3826 120.262 59.041C119.483 58.3579 119.507 57.3321 120.249 56.6088C120.544 56.3226 120.889 56.0898 121.212 55.8331C121.428 55.6613 121.647 55.4905 121.933 55.2653ZM124.71 55.3942V55.3207C124.394 55.2987 124.071 55.3111 123.762 55.2491C122.92 55.0802 122.304 55.4237 121.752 56.0211C121.096 56.73 121.064 57.4094 121.702 58.1241C123.151 59.7452 126.474 59.5086 127.686 57.6985C128.449 56.5583 127.975 55.5201 126.61 55.4037C125.982 55.3503 125.343 55.3942 124.71 55.3942ZM126.144 49.0622C126.068 48.3294 125.962 47.6452 125.55 47.0431C125.101 46.3876 124.46 46.0565 123.682 46.1128C122.91 46.1682 122.266 46.5327 121.97 47.2884C121.468 48.5717 121.635 49.8084 122.49 50.8799C123.387 52.0039 125.11 51.7997 125.742 50.5116C125.958 50.0698 126.014 49.5488 126.144 49.0632V49.0622Z" fill="black"/>
<path id="Vector_9" d="M90.6517 54.4571C90.8584 54.3417 90.9346 54.2711 91.0194 54.2548C92.0481 54.0602 92.2815 53.3474 92.2663 52.4257C92.2434 51.1251 92.2653 49.8227 92.2596 48.5221C92.2548 47.4105 92.2491 47.4114 91.2118 47.0536C91.0965 47.0135 90.9918 46.9448 90.8803 46.8885C91.187 46.3313 92.5616 45.7397 93.7589 45.6605C93.798 45.8847 93.8465 46.1185 93.877 46.3542C93.9056 46.5708 93.9161 46.7893 93.9427 47.1051C94.218 46.9802 94.439 46.8905 94.6495 46.7807C95.2668 46.4592 95.8555 46.0689 96.4984 45.8141C98.2902 45.1033 99.7218 45.8943 99.9771 47.795C100.119 48.8551 100.067 49.9448 100.065 51.0211C100.064 51.7186 99.9762 52.4152 99.9609 53.1127C99.9419 53.9371 100.096 54.0898 100.924 54.2062C101.153 54.2386 101.377 54.3006 101.606 54.3493C101.548 54.814 101.261 54.7691 101.024 54.7863C98.856 54.9409 97.25 54.8245 96.7509 54.4371C96.8966 54.3493 97.0118 54.2281 97.1414 54.21C97.9406 54.0984 98.313 53.5831 98.3416 52.8446C98.3988 51.3236 98.4759 49.7969 98.4007 48.2797C98.3292 46.8313 97.2728 46.2502 95.9174 46.7807C95.8288 46.8151 95.7412 46.8513 95.6545 46.8914C94.4708 47.4366 93.8789 48.358 93.8789 49.6557C93.8789 50.6709 93.8704 51.6871 93.8837 52.7024C93.8989 53.8541 93.9561 53.9132 95.0972 54.2548C95.1753 54.2777 95.2334 54.3655 95.3687 54.48C95.2334 54.5898 95.1382 54.7291 95.021 54.752C94.0894 54.9333 91.3194 54.7873 90.6508 54.4571H90.6517Z" fill="black"/>
<path id="Vector_10" d="M108.047 46.6252C108.922 46.1138 109.897 45.8571 110.967 45.5155C111.034 46.1081 111.087 46.5622 111.152 47.1367C111.497 46.9573 111.763 46.817 112.031 46.6806C112.651 46.3657 113.248 45.9859 113.898 45.7531C115.495 45.1796 116.876 45.8609 117.112 47.525C117.329 49.0469 117.209 50.6175 117.222 52.1671C117.226 52.5459 117.144 52.9266 117.152 53.3055C117.166 53.8799 117.367 54.0793 117.937 54.19C118.21 54.2434 118.48 54.3064 118.75 54.3713C118.764 54.3751 118.766 54.4295 118.778 54.4791C118.737 54.835 118.436 54.7663 118.205 54.7844C116.236 54.939 114.55 54.8245 113.937 54.4343C114.221 54.315 114.425 54.21 114.641 54.1442C115.157 53.9877 115.471 53.6308 115.498 53.1165C115.58 51.5345 115.725 49.9439 115.64 48.3676C115.552 46.7598 114.419 46.1939 112.949 46.8504C112.891 46.8762 112.836 46.9077 112.778 46.9353C111.639 47.4888 111.07 48.3936 111.07 49.65C111.07 50.6337 111.061 51.6185 111.072 52.6022C111.087 53.794 111.175 53.8999 112.303 54.2615C112.379 54.2864 112.435 54.376 112.572 54.501C112.392 54.6098 112.261 54.7491 112.114 54.7692C110.851 54.9447 108.511 54.8007 107.935 54.4781C108.163 54.3551 108.326 54.2329 108.509 54.1747C109.136 53.9743 109.444 53.5459 109.445 52.8999C109.451 51.2816 109.445 49.6624 109.449 48.0441C109.449 47.5765 109.291 47.2531 108.785 47.1548C108.547 47.108 108.322 46.9916 108.091 46.9067L108.047 46.6281V46.6252Z" fill="black"/>
<path id="Vector_11" d="M84.9441 46.839C85.487 46.2226 87.2197 45.5718 88.3161 45.5184C88.3361 45.8514 88.3713 46.1853 88.3723 46.5203C88.378 48.4859 88.3732 50.4515 88.3761 52.4171C88.3774 53.3293 88.8022 53.939 89.6506 54.2463C89.7487 54.2825 89.8182 54.398 89.9459 54.5192C89.7954 54.6232 89.7011 54.7444 89.6058 54.7453C88.1827 54.7644 86.7587 54.772 85.3356 54.7663C85.2013 54.7663 85.0679 54.6575 84.9507 54.606C84.9793 54.1661 85.2879 54.2387 85.5165 54.1862C86.37 53.9887 86.6987 53.7034 86.7253 52.8503C86.7758 51.2349 86.7482 49.6175 86.7434 48.0012C86.7415 47.4821 86.4739 47.1901 85.95 47.108C85.6499 47.0613 85.3603 46.9525 84.9431 46.838L84.9441 46.839Z" fill="black"/>
<path id="Vector_12" d="M102.055 54.3551C102.4 54.273 102.606 54.2243 102.813 54.1757C103.587 53.9915 103.904 53.6633 103.917 52.8589C103.945 51.2415 103.919 49.6242 103.931 48.0069C103.935 47.463 103.684 47.2006 103.163 47.1109C102.845 47.0555 102.539 46.9305 102.224 46.7168C103.168 45.9897 104.276 45.8084 105.448 45.3447C105.49 45.8237 105.542 46.1519 105.544 46.4792C105.551 48.4143 105.548 50.3484 105.549 52.2835C105.549 52.5373 105.545 52.7921 105.568 53.044C105.621 53.648 105.929 54.0392 106.538 54.1766C106.738 54.2215 106.931 54.3026 107.158 54.378C107.046 54.8264 106.737 54.7749 106.471 54.7892C103.967 54.9266 102.592 54.8226 102.056 54.356L102.055 54.3551Z" fill="black"/>
<path id="Vector_13" d="M105.614 41.2865C105.639 41.7741 105.171 42.2131 104.616 42.2226C104.066 42.2321 103.584 41.8094 103.584 41.318C103.585 40.8553 104.006 40.4688 104.535 40.443C105.104 40.4154 105.589 40.7942 105.614 41.2865Z" fill="black"/>
<path id="Vector_14" d="M87.4207 42.2207C86.8587 42.2369 86.3976 41.8381 86.3938 41.3333C86.39 40.8543 86.7806 40.4774 87.3149 40.444C87.896 40.4077 88.3551 40.7646 88.3837 41.2741C88.4123 41.7884 87.9893 42.2045 87.4197 42.2207H87.4207Z" fill="black"/>
<path id="Vector_15" d="M23.9031 9.65921C23.4049 9.88249 22.9944 10.0218 22.6315 10.2394C22.0333 10.5981 21.4779 11.0294 20.8778 11.3834C20.6864 11.497 20.3406 11.5695 20.1911 11.4702C20.0396 11.3701 19.9682 11.0246 19.9977 10.8042C20.0415 10.4655 20.1806 10.1334 20.3177 9.81474C20.5187 9.34814 20.7435 8.89109 20.9769 8.43976C21.5008 7.42642 21.4351 6.4312 20.9074 5.35298C18.0021 8.67353 15.636 12.1935 14.9054 16.8585C16.6419 14.8967 18.6946 13.7555 20.934 12.8843C20.6407 13.0847 20.353 13.2927 20.0539 13.4836C18.3022 14.6 16.7209 15.9072 15.4112 17.5379C14.812 18.2831 14.4282 19.0675 14.4596 20.055C14.4977 21.2544 14.4682 22.4567 14.4682 23.909C15.1816 23.2706 15.7198 22.7678 16.2818 22.2926C16.8638 21.8012 17.4487 21.3098 18.0697 20.8699C18.6641 20.4491 19.2957 20.0779 19.9291 19.7173C20.5807 19.3461 21.2551 19.015 22.018 18.8175C21.6723 19.0684 21.3274 19.3184 20.9817 19.5694C19.2623 20.8193 17.4744 21.9834 16.0046 23.5473C15.8094 23.7554 15.6236 23.9748 15.4131 24.1676C14.7387 24.7859 14.5663 25.5292 14.7416 26.4156C14.9473 27.4595 15.0892 28.5158 15.2931 29.7782C16.5238 28.2467 17.7964 27.1122 19.4214 26.4089C18.8623 26.9099 18.2831 27.3898 17.7497 27.9175C17.1648 28.4957 16.5981 29.0978 16.0684 29.7276C15.6312 30.2467 15.5265 30.8468 15.7903 31.511C16.0551 32.177 16.2666 32.8649 16.5009 33.5434C16.4457 33.571 16.3904 33.5997 16.3342 33.6273C16.1437 33.2867 15.936 32.9556 15.7646 32.6054C14.6358 30.2944 14.0681 27.8221 13.7271 25.2925C13.1813 21.2516 13.568 17.307 15.0045 13.4769C15.8275 11.2813 17.0219 9.30807 18.4936 7.49512C19.0337 6.8291 19.5948 6.17835 20.0977 5.48465C20.8312 4.47227 20.8178 3.73087 20.0644 2.50379C20.0015 2.73565 19.9386 2.89118 19.9196 3.05149C19.7738 4.2757 19.0966 5.08962 17.985 5.56003C16.7419 6.08579 15.6408 6.81479 14.6768 7.76324C13.8976 8.52945 13.2508 9.38059 12.806 10.3825C12.7212 10.5733 12.5936 10.7451 12.4335 11.0151C11.6363 9.84718 11.5848 8.6888 11.9944 7.49607C12.2392 6.7833 12.2678 6.15545 11.5324 5.44744C11.6934 6.39304 11.2952 6.9665 10.8971 7.57718C9.66164 9.47123 9.3692 11.6038 9.58924 13.7985C9.72736 15.1763 10.0465 16.536 10.2998 17.993C9.30443 17.4663 8.81578 16.5141 8.21758 15.558C7.73083 16.2316 7.72702 16.9358 7.83847 17.5942C8.0185 18.6543 8.23853 19.7211 8.58621 20.7354C9.21775 22.5779 10.2141 24.2468 11.2714 25.8765C11.4762 26.1933 11.6772 26.512 11.9725 26.9748C10.9885 26.7295 10.2389 26.345 9.69212 25.7095C9.14917 25.0769 8.73672 24.3317 8.20805 23.5473C8.07756 24.2277 8.12804 24.8355 8.29378 25.4395C8.67575 26.8307 9.39492 28.0702 10.5294 28.9108C13.1899 30.8841 15.2626 33.4041 17.383 35.8954C17.9354 36.5452 18.5822 37.1149 19.1804 37.7265C19.3081 37.8572 19.4119 38.0109 19.5948 38.2399C18.7708 38.7637 17.9335 39.1129 17.0686 39.382C16.861 39.4469 16.5714 39.3276 16.3437 39.2351C13.1194 37.9298 10.0312 36.3611 7.44888 33.9909C4.09116 30.9098 2.18035 27.1026 2.15845 22.4739C2.13082 16.7526 2.15178 11.0304 2.15178 5.30908C2.15178 5.14974 2.16416 4.99039 2.15464 4.83199C2.1213 4.29383 2.38896 4.00949 2.89857 3.90071C4.38645 3.58201 5.86575 3.2137 7.3622 2.9408C11.4362 2.19749 15.5484 2.01906 19.6824 2.14978C23.6031 2.27383 27.4094 3.10683 31.2225 3.91884C31.7559 4.03239 31.974 4.31578 31.9388 4.84631C31.9197 5.13065 31.9388 5.41786 31.9388 5.70412C31.9388 10.3768 31.9445 15.0494 31.9359 19.722C31.934 20.993 31.9216 22.2649 31.8597 23.534C31.6987 26.8402 30.3518 29.6837 28.2886 32.1903C27.4675 33.1875 26.5169 34.1111 25.4967 34.9012C24.2975 35.8305 22.9592 36.5805 21.6799 37.4078C21.3713 37.6072 21.0541 37.7227 20.7045 37.5004C19.2204 36.5557 18.0126 35.3725 17.5039 33.6292C17.1763 32.5052 17.4134 31.4184 17.8897 30.385C18.5098 29.0377 19.3843 27.8774 20.5521 26.9528C21.2189 26.4242 21.7208 25.782 21.9399 24.9548C21.999 24.7305 22.0218 24.3412 21.9018 24.2582C21.7094 24.1246 21.3541 24.096 21.1207 24.1771C20.6454 24.3431 20.212 24.6246 19.75 24.8336C19.0594 25.1466 18.5079 25.138 18.3622 24.7868C18.1402 24.2506 18.5012 23.8651 18.8423 23.5473C19.2814 23.139 19.7767 22.7888 20.2615 22.4329C21.2589 21.7 22.2724 20.9892 23.2668 20.2516C24.2498 19.5226 24.849 18.5293 25.1595 17.3576C25.2395 17.0532 25.3167 16.7268 25.2881 16.4215C25.2548 16.0646 25.2053 15.5503 24.9776 15.4139C24.7499 15.2765 24.2327 15.4282 23.9488 15.6143C22.9687 16.2583 22.0342 16.973 21.0817 17.66C20.593 18.0131 20.1177 18.3881 19.611 18.7135C19.0613 19.0665 18.6356 19.0751 18.3984 18.7793C18.0774 18.3785 18.2736 18.0045 18.487 17.6371C19.1509 16.4912 20.0863 15.5914 21.0903 14.7526C21.7723 14.183 22.4572 13.6153 23.1125 13.016C23.8698 12.3242 24.0736 11.3968 24.0984 10.4197C24.1032 10.2413 24.0108 10.0609 23.9041 9.6573L23.9031 9.65921Z" fill="black"/>
</g>
</g>
</g>
<defs>
<clipPath id="clip0_2775_1459">
<rect width="157.975" height="60" fill="white"/>
</clipPath>
</defs>
</svg>
