<svg width="66" height="60" viewBox="0 0 66 60" fill="none" xmlns="http://www.w3.org/2000/svg">
<g id="Layer_1" style="mix-blend-mode:luminosity" clip-path="url(#clip0_2775_1703)">
<g id="4JCTlq.tif">
<g id="Group">
<path id="Vector" d="M12.0563 37.3183C12.1714 37.0543 12.0056 36.8428 11.877 36.7074C11.415 36.2166 11.0732 35.6412 10.7839 35.054C10.5808 34.6411 10.4217 34.1842 10.3101 33.7273C10.2441 33.4531 10.2035 33.1722 10.1832 32.8913C10.1612 32.5968 10.1815 32.299 10.1781 32.0011C10.1713 31.4207 10.393 30.8605 10.3118 30.2733C10.3033 30.2073 10.3642 30.1278 10.4048 30.0601C10.6265 29.6878 10.6434 29.2021 11.0292 28.9178C11.0647 28.8907 11.0563 28.8044 11.0681 28.7469C11.1324 28.4558 11.3 28.2239 11.5284 28.0496C11.9565 27.723 12.4032 27.4235 12.877 27.1663C13.0513 27.0715 13.207 26.9412 13.3762 26.8329C13.4591 26.7804 13.5539 26.6975 13.6368 26.7043C14.0378 26.7313 14.3509 26.469 14.718 26.3794C15.0632 26.2964 15.4051 26.3184 15.757 26.2575V25.7227C15.757 25.7227 15.7418 25.6787 15.7147 25.65C15.5489 25.4706 15.3069 25.3301 15.3915 25.0204C15.0819 24.6634 15.2308 24.1658 15.0159 23.7766C14.9803 23.7123 14.9989 23.6074 15.0125 23.5262C15.048 23.3299 15.1072 23.1386 15.1343 22.9423C15.1597 22.7426 15.1343 22.5514 15.2511 22.3517C15.356 22.174 15.3374 21.9253 15.3949 21.7137C15.4727 21.4277 15.6436 21.1806 15.7672 20.9133C15.9431 20.5308 16.1547 20.1822 16.3983 19.837C16.7858 19.2904 17.2529 18.8538 17.8265 18.5187C17.9991 18.4188 18.1734 18.3156 18.324 18.1887C18.5862 17.9687 18.9365 18.0499 19.2242 17.8976C19.3223 17.8452 19.4492 17.8384 19.5423 17.7453C19.5948 17.6912 19.676 17.6404 19.747 17.6336C20.2801 17.5828 20.8165 17.4915 21.3461 17.5202C21.7065 17.5405 22.0669 17.6556 22.4392 17.6285C22.4984 17.6235 22.5577 17.615 22.6795 17.5998C22.622 17.4475 22.6135 17.2749 22.5255 17.2105C22.0263 16.8484 21.7674 16.3153 21.5018 15.7958C21.2412 15.2847 21.1075 14.7297 20.9688 14.1695C20.8351 13.6297 20.8334 13.0949 20.8757 12.5669C20.9112 12.1354 20.9112 11.6768 21.116 11.274C21.3123 10.8848 21.4815 10.4888 21.7742 10.1419C22.1143 9.7391 22.3868 9.2788 22.7743 8.9065C23.5069 8.20082 24.3276 7.64236 25.3226 7.38344C25.6509 7.29713 25.9927 7.21929 26.3277 7.21252C26.6475 7.20575 26.9978 7.07883 27.2922 7.3276C28.0486 7.35298 28.6815 7.75067 29.3634 8.00789C30.0453 8.26512 30.6088 8.68142 31.086 9.22296C31.1283 9.27034 31.1875 9.30588 31.218 9.36003C31.3161 9.52757 31.3753 9.72556 31.5022 9.86433C31.6359 10.0099 31.8305 10.0996 31.993 10.2113C32.2062 9.88126 32.1791 9.4768 32.1791 9.07403C32.1791 8.87265 32.2265 8.68481 32.2857 8.48512C32.4143 8.04682 32.6055 7.6119 32.5649 7.13298C32.5598 7.0636 32.6292 6.99083 32.6495 6.91637C32.7341 6.61345 33.0082 6.37653 32.949 6.01777C32.9355 5.93823 33.0032 5.813 33.0725 5.75885C33.4076 5.49316 33.3128 4.97532 33.6851 4.7384C33.7832 4.16641 34.1792 3.75349 34.4702 3.28303C34.5548 3.14596 34.6547 3.01227 34.7663 2.89719C35.2858 2.36751 35.8188 1.85136 36.3366 1.31998C36.604 1.04583 36.8646 0.775064 36.8967 0.341839C36.9187 0.0406116 37.2182 -0.0676947 37.538 0.0270733C37.6734 0.0676882 37.8189 0.0744574 37.9949 0.101534C38.3249 0.433222 38.6819 0.795371 39.044 1.15244C39.308 1.41306 39.4958 1.70751 39.5889 2.07305C39.6667 2.38104 39.5263 2.81596 39.2522 2.84981C38.8511 2.89888 38.4839 3.08334 38.0914 3.11888C37.5634 3.16626 37.1641 3.47257 36.7529 3.72641C36.1285 4.11056 35.6446 4.67578 35.1403 5.20378C34.9965 5.35608 34.9356 5.58454 34.8171 5.76562C34.697 5.94838 34.433 6.033 34.4618 6.32238C34.4685 6.38161 34.3687 6.4493 34.3264 6.51699C34.2621 6.61683 34.1555 6.72006 34.1538 6.82329C34.1504 7.27513 33.8577 7.64744 33.8255 8.09251C33.8052 8.37174 33.6428 8.63912 33.7105 8.9285C33.7375 9.04019 33.8154 9.14003 33.8763 9.25849C34.2705 8.75758 34.719 8.36158 35.2604 8.09928C35.5413 7.96389 35.807 7.79636 36.1116 7.69651C36.3874 7.60513 36.692 7.55944 36.9238 7.35636C36.9509 7.33267 37 7.3259 37.0372 7.3276C37.6396 7.36313 38.2217 7.1076 38.8291 7.19898C39.1083 7.24129 39.3858 7.31067 39.6667 7.31913C39.9459 7.3276 40.1862 7.38513 40.3876 7.58144C40.9189 7.52728 41.1947 8.08743 41.6888 8.12297C42.0628 8.49696 42.4841 8.83711 42.8006 9.25511C43.183 9.75772 43.5079 10.306 43.8175 10.8611C43.98 11.1522 43.9258 11.494 44.134 11.7495C44.1221 12.3503 44.4538 12.9426 44.1458 13.5569C44.0697 13.7092 44.1509 13.9343 44.1289 14.1221C44.112 14.2761 44.0206 14.425 44.0155 14.579C44.0104 14.7195 43.9614 14.8092 43.8734 14.9073C43.8108 14.9767 43.7854 15.0816 43.7549 15.1747C43.7245 15.2695 43.7295 15.3795 43.6855 15.4641C43.4842 15.8483 43.2811 16.2307 43.0527 16.5996C42.9833 16.713 42.8378 16.7824 42.721 16.8619C42.3775 17.0989 42.1068 17.3916 41.9494 17.8282C42.1829 17.9111 42.3623 17.9315 42.5704 17.7436C42.7616 17.571 43.0307 17.5067 43.293 17.5033C43.9495 17.4932 44.6077 17.5033 45.2643 17.4982C45.5316 17.4948 45.7567 17.6912 46.0393 17.6319C46.2982 17.5778 46.4623 17.8502 46.6958 17.8756C46.9818 17.9061 47.1493 18.1447 47.3761 18.2344C47.7619 18.385 47.9869 18.7082 48.305 18.9164C48.8854 19.3005 49.1731 19.9047 49.5301 20.4445C49.7721 20.8083 49.8449 21.2839 49.9853 21.7137C50.229 22.4685 50.0885 23.2469 50.1038 24.0135C50.1088 24.3097 49.9972 24.6075 49.9126 25.0458C49.8601 25.1372 49.5437 25.2404 49.5894 25.5823C49.5978 25.6466 49.4641 25.7583 49.3745 25.8006C49.075 25.9411 49.3677 26.31 49.1071 26.4572C49.2002 26.5232 49.2865 26.618 49.3897 26.6501C49.5995 26.7144 49.8533 26.5537 50.0395 26.7703C50.5894 26.8007 51.0666 27.0613 51.5353 27.3016C52.0632 27.5724 52.5607 27.9143 53.043 28.2612C53.2325 28.3982 53.4085 28.6149 53.4863 28.8332C53.6335 29.2461 54.0515 29.5202 54.0583 29.9958C54.3781 30.3935 54.4288 30.9011 54.615 31.3547C54.7267 31.6271 54.7893 31.93 54.813 32.2228C54.8451 32.6222 54.8586 33.0317 54.8113 33.4294C54.7622 33.8389 54.7114 34.2569 54.5321 34.6462C54.4255 34.8763 54.4221 35.1606 54.2901 35.3688C54.1496 35.5888 53.9567 35.7648 53.9263 36.0491C53.9161 36.1371 53.8214 36.2149 53.7638 36.2978C53.6403 36.4772 53.5168 36.6549 53.395 36.8309C53.6132 37.0171 53.8417 37.0391 54.0718 37.0983C54.5236 37.2134 54.9636 37.3978 55.3866 37.6009C55.615 37.7109 55.6506 38.1746 55.5135 38.4927C55.3714 38.8193 55.1378 39.1138 55.1937 39.5115C55.2038 39.5792 55.0465 39.7315 54.9551 39.7416C54.7385 39.7636 54.5236 39.7924 54.3189 39.5876C54.1158 39.3846 53.8247 39.2627 53.5642 39.1206C53.4254 39.0461 53.2951 38.9632 53.109 38.9818C52.8145 39.0123 52.5167 38.9937 52.2189 38.9886C51.9347 38.9835 51.6081 39.0766 51.5488 39.3084C51.4744 39.5961 51.1444 39.9566 51.5725 40.2527C51.6233 40.5742 51.9566 40.6555 52.1275 40.8839C52.2968 41.1124 52.6047 41.2376 52.8552 41.4035C52.9025 41.4339 52.9804 41.4204 53.0244 41.4525C53.4423 41.7775 53.8468 42.1193 54.2715 42.4358C54.6488 42.7167 54.9145 43.1008 55.2444 43.4274C55.395 43.5764 55.4458 43.8234 55.5947 43.974C55.8739 44.2584 56.0431 44.5596 55.9704 44.9674C56.143 45.1434 56.0567 45.3939 56.1497 45.5919C56.1836 45.663 56.2208 45.7408 56.2225 45.8153C56.2276 46.1622 56.0381 47.4263 55.7385 47.9221C56.1565 48.4011 56.5948 48.8512 56.9687 49.3487C57.2784 49.7617 57.5508 50.2101 57.5051 50.7804C57.4848 51.0377 57.429 51.3118 57.6151 51.5606C57.676 51.6418 57.6506 51.8144 57.6202 51.9346C57.4594 52.5658 57.3021 53.1987 57.1075 53.8198C57.0381 54.0398 56.808 54.2158 56.7606 54.4341C56.7064 54.6761 56.6692 54.8419 56.3968 54.9231C56.2546 54.9654 56.1667 55.1685 56.0313 55.265C55.5592 55.5984 55.0769 55.9148 54.5693 56.2584C54.6539 56.4834 54.7233 56.7457 55.0515 56.8371C55.1209 56.8557 55.1565 56.9979 55.2106 57.0808C55.2901 57.2026 55.3646 57.316 55.5473 57.3093C55.6336 57.3059 55.7335 57.3736 55.8113 57.4311C56.104 57.6511 56.4289 57.7239 56.7894 57.6833C57.0584 57.6528 57.341 57.6782 57.4916 57.9151C57.6236 58.1249 57.7014 58.3466 57.5322 58.6462C57.4053 58.8712 57.5068 59.2249 57.5068 59.5245C57.3545 59.6717 57.2022 59.8172 57.0415 59.9712C56.8029 59.9712 56.544 59.9408 56.2953 59.978C55.7622 60.0558 55.2986 59.8494 54.8383 59.6497C54.5676 59.5329 54.3358 59.3282 54.0853 59.164C54.0227 58.7528 53.5303 58.7697 53.373 58.4532C53.0954 58.4177 53.0904 58.0776 52.8129 57.9862C52.62 57.9236 52.5134 57.6189 52.3526 57.4362C52.1986 57.2619 52.026 57.1045 51.8907 56.9691C51.6774 57.0097 51.4879 57.0453 51.2696 57.0876C51.2696 57.5005 51.2443 57.9236 51.2781 58.3399C51.3001 58.6191 51.4304 58.8831 51.4016 59.1775C51.3695 59.494 51.1783 59.7106 50.8618 59.7157C50.3322 59.7225 49.8026 59.7225 49.2729 59.7157C48.9497 59.7123 48.8398 59.626 48.8618 59.3248C48.8922 58.9186 48.7941 58.5159 48.9582 58.0962C49.075 57.7966 49.0208 57.404 48.855 57.0774C49.0377 56.7745 49.0411 56.4208 48.9616 56.1179C48.8871 55.8319 48.8347 55.6221 48.9548 55.3174C49.0445 55.089 48.9853 54.7658 48.9142 54.4696C48.8228 54.0821 48.8973 53.6522 48.9108 53.241C48.9142 53.1225 48.9768 53.0075 48.9768 52.889C48.9819 51.8499 49.0428 50.8075 48.9582 49.7752C48.904 49.1135 48.8448 48.4535 48.8601 47.7918C48.8668 47.4703 48.9024 47.1369 48.9937 46.8306C49.0547 46.6309 49.2256 46.4532 49.3778 46.2942C49.4878 46.1774 49.6401 46.1893 49.762 46.3162C50.0158 46.5819 50.4371 46.6157 50.6452 46.9457C51.0226 46.9863 51.3323 47.2655 51.7265 47.2537C51.9803 47.2469 52.2426 47.2148 52.488 47.2588C53.2883 47.4043 54.1006 46.3331 53.9314 45.6782C53.8434 45.3414 53.7486 44.9827 53.4999 44.7153C53.0362 44.2194 52.4761 43.837 51.933 43.4359C51.7553 43.3039 51.5641 43.1922 51.3932 43.0518C51.0023 42.7302 50.6046 42.4188 50.1765 42.1498C49.6384 41.8113 49.5623 41.1716 49.2442 40.691C49.1849 40.603 49.2357 40.4422 49.2357 40.3153C49.2357 39.8499 49.2391 39.3829 49.2357 38.9175C49.234 38.7212 49.1173 38.6129 48.9294 38.6078C48.6113 38.5977 48.2932 38.618 47.9768 38.601C47.6316 38.5824 47.2712 38.6992 46.9463 38.4809C46.9023 38.4521 46.8194 38.4877 46.7584 38.4741C46.596 38.4386 46.5012 38.5655 46.464 38.662C46.4285 38.7533 46.4572 38.9429 46.5266 38.992C47.0376 39.3507 47.2525 39.9295 47.5284 40.4304C47.7771 40.8806 48.1121 41.3392 48.0935 41.9095C48.5047 42.6439 48.3033 43.4461 48.344 44.2194C48.3507 44.3362 48.3186 44.4597 48.2864 44.5748C48.2069 44.8625 48.1121 45.14 48.0766 45.4463C48.0326 45.8322 47.7653 46.1588 47.613 46.5209C47.53 46.7189 47.4302 46.9119 47.3168 47.1539C47.5487 47.3214 47.5893 47.582 47.5977 47.8866C47.6079 48.2911 47.4674 48.7108 47.6908 49.1084C47.7196 49.1609 47.5842 49.3064 47.503 49.4452C46.9446 49.3927 46.3726 49.3166 45.7956 49.2895C45.2034 49.2624 44.6094 49.2827 44.0155 49.2827C43.8886 49.2827 43.7498 49.2506 43.6365 49.2895C43.4639 49.3504 43.2676 49.4012 43.2151 49.6381C43.1644 49.8666 43.0087 50.0917 43.0222 50.3117C43.0375 50.5537 43.1593 50.8075 43.293 51.0173C43.4114 51.2018 43.5756 51.3592 43.8632 51.3253C44.1983 51.2847 44.5401 51.3135 44.8802 51.3169C45.0612 51.3186 45.2288 51.327 45.4115 51.4201C45.5096 51.4709 45.7262 51.3067 45.9191 51.3101C46.2694 51.3135 46.5841 51.5132 46.9496 51.4539C47.1189 51.4269 47.3219 51.784 47.327 52.075C47.3355 52.5201 47.3287 52.9652 47.3287 53.4102C47.0986 53.6692 46.8684 53.9298 46.5012 53.6065C46.1273 53.6455 45.7939 53.4238 45.4081 53.4678C44.9902 53.5169 44.5604 53.4948 44.1373 53.4745C43.7346 53.4542 43.4148 53.5829 43.1457 53.923C43.0899 54.2276 43.2134 54.5931 43.0053 54.9079C43.0476 55.5053 43.0628 56.106 43.1491 56.6967C43.1779 56.8913 43.3556 57.118 43.5299 57.2246C43.8108 57.3956 44.0967 57.5919 44.4741 57.558C44.8734 57.5225 45.2795 57.5326 45.6806 57.5546C46.0562 57.575 46.4285 57.5496 46.7686 57.4125C47.0969 57.2805 47.3321 57.3482 47.5859 57.6156C47.5859 58.1503 47.591 58.7189 47.5859 59.2875C47.5825 59.6378 47.5064 59.7106 47.1375 59.7106C45.1458 59.7123 43.1542 59.7106 41.2083 59.7106C40.77 59.5025 40.8242 59.0388 40.6126 58.7223C40.5399 58.614 40.6854 58.3399 40.7412 58.1588C40.8292 57.8728 40.946 57.6291 40.726 57.3651C40.7565 56.827 40.6312 56.282 40.7988 55.749C40.8343 55.6339 40.8445 55.5087 40.8445 55.3868C40.8478 53.8604 40.8377 52.3356 40.8563 50.8092C40.8597 50.5892 40.7294 50.3929 40.8309 50.1441C40.9121 49.9461 40.8478 49.6889 40.8478 49.4655C40.2894 49.1914 39.5398 49.188 38.8714 49.4384C38.555 49.5569 38.2352 49.5941 37.9746 49.4943C37.6159 49.3572 37.2639 49.3894 36.9323 49.4317C36.6598 49.4655 36.3265 49.6364 36.1742 49.8547C35.9254 50.2118 35.5667 50.5012 35.433 50.9412C35.3417 51.2407 35.2588 51.5504 35.1166 51.8263C34.9559 52.141 34.9745 52.4862 34.8882 52.8112C34.8053 53.1276 34.829 53.4915 34.8797 53.8215C34.9694 54.407 35.0997 54.9807 35.3214 55.5425C35.5058 56.0096 35.8408 56.3819 36.0151 56.8439C36.3739 56.9996 36.6311 57.3465 37.0998 57.3042C37.6463 57.2551 38.1997 57.2923 38.7496 57.2923C38.8562 57.399 38.9594 57.5073 39.0677 57.6088C39.2589 57.7882 39.33 58.0082 39.3249 58.2671C39.3165 58.6276 39.3232 58.988 39.3232 59.3925C38.978 59.7445 38.5686 59.9966 38.0135 59.9662C37.5279 59.9408 37.0355 60.0169 36.5854 59.7208C36.428 59.6175 36.2013 59.7309 35.9881 59.6328C34.988 59.1708 34.2993 58.7376 33.724 57.8829C33.6208 57.729 33.4329 57.624 33.3551 57.4616C33.2113 57.162 32.9913 56.9099 32.9118 56.5613C32.8407 56.2448 32.5514 55.9944 32.5717 55.6204C32.5767 55.5324 32.4346 55.4376 32.3331 55.3124C32.1402 55.6288 31.9777 55.8911 31.8204 56.1551C31.5665 56.5799 31.2975 56.9742 30.8897 57.294C30.4734 57.6206 30.0639 57.9557 29.6409 58.2772C29.3583 58.4905 29.0114 58.5057 28.7255 58.6868C28.4513 58.8594 28.1501 58.9643 27.8151 58.9474C27.7576 58.944 27.6933 58.9626 27.6442 58.9897C27.1501 59.2689 26.6086 59.1928 26.0773 59.1979C26.0164 59.1979 25.9419 59.2097 25.8945 59.1826C25.4715 58.9254 24.974 58.9542 24.5188 58.8188C24.4985 58.8137 24.4698 58.8272 24.4562 58.8171C24.3124 58.702 24.1753 58.5768 24.0264 58.4702C23.8758 58.3619 23.6711 58.5091 23.5053 58.3399C23.2176 58.0471 22.8775 57.8034 22.578 57.5225C22.0856 57.0605 21.7319 56.4936 21.3918 55.9182C21.187 55.573 20.984 55.2328 21.0026 54.8047C21.0077 54.6964 20.9349 54.5796 20.8808 54.4781C20.7166 54.1735 20.3765 54.1311 20.2699 54.4324C20.1125 54.8791 19.6692 54.9688 19.3883 55.2548C19.143 55.5036 18.8333 55.7879 18.4052 55.7777C18.3477 55.7777 18.2884 55.8911 18.2275 55.9537C18.3697 56.3633 18.3544 56.3819 19.2716 57.1299C19.72 57.4954 20.3071 57.426 20.8317 57.4193C20.9738 57.6122 21.1092 57.7662 21.2057 57.9422C21.2598 58.042 21.3055 58.2096 21.2581 58.2925C21.0517 58.6479 21.1837 59.0252 21.1312 59.4043C21.0364 59.4957 20.9298 59.5989 20.8148 59.7123C20.341 59.7123 19.8536 59.6954 19.368 59.7174C18.8841 59.7394 18.5118 59.538 18.1683 59.2266C17.9889 59.0625 17.7808 58.9305 17.5947 58.7731C17.263 58.4939 16.9161 58.2265 16.6183 57.9134C16.334 57.6156 15.977 57.3888 15.779 56.9945C15.7164 56.8676 15.4321 56.8523 15.2054 56.7711C15.0717 57.003 14.9346 57.2399 14.8128 57.4514C14.8906 57.6426 15.0091 57.8169 15.0243 58.0014C15.0565 58.3805 15.0463 58.7646 15.0243 59.1437C15.0192 59.2486 14.9329 59.4026 14.845 59.4382C14.6453 59.5194 14.4219 59.5668 14.2053 59.5786C13.7823 59.5989 13.3576 59.5854 12.9345 59.5854C12.5251 59.2063 12.3186 58.7849 12.6097 58.2299C12.6621 58.13 12.6164 57.9794 12.6164 57.8525C12.6164 55.0348 12.6215 52.2155 12.6114 49.3978C12.6114 49.0543 12.5521 48.7091 12.4811 48.3723C12.4489 48.2251 12.3 48.1032 12.388 47.9255C12.5098 47.6802 12.6232 47.4297 12.7518 47.186C12.789 47.1149 12.8686 47.0642 12.9312 47.0015H15.7502C15.9025 47.3112 16.2342 47.3925 16.5337 47.494C16.6691 47.5397 16.8061 47.5448 16.9127 47.6615C16.9601 47.714 17.0549 47.7614 17.1226 47.7546C17.4035 47.7242 17.6184 47.8798 17.8637 47.9628C18.1243 48.0508 18.4272 48.0068 18.7132 47.9543C18.5727 47.8968 18.4373 47.8223 18.2935 47.7851C18.1277 47.7411 17.9889 47.7546 17.8823 47.5295C17.7808 47.3146 17.5134 47.1352 17.2782 47.0354C16.7824 46.8239 16.5997 46.35 16.312 45.9726C16.0024 45.5665 15.8738 45.0503 15.6132 44.6154C15.4643 44.3667 15.6944 44.0536 15.4135 43.8691C15.4761 43.3767 15.3814 42.8859 15.4863 42.3799C15.5963 41.8502 15.8247 41.3645 15.9262 40.8399C15.955 40.6893 16.0125 40.5302 16.1022 40.4067C16.4914 39.8635 16.8958 39.3321 17.3155 38.7669C16.6115 38.7026 15.9076 38.6383 15.3035 38.5841C15.0311 38.8938 14.8297 39.124 14.6114 39.371C14.1512 39.371 13.6875 39.371 13.2256 39.371C13.1224 39.371 13.0039 39.3896 12.9176 39.349C12.3508 39.085 11.9024 39.3033 11.4844 39.6486V40.9922C11.8634 41.2596 12.2425 41.4475 12.7264 41.4136C13.2544 41.3764 13.7857 41.4001 14.3153 41.4068C14.7671 41.4119 15.0159 41.6488 15.0294 42.0838C15.0362 42.3173 15.0379 42.5508 15.0294 42.7827C15.0159 43.177 14.7604 43.4308 14.3559 43.4359C13.6994 43.4444 13.0412 43.4376 12.3846 43.4376H11.789C11.5369 43.6728 11.4624 43.9301 11.4658 44.2347C11.4759 45.2737 11.4404 46.3128 11.481 47.3485C11.5013 47.8815 11.657 48.4078 11.5775 48.9798C11.3693 49.2252 11.1003 49.3758 10.7229 49.4334C10.3557 49.4892 10.0156 49.6686 9.61798 49.6821C9.17295 49.6974 8.79561 49.5027 8.39119 49.4029C8.11199 49.3335 7.86663 49.1338 7.58912 49.0424C7.40468 48.9815 7.2287 48.8851 7.00873 48.8969C6.54339 48.924 6.07636 48.9054 5.61103 48.9054C4.86819 48.9054 4.44008 49.0611 3.90537 49.5434C3.71585 49.7126 3.56864 49.9427 3.35712 50.0697C3.14053 50.1983 3.18283 50.5367 2.87994 50.5824C2.83425 50.5892 2.82748 50.8007 2.78518 50.9107C2.67519 51.2035 2.4806 51.4878 2.45691 51.7873C2.40615 52.4186 2.43153 53.0582 2.44845 53.6928C2.45353 53.8638 2.53644 54.0347 2.59228 54.2022C2.60412 54.2378 2.67858 54.2665 2.67519 54.2919C2.6092 54.7539 2.88163 55.0958 3.08638 55.4579C3.24544 55.7371 3.51618 55.9182 3.73108 56.15C3.79876 56.2245 3.90875 56.2651 3.96459 56.3447C4.31317 56.8388 4.86142 57.0436 5.38259 57.223C5.94607 57.4176 6.52478 57.6274 7.15594 57.5563C7.7888 57.4853 8.17798 57.1316 8.15937 56.5071C8.13907 55.8454 7.9817 55.1939 8.03077 54.5255C8.04092 54.3985 7.93093 54.2665 7.9157 54.1328C7.8531 53.6133 7.85648 53.5896 7.37253 53.6133C6.85982 53.6387 6.35049 53.7132 5.88008 53.7622C5.56534 53.5608 5.45366 53.3307 5.4892 52.9956C5.52473 52.6606 5.4892 52.3187 5.49935 51.9786C5.5095 51.5893 5.77347 51.3203 6.16605 51.3186C7.45883 51.3118 8.75161 51.3186 10.0444 51.3152C10.3067 51.3152 10.5131 51.4235 10.7179 51.6435C10.6434 52.0107 10.8363 52.427 10.5943 52.823C10.5368 52.9161 10.5859 53.0718 10.5859 53.1987C10.5859 54.1735 10.5706 55.1482 10.591 56.123C10.6028 56.7203 10.6163 57.3279 10.7331 57.91C10.7991 58.2383 10.8854 58.5176 10.7196 58.834C10.6586 58.9508 10.7805 59.1437 10.613 59.2317C10.371 59.3603 10.1172 59.4669 9.86842 59.582C9.8515 59.5905 9.82611 59.5854 9.80581 59.582C8.63147 59.4855 7.47237 59.7614 6.29803 59.7174C5.74471 59.6971 5.21169 59.6497 4.71928 59.3755C4.68544 59.3569 4.64652 59.3265 4.61268 59.3299C4.23872 59.3722 3.93752 59.2435 3.67355 58.9762C3.60079 58.9034 3.41634 58.9457 3.34189 58.8746C2.92732 58.4769 2.37061 58.2705 1.99496 57.8085C1.58547 57.3042 1.14044 56.8151 0.852775 56.2414C0.610801 55.7574 0.367135 55.2464 0.297758 54.6964C0.27576 54.5271 0.221612 54.3884 0.160696 54.2411C0.10824 54.1142 0.0540919 53.9822 0.0371706 53.8485C0.015173 53.681 0.0320942 53.5101 0.0320942 53.3409C0.0320942 53.065 0.0304021 52.7892 0.0320942 52.515C0.042247 51.3033 0.428051 50.2084 1.06767 49.1931C1.13874 49.0797 1.12521 48.8986 1.2132 48.814C1.46194 48.5703 1.74283 48.3605 2.01019 48.1388C2.41291 48.2166 2.5449 47.8088 2.82918 47.6649C3.39604 47.3755 3.93244 47.0845 4.58391 46.9677C5.0814 46.878 5.62964 46.9136 6.08313 46.614C6.65507 46.6292 7.23716 46.5396 7.7871 46.7985C8.12045 46.9559 8.4758 47.0371 8.84976 46.9965C9.07143 46.9728 9.18141 46.8763 9.18649 46.6496C9.19495 46.2688 9.17803 45.8863 9.19326 45.5056C9.20172 45.3076 9.10188 45.0842 9.29648 44.9116C9.32017 44.8913 9.32863 44.8253 9.3134 44.7965C9.04774 44.3007 9.2051 43.7693 9.19834 43.2582C9.17295 41.5202 9.18818 39.7823 9.18818 38.046C9.18818 37.9191 9.18141 37.7904 9.18818 37.6652C9.20172 37.4452 9.30663 37.3403 9.53845 37.3335C9.83457 37.3251 10.1612 37.4097 10.4217 37.3149C10.8752 37.1491 11.3253 37.2371 11.7738 37.21C11.8634 37.2049 11.9582 37.2675 12.08 37.3081L12.0563 37.3183ZM27.4733 8.98434C27.4953 8.67465 27.4987 8.37004 27.2821 8.08574C27.1112 8.09928 26.92 8.08574 26.7457 8.13482C26.5426 8.19235 26.6035 8.40897 26.5629 8.56127C26.5578 8.57819 26.5358 8.59342 26.5189 8.60696C26.1585 8.91834 26.0265 9.38203 25.7558 9.75264C25.7389 9.77633 25.7338 9.81018 25.7236 9.83726L26.0079 10.1216C26.4817 9.83556 26.8861 9.4768 27.1602 8.98434C27.2668 8.98434 27.3718 8.98434 26.59 11.1335C27.0046 11.1979 27.2465 10.9152 27.4327 10.7037C27.5731 10.5463 27.7102 10.3602 27.8574 10.196C28.0131 10.0251 28.1671 9.84402 28.3515 9.70864C28.5309 9.57664 28.5867 9.35834 28.7695 9.23142C28.9471 9.10957 28.9133 8.64927 28.7441 8.53419C28.5376 8.39543 27.8337 8.46312 27.7457 8.68989C27.6357 8.97419 27.1941 9.09434 27.3447 9.50049C27.3548 9.52588 27.3244 9.58003 27.2973 9.60372C27.0604 9.8051 26.9758 10.1199 26.7897 10.3331C26.5562 10.6022 26.5985 10.8459 27.4716 8.98434H27.4733ZM27.3498 29.285C27.3498 29.1615 27.3785 28.9855 27.3396 28.8247C27.3159 28.7266 27.2025 28.5996 27.1095 28.5793C26.9589 28.5489 26.7744 28.5133 26.6526 28.6893C26.5392 28.8552 26.4106 29.0125 26.2956 29.1784C26.1128 29.4407 25.9131 29.6945 25.7609 29.9755C25.6069 30.2581 25.6678 30.3782 26.0164 30.6287C26.3159 30.2124 26.7931 29.9552 27.0333 29.4712C27.0756 29.3848 27.2296 29.3544 27.3548 29.4052C27.4005 29.6218 27.2787 29.8215 27.0993 30.055C26.8523 30.3748 26.6475 30.737 26.4969 31.1262C26.4309 31.2971 26.5054 31.3564 26.5934 31.4342C26.7507 31.5696 26.8844 31.5053 27.0249 31.3801C27.5511 30.9113 27.9488 30.3055 28.5766 29.9467C28.6036 29.9315 28.6273 29.8705 28.6189 29.8418C28.5393 29.5828 28.8625 29.5253 28.8794 29.3155C28.7288 29.1039 28.5799 28.8941 28.3989 28.6386C28.0469 28.8958 27.7153 29.1412 27.3498 29.2867V29.285ZM33.3331 18.7268C33.3822 18.5424 33.2773 18.3833 33.1081 18.2293C32.9355 18.0719 32.7646 18.165 32.6613 18.1548C32.5361 18.3139 32.46 18.4307 32.3635 18.5288C32.0471 18.847 31.8407 19.2294 31.6342 19.6221C31.5327 19.815 31.5632 19.9673 31.5767 20.1754C31.7781 20.0739 32.0031 20.0197 32.1436 19.881C32.4498 19.5781 32.8136 19.3225 33.0133 18.913C33.0556 18.8267 33.2079 18.7962 34.6022 19.3394C34.6022 19.1414 34.6208 18.9282 34.5937 18.7218C34.5802 18.6134 34.5007 18.4408 34.4279 18.4256C34.2164 18.385 33.9829 18.3021 33.7866 18.5035C33.6885 18.605 33.5768 18.7404 33.4549 18.7624C33.1808 18.8098 33.4042 18.9993 33.3297 19.089C33.2756 19.1533 33.2096 19.2074 33.1537 19.2701C33.0844 19.3462 32.9558 19.4291 32.9608 19.5019C32.9845 19.8911 32.6732 20.1128 32.509 20.3937C32.3754 20.6222 32.2383 20.7931 32.3652 21.0537C32.7087 21.0503 32.7138 21.0571 32.9253 20.893C33.0624 20.7863 33.2587 20.7863 33.3433 20.5731C33.4059 20.414 33.5852 20.3007 33.7122 20.167C33.8391 20.0333 33.9609 19.8928 34.0946 19.7676C34.2384 19.6339 34.3941 19.5137 33.3348 18.7251L33.3331 18.7268ZM38.9239 29.2055C38.9239 28.9939 38.934 28.7841 38.9205 28.5742C38.9104 28.4152 38.7124 28.2578 38.5719 28.3238C38.4163 28.3966 38.1912 28.3678 38.1337 28.6402C38.0948 28.8179 37.9052 28.9618 37.7952 29.1276C37.6413 29.3561 37.4839 29.5845 37.3536 29.8265C37.1929 30.1261 37.2064 30.1362 37.5956 30.3562C37.7377 30.209 37.8799 30.055 38.0305 29.9078C38.1743 29.7673 38.2944 29.6032 38.511 29.5456C38.6921 29.4982 38.6075 29.1056 38.9239 29.2021C38.7073 29.6455 38.5787 30.1278 38.2166 30.5018C38.0948 30.627 38.0728 30.8639 38.0389 31.0551C37.9983 31.2836 38.0829 31.4562 38.352 31.5036C38.5195 31.2853 38.7022 31.089 38.9171 30.9164C39.1625 30.7184 39.4163 30.5035 39.5821 30.2411C39.7497 29.9772 40.0982 29.8858 40.1811 29.549C40.193 29.4999 40.3571 29.4864 40.462 29.4932C40.4468 29.5795 40.4553 29.7165 40.3994 29.8164C40.2522 30.0753 40.1135 30.3596 39.9019 30.5576C39.6532 30.7911 39.7107 31.199 39.3774 31.3682C39.3283 31.3919 39.3368 31.5154 39.3046 31.5865C39.2336 31.749 39.1557 31.9064 39.0677 32.0908C39.1811 32.1873 39.3165 32.3024 39.4569 32.4208C39.6363 32.2414 39.7852 32.0925 39.9341 31.9453C40.083 31.7964 40.2725 31.6677 40.3724 31.4901C40.4857 31.2904 40.6549 31.1804 40.8005 31.0314C40.9223 30.9079 41.0306 30.7471 41.1558 30.5881C41.2489 30.7065 41.3098 30.7844 41.4282 30.9367C41.215 31.1161 40.9088 31.2447 40.8546 31.4444C40.7345 31.8776 40.3842 32.1788 40.2844 32.6087C40.2556 32.7339 40.2167 32.8574 40.1761 33.0047H40.8106C40.7717 32.6408 41.2455 32.6882 41.2861 32.3802C41.2912 32.3328 41.3673 32.2719 41.4198 32.26C41.5145 32.2397 41.6161 32.255 41.8022 32.255C41.6804 32.5274 41.6313 32.7559 41.4976 32.9065C41.3183 33.1096 41.3081 33.2957 41.3859 33.5208C41.6042 33.5259 41.809 33.5699 41.9646 33.355C42.1559 33.091 42.4215 32.871 42.5755 32.5883C42.7041 32.3548 42.9732 32.1517 42.8665 31.8217C43.0798 31.6288 42.8953 31.5171 42.7566 31.5036C42.5704 31.485 42.4418 31.4342 42.3454 31.2464C42.611 30.9367 42.4774 30.6388 42.2811 30.3545H41.6499C41.5602 30.451 41.6025 30.7641 41.3386 30.5322C41.4739 30.2513 41.611 29.9687 41.7734 29.6285C41.6702 29.549 41.5636 29.4813 41.4705 29.395C41.1913 29.1361 41.1981 29.1412 40.8529 29.3629C40.7395 29.4356 40.5923 29.4509 40.4485 29.4576C40.4485 29.395 40.4434 29.3324 40.4485 29.2715C40.4773 28.9245 40.2691 28.7655 39.9764 28.6673C39.8647 28.6301 39.4789 28.7062 39.374 28.8196C39.2962 28.9059 39.2234 29.0058 39.1794 29.1124C39.1219 29.2562 39.0102 29.1885 38.9205 29.2055H38.9239ZM41.5941 9.87449C41.5873 10.0353 41.6161 10.1859 41.4689 10.3348C41.3233 10.482 41.2946 10.7866 41.1355 10.8712C40.9223 10.9846 40.8563 11.1522 40.8411 11.3214C40.8157 11.5989 40.4773 11.6582 40.4654 11.8595C40.4502 12.132 40.1507 12.3774 40.3927 12.6837C40.7125 12.6769 40.9341 12.4501 41.1575 12.264C41.281 12.1608 41.2573 11.9391 41.5061 11.8917C41.6651 11.8612 41.7904 11.6615 41.9799 11.494C41.941 11.7005 42.0865 11.8849 41.8276 11.9137C41.7887 11.9188 41.7294 11.9848 41.7244 12.0288C41.6821 12.3537 41.4909 12.6092 41.3419 12.8851C41.3267 12.9138 41.3487 12.9646 41.3521 12.9849C41.4164 13.0577 41.4722 13.1203 41.4993 13.1508C41.6719 13.0949 41.8445 13.078 41.9613 12.9883C42.0814 12.8969 42.1237 12.7057 42.2422 12.6075C42.4537 12.4332 42.5941 12.198 42.8039 12.0169C43.0984 11.7614 43.0645 11.3789 42.7752 11.1183C42.6906 11.0422 42.5823 10.9948 42.4875 10.9372C42.4875 10.6783 42.501 10.4228 42.4824 10.1706C42.4706 9.99295 42.3708 9.86941 42.166 9.8711C41.9765 9.87279 41.7853 9.8711 39.5229 12.0085C39.704 11.8274 39.8901 11.6565 40.0593 11.4669C40.2065 11.3011 40.3876 11.1775 40.479 10.944C40.5585 10.7426 40.8428 10.6936 40.9629 10.46C41.0746 10.2451 41.2878 10.0674 41.4908 9.92018C41.8259 9.67818 41.7701 9.32449 41.6956 9.04357C41.6161 8.74742 41.2692 8.84388 41.034 8.86419C40.8918 8.87604 40.7582 9.00296 40.616 9.0808C40.5754 9.04019 40.4553 8.96911 40.4654 8.92173C40.5551 8.47327 40.1998 8.3142 39.9798 8.06374C39.7327 8.23635 39.5161 8.3802 39.308 8.53589C39.1591 8.64758 39.1354 8.88111 38.9256 8.93527C38.9577 9.40065 38.4687 9.6291 38.4163 10.0556C38.1083 10.2705 38.1354 10.5683 38.1946 10.944C38.4163 10.8577 38.6362 10.8306 38.7682 10.7088C39.2183 10.2959 39.638 9.8491 40.0678 9.41418C40.0745 9.1045 40.2793 9.26357 40.4536 9.24834C40.4468 9.3668 40.4823 9.51234 40.4299 9.55634C40.0238 9.91172 39.8444 10.4177 39.5415 10.8408C39.3215 11.1505 39.2065 11.4957 39.1743 11.8562C39.3063 11.9137 39.396 11.9509 41.5941 9.86772V9.87449ZM46.4268 19.3665C46.4268 19.3073 46.4302 19.2007 46.4268 19.0958C46.4116 18.7624 46.1036 18.715 45.9005 18.5695C45.865 18.5441 45.3557 18.7353 45.3387 18.7878C45.2271 19.1381 44.8785 19.3225 44.7583 19.6847C44.6551 19.9927 44.4115 20.2567 44.2219 20.5342C43.9715 20.9014 43.9681 20.8997 44.271 21.333C44.4047 21.2551 44.5705 21.206 44.6704 21.096C45.1441 20.5748 45.7415 20.172 46.1104 19.5493C46.1611 19.463 46.3066 19.4325 46.4251 19.4359C46.3997 19.6593 46.5402 19.9842 46.1256 20.0519C46.0951 20.057 46.0461 20.1094 46.0494 20.1331C46.112 20.5325 45.557 20.6408 45.6264 21.0402C45.31 21.338 45.244 21.7729 44.9783 22.13C45.1103 22.2129 45.2068 22.3196 45.31 22.3246C45.4132 22.3297 45.5266 22.2451 45.6264 22.1808C45.8955 22.0082 46.0647 21.7239 46.2711 21.4954C46.4691 21.2754 46.728 21.091 46.8769 20.8151C46.9158 20.7407 47.0309 20.7085 47.1273 20.6459C47.1679 20.9319 47.1493 20.92 46.948 21.2517C46.7449 21.5868 46.6417 21.9997 46.3879 22.2806C46.1476 22.548 46.1814 22.79 46.1814 23.0862H46.5994C46.9192 22.6309 47.2373 22.2299 47.838 22.0505C47.7077 22.3602 47.6536 22.6462 47.4911 22.8391C47.2678 23.1031 47.2932 23.3366 47.371 23.6311C47.706 23.4805 48.0157 23.3806 48.1138 23.0117C48.1375 22.9237 48.256 22.8611 48.3304 22.7849C48.6102 22.4984 48.8053 22.1768 48.9159 21.8203C48.921 21.8017 48.9447 21.7899 48.9599 21.7746C48.811 21.4616 48.503 21.4379 48.2289 21.4142C48.3186 21.267 48.4319 21.1536 48.4539 21.025C48.4844 20.8439 48.4963 20.6307 48.4269 20.4699C48.3101 20.1974 48.0258 20.3193 47.8076 20.3024C47.7314 20.2956 47.6519 20.3176 47.591 20.3227C47.5402 20.458 47.4573 20.5139 47.3422 20.4902C47.4657 20.2499 47.591 20.0062 47.7128 19.771C47.618 19.6187 47.5487 19.4714 47.4488 19.3513C47.2441 19.1042 47.239 19.1144 46.882 19.2717C46.7381 19.3344 46.5858 19.3767 46.4302 19.3631L46.4268 19.3665ZM28.6222 49.804C28.6053 49.4198 28.7052 49.0188 28.4446 48.6735H27.8963C27.8219 48.9663 27.673 49.1118 27.3396 49.0035C27.4445 48.5568 27.0672 48.5398 26.7947 48.3943C26.1754 48.9257 25.8082 49.6144 25.5426 50.4149H26.0434C26.3869 50.0087 26.8726 49.6804 27.1772 49.1863C27.409 49.4791 27.4056 49.4791 27.1264 49.7058C27.0773 49.7464 27.0029 49.7904 26.9961 49.8395C26.9233 50.3506 26.3683 50.6146 26.392 51.2035C26.4783 51.2576 26.6306 51.3507 26.7829 51.4455C27.2567 50.9717 27.7373 50.4961 28.2094 50.0138C28.2584 49.9631 28.2635 49.87 28.2872 49.8006C28.4073 49.8006 28.5139 49.8006 29.783 50.3895C29.8473 50.2626 29.9066 50.161 29.9539 50.0527C30.0233 49.8987 29.9624 49.5518 29.8558 49.4486C29.7357 49.3335 29.4209 49.3149 29.2483 49.3538C29.0148 49.4063 29.0114 49.7211 28.8524 49.7397C28.5782 49.7718 28.5579 50.0138 28.5156 50.139C28.4632 50.2964 28.4124 50.4267 28.3109 50.5655C27.9978 50.9987 27.717 51.454 27.4394 51.9143C27.2702 52.1952 27.3582 52.3221 27.5816 52.4964C27.7271 52.4101 27.9031 52.3458 28.0283 52.2273C28.3633 51.9092 28.6967 51.5843 28.9877 51.2272C29.074 51.1206 29.1265 51.014 29.2602 50.9378C29.3837 50.8667 29.4463 50.6975 29.5563 50.5943C29.5935 50.5587 29.6917 50.5892 29.8575 50.5892C29.6561 50.8735 29.5072 51.0783 29.3617 51.2864C29.1451 51.5944 28.9505 51.9126 28.8676 52.2882C28.4919 52.5421 28.6273 52.8975 28.6375 53.2935C28.8625 53.1649 29.0283 53.0599 29.2043 52.9736C29.3854 52.8856 29.3549 52.6335 29.5918 52.5539C29.7441 52.5032 29.8287 52.251 29.9472 52.0852C30.0419 52.2189 30.2602 52.2781 30.0656 52.5015C29.8033 52.8027 29.734 53.197 29.6477 53.5727C29.7627 53.6285 29.8659 53.6776 29.9827 53.7335C30.4108 53.2461 30.8474 52.7469 31.311 52.2189C31.2839 52.0683 31.284 51.877 31.2146 51.7129C31.1114 51.4641 30.822 51.6723 30.6731 51.547C30.7543 51.2949 30.8761 51.058 30.8948 50.8126C30.9151 50.5587 30.5766 50.6044 30.4582 50.4403C30.4244 50.3929 30.3719 50.359 30.3465 50.3337C30.1587 50.4149 30.0233 50.6992 28.6189 49.804H28.6222ZM34.5988 39.5047V38.6687C34.5734 38.6467 34.543 38.618 34.5108 38.5892C34.1656 38.2677 34.1521 38.2609 33.812 38.579C33.68 38.7026 33.5565 38.7804 33.3754 38.7263C33.3122 38.4634 33.0968 38.2502 32.729 38.0866C32.4769 38.3946 32.1926 38.6941 31.9642 39.0309C31.7459 39.3541 31.5851 39.7163 31.3821 40.0936C31.663 40.1715 31.883 40.1766 32.0657 39.9396C32.2062 39.7586 32.4431 39.6959 32.5632 39.4607C32.6732 39.2458 32.9067 39.0935 33.0878 38.9175C33.1064 38.9006 33.1453 38.904 33.1808 38.8972C33.2417 38.9801 33.2976 39.0597 33.3111 39.0783C32.9372 39.6875 32.597 40.2426 32.2163 40.8653C32.4346 40.9347 32.5818 40.9821 32.729 41.0261C32.9524 41.0938 32.9118 40.8687 32.9981 40.7841C33.0539 40.7282 33.1216 40.6775 33.1944 40.647C33.6174 40.4626 33.7494 39.9735 34.142 39.7535C34.213 39.7146 34.2333 39.586 34.2756 39.4996C34.3856 39.4996 34.4905 39.4996 35.9085 39.1764C35.8036 39.1426 35.7613 39.1392 35.7309 39.1172C35.428 38.9124 35.1978 38.9649 34.9203 39.2204C34.5701 39.542 34.4212 39.9633 34.191 40.3475C34.0878 40.5201 33.944 40.6673 33.8374 40.8366C33.7341 41.0024 33.6952 41.2325 33.5565 41.3476C33.257 41.5964 33.306 41.8705 33.3619 42.1955C33.4989 42.1633 33.6089 42.1616 33.6918 42.1159C34.2621 41.7995 34.6344 41.2901 34.9711 40.7553C35.0828 40.5759 35.1995 40.6453 35.3349 40.6809C35.4178 40.9516 35.2503 41.1327 35.12 41.3341C34.9153 41.6488 34.7139 41.967 34.5396 42.2987C34.3873 42.5864 34.4364 42.6947 34.7393 42.935C35.1708 42.7268 35.4703 42.3495 35.7089 41.9738C35.8645 41.7284 35.961 41.8096 36.1387 41.8299C36.1167 41.9518 36.1336 42.0888 36.0744 42.143C35.8527 42.3495 35.6902 42.5627 35.7156 42.8893C35.7241 42.9976 35.5904 43.1431 35.6293 43.2176C35.6818 43.3158 35.8358 43.3614 35.9576 43.4376C36.3248 42.781 37.0304 42.3765 37.2673 41.6268C37.1167 41.3967 36.9255 41.2241 36.6717 41.2545C36.5042 40.889 36.9103 40.6064 36.6835 40.2222C36.3942 40.1816 36.0777 40.1393 35.7715 40.0953C35.8155 39.8026 35.8578 39.5064 34.5954 39.4996L34.5988 39.5047ZM41.3826 27.9684C41.325 27.833 41.3132 27.7095 41.2455 27.657C40.7531 27.2763 40.2031 26.9649 39.8647 26.4047C39.7581 26.2287 39.55 26.117 39.4281 25.9461C39.3165 25.7904 39.2285 25.6009 39.1845 25.4147C39.132 25.1964 38.863 25.1101 38.907 24.8208C38.9408 24.5957 38.8393 24.3503 38.7936 24.1134C38.7868 24.0762 38.7631 24.0406 38.7462 24.0034H38.2724C38.2335 24.2437 38.1963 24.4789 38.1591 24.7125C38.1337 24.8698 38.1286 25.0188 38.0711 25.1829C37.8748 25.7397 37.5482 26.2101 37.1912 26.6586C37.0067 26.8921 36.9746 27.1409 36.8781 27.3981C37.2876 27.454 37.626 27.4438 37.9255 27.2136C37.9695 27.1798 38.0389 27.1646 38.0948 27.168C38.5567 27.2018 39.0525 27.0343 39.4671 27.3863C39.506 27.4201 39.5855 27.4032 39.643 27.4201C39.9815 27.52 40.347 27.4963 40.6465 27.7772C40.7971 27.9193 41.1 27.899 41.3233 27.9278C41.3436 28.009 41.3436 28.1343 41.3876 28.1546C41.5484 28.2256 41.7734 28.2121 41.8817 28.3221C41.9985 28.4406 42.0882 28.5929 42.2523 28.6453C42.6178 28.7587 42.7938 29.1124 43.1085 29.3002C43.3065 29.4187 43.3911 29.7199 43.5383 29.9332C43.6957 30.1616 43.7465 30.4578 43.9817 30.6422C44.0155 30.6693 43.9986 30.759 44.0104 30.8182C44.051 31.0128 44.0375 31.2514 44.1475 31.3919C44.4487 31.7744 44.3844 32.2025 44.3912 32.6273C44.3928 32.7745 44.3912 32.9234 44.3912 33.0723C44.3912 33.4328 44.4791 33.822 44.3675 34.1419C44.2507 34.4702 44.1949 34.8272 44.0155 35.1369C43.9783 35.2012 44.0307 35.318 43.9918 35.3789C43.7938 35.6802 43.5739 35.9678 43.3691 36.2657C43.1441 36.5923 42.9292 36.9257 42.7092 37.254C42.9647 37.4232 43.2117 37.5095 43.4825 37.4621C43.7008 37.4249 43.9089 37.5027 44.0578 37.6043C44.403 37.8429 44.755 37.8886 45.156 37.8226C45.156 37.4791 45.1425 37.1626 45.1611 36.8478C45.1712 36.6938 45.3252 36.4823 45.2677 36.4028C45.0528 36.1049 45.178 35.7918 45.1628 35.4923C45.1408 35.0422 45.1865 34.5971 45.2626 34.1453C45.3489 33.6308 45.2981 33.091 45.2778 32.563C45.2558 31.9656 45.3303 31.3716 45.178 30.7691C45.1002 30.4628 45.0223 30.0635 45.2812 29.7487C45.0595 29.4255 45.2152 29.0312 45.1205 28.691C44.7042 28.691 44.3218 28.6724 43.9427 28.6978C43.7058 28.713 43.4689 28.6792 43.3082 28.5438C43.0256 28.3069 42.7143 28.3052 42.386 28.3069C42.3471 28.3069 42.3081 28.2933 42.2658 28.2849C42.1491 28.1664 42.0289 28.0463 41.9105 27.9278C41.7176 27.9278 41.5281 27.9278 41.3809 27.9633L41.3826 27.9684ZM18.192 38.0443C18.5321 38.293 18.5829 38.2964 18.9501 38.0443C19.0651 37.9647 19.1311 37.8226 19.3156 37.848C19.7927 37.914 20.2191 37.672 20.6693 37.5823C21.1786 37.4807 21.7945 37.4097 22.2937 37.5738C22.4646 37.6297 22.5526 37.54 22.5949 37.4452C22.6677 37.2811 22.6947 37.1068 22.5543 36.9291C21.957 36.1726 21.8081 35.7258 21.4544 34.9711C21.3461 34.7409 21.4307 34.5294 21.341 34.3179C21.1752 33.9236 21.1041 33.5106 21.1058 33.0757C21.1058 32.8405 21.1955 32.6442 21.2429 32.4293C21.3123 32.1179 21.3918 31.8065 21.4324 31.4917C21.4747 31.1634 21.737 30.9468 21.8097 30.627C21.8859 30.297 22.1989 30.1041 22.4274 29.8688C22.7167 29.5693 23.0755 29.3172 23.1127 28.8501C22.8741 28.779 22.6507 28.5641 22.38 28.7705C22.1363 28.955 21.8554 28.9652 21.5661 28.955C21.2903 28.9449 21.0111 28.9262 20.7403 28.9635C20.5779 28.9855 20.4273 29.1953 20.2716 28.9533C19.8723 29.0075 19.5355 28.7807 19.1666 28.713C18.8942 28.6622 18.6793 28.5709 18.4593 28.4101C18.258 28.2629 17.9855 28.2172 17.774 28.0801C17.5185 27.9126 17.1835 27.7416 17.0836 27.4929C16.9195 27.0833 16.6877 27.1781 16.3882 27.2018C16.4186 27.344 16.4119 27.4624 16.4677 27.5369C16.5692 27.6756 16.5675 27.789 16.4846 27.9312C16.3493 28.1647 16.1784 28.3035 15.8907 28.3255C15.5861 28.3475 15.2917 28.3069 14.9719 28.3949C14.18 28.6115 13.5894 29.0819 13.0987 29.6878C12.9599 29.8587 12.74 30.0245 12.7247 30.2885C12.7044 30.6304 12.5606 30.9401 12.4709 31.2633C12.3457 31.7151 12.2374 32.1551 12.4591 32.6256C12.5657 32.8523 12.5826 33.135 12.5894 33.3939C12.5978 33.685 12.7281 33.9303 12.8093 34.1943C12.965 34.6986 13.383 34.9846 13.7129 35.3468C14.1157 35.7885 14.5962 36.1066 15.1665 36.2894C15.466 36.3858 15.7587 36.5314 16.065 36.5686C16.4609 36.6177 16.8704 36.5635 17.2715 36.5872C17.4711 36.5991 17.6065 36.5178 17.6911 36.374C17.8248 36.1506 18.104 35.9509 17.8316 35.6294C17.7673 35.5549 17.8129 35.3857 17.8129 35.2605C17.8129 34.5819 17.8129 33.9049 17.8129 33.2263C17.4187 32.7288 17.0007 32.629 16.4305 32.9387C16.202 33.0639 15.977 33.0673 15.7401 32.9251C15.471 32.7643 15.2815 32.5511 15.2748 32.238C15.268 31.9081 15.2629 31.5662 15.3374 31.2481C15.4558 30.7421 16.0734 30.4865 16.6335 30.6287C17.1158 30.7522 17.5794 30.693 18.0498 30.7268C18.324 30.7471 18.6455 30.8216 18.8654 30.7099C19.2479 30.517 19.5694 30.6253 19.9146 30.7319C20.0076 30.7607 20.1328 30.7996 20.1684 30.8707C20.2547 31.045 20.297 31.2413 20.3562 31.4274C20.1024 31.6508 20.2378 31.9436 20.2361 32.2008C20.2225 33.5986 20.2293 34.9965 20.2293 36.3994C20.0296 36.5872 19.8587 36.8309 19.6235 36.9477C19.0837 37.2168 18.637 37.5891 18.192 38.0426V38.0443ZM47.4454 36.0271C47.6028 36.1608 47.7619 36.4028 47.9531 36.4298C48.2729 36.4755 48.5707 36.638 48.9142 36.5872C49.2323 36.5398 49.5877 36.66 49.8263 36.3283C49.8398 36.308 49.9126 36.3385 49.9481 36.3232C50.2239 36.2183 50.5116 36.1472 50.7434 35.9441C51.2883 35.4652 51.9905 35.1099 52.0294 34.2451C52.0328 34.1554 52.0937 34.0556 52.1546 33.9828C52.378 33.7137 52.4321 33.4074 52.4084 33.0706C52.3983 32.9234 52.4051 32.7745 52.4084 32.6273C52.4186 32.0367 52.4694 31.4359 52.0446 30.9384C51.977 30.2919 51.4338 29.9247 51.1427 29.4102C51.0903 29.3172 50.9583 29.2579 50.8517 29.2055C50.3931 28.9787 49.9802 28.6216 49.4151 28.691C48.9328 28.4118 48.4049 28.427 47.8871 28.4473C47.7416 28.5929 47.6197 28.7435 47.4691 28.8569C47.2813 28.999 47.2525 29.2325 47.3354 29.3595C47.547 29.6912 47.3524 30.0905 47.5707 30.4087C47.6096 30.4662 47.613 30.6135 47.5707 30.6524C47.3541 30.8453 47.4556 31.0873 47.4539 31.3039C47.4454 32.8676 47.4488 34.4329 47.4488 36.0271H47.4454ZM41.4096 47.142C42.1136 47.0879 42.8209 47.2114 43.5248 47.0235C43.7617 46.9609 43.9766 46.9 44.1881 46.7765C44.5519 46.5616 44.8582 46.2756 45.112 45.954C45.3303 45.6782 45.6382 45.4193 45.6535 45.0419C45.6653 44.7407 45.7719 44.5054 45.9107 44.2533C46.0021 44.0857 46.0799 43.8962 46.0545 43.6745C46.0241 43.4021 46.0528 43.1245 46.0444 42.8487C46.041 42.7505 46.0224 42.6456 45.9801 42.5593C45.7144 42.0127 45.5587 41.4187 45.2254 40.8992C44.9309 40.4389 44.5807 40.0344 44.0984 39.7958C43.3353 39.4184 42.5197 39.2086 41.6533 39.2492C41.1321 39.2746 40.9595 39.437 40.9595 39.9498C40.9595 42.1955 40.9595 44.4428 40.9595 46.6699C41.1152 46.8323 41.2607 46.9863 41.4096 47.142ZM51.2612 54.1802C51.5438 54.5288 51.8771 54.693 52.3035 54.6371C52.6453 54.5931 53.0058 54.6033 53.3273 54.495C53.6572 54.385 53.9517 54.1633 54.2613 53.989C54.4339 53.527 54.7791 53.1818 55.0668 52.7976C55.2766 52.5184 55.2715 51.063 55.0769 50.8109C54.8519 50.5215 54.6251 50.2338 54.395 49.9495C54.1564 49.6551 53.7114 49.7329 53.4576 49.4334C53.395 49.3606 53.1733 49.4232 53.0261 49.4232H51.7079C51.3712 49.7769 51.2375 50.1644 51.251 50.6535C51.2866 51.8178 51.2629 52.9838 51.2629 54.1802H51.2612ZM15.0192 49.6161C14.9871 49.8869 15.0091 50.161 14.911 50.4504C14.8314 50.6857 14.7773 51.0292 15.0125 51.278C15.0108 51.8703 15.0091 52.4626 15.004 53.0549C15.004 53.0701 14.9668 53.0836 14.9617 53.1005C14.9329 53.2376 14.867 53.3848 14.894 53.5118C14.9499 53.7792 15.0497 54.0381 15.1445 54.2953C15.1597 54.3359 15.2341 54.3545 15.2815 54.3833C15.6166 54.5762 16.3086 54.5525 16.6301 54.363C16.7977 54.2631 16.9973 54.1278 17.1666 54.1464C17.5388 54.187 17.7046 53.9399 17.8857 53.725C18.0921 53.483 18.2309 53.1835 18.4356 52.9415C18.6658 52.669 18.6573 52.3001 18.8468 52.0327C18.9636 51.8686 18.9822 51.7129 18.945 51.5673C18.8434 51.168 18.7013 50.7804 18.571 50.3895C18.5592 50.354 18.5236 50.315 18.4898 50.2981C18.2529 50.178 18.2427 49.8564 17.9635 49.7549C17.7266 49.6686 17.5287 49.4808 17.3002 49.364C16.906 49.1643 16.4779 49.1778 16.0464 49.1609C15.6149 49.144 15.2883 49.2912 15.0192 49.6178V49.6161ZM27.4902 32.7474C27.8895 32.4783 28.2703 32.3379 28.4581 32.0637C28.6628 31.7659 28.937 31.551 29.1603 31.2836C29.1942 31.2413 29.294 31.2531 29.426 31.2294C29.3262 31.4951 29.2686 31.7033 29.1739 31.8911C29.0233 32.1907 28.8422 32.4733 28.6865 32.7694C28.5613 33.008 28.5715 33.228 28.8185 33.3837C29.0385 33.2128 29.2466 33.0486 29.4565 32.8879C29.673 32.722 29.7983 32.431 30.1587 32.4174C29.9776 32.6273 30.0792 32.9099 29.8744 33.1214C29.6747 33.3296 29.7289 33.5919 29.9641 33.9236C30.3939 33.4446 30.8237 32.9759 31.2416 32.497C31.4515 32.2584 31.4345 32.0045 31.2247 31.7354H30.6731C30.8401 31.5109 30.9094 31.1685 30.8812 30.7082C30.7036 30.6371 30.509 30.5153 30.3025 30.4916C30.1875 30.4798 30.0555 30.6321 29.9167 30.7201C29.8693 30.6338 29.7898 30.5491 29.8084 30.5136C29.8795 30.3715 29.9776 30.2428 30.0707 30.1142C30.1807 29.9636 30.1688 29.8418 30.0622 29.6759C29.8389 29.329 29.25 29.4102 28.9251 29.7335C28.9556 30.0871 28.6341 30.2496 28.4886 30.5035C28.2314 30.9485 27.9809 31.4037 27.6899 31.8201C27.4936 32.101 27.4851 32.3311 27.4936 32.7508L27.4902 32.7474ZM23.6102 40.8129C23.8132 40.8772 23.8674 41.1107 23.7726 41.2105C23.5594 41.439 23.4494 41.7216 23.2751 41.9602C23.1398 42.1464 23.067 42.341 22.9655 42.5356C22.8216 42.8131 22.9265 42.9468 23.1956 43.111C23.4359 42.8978 23.7777 42.7268 23.886 42.4611C23.9926 42.2005 24.1889 42.3918 24.2718 42.2615C24.2938 42.1464 24.3158 42.0313 24.3378 41.9179C24.4156 42.1176 24.4528 42.2835 24.3175 42.4916C24.1736 42.715 24.1246 43.0027 24.045 43.265C24.0298 43.3141 24.0637 43.3784 24.0738 43.4274H24.4545C24.9013 42.9079 25.3141 42.4307 25.7152 41.9653C25.5578 41.6692 25.5155 41.6285 24.9402 41.2309C25.0789 41.1141 25.2177 40.9973 25.3564 40.8806C25.2803 40.8044 25.2397 40.779 25.2228 40.7435C25.0332 40.3407 24.7304 40.1681 24.2853 40.2629C24.2549 40.2696 24.2159 40.2307 24.15 40.1986C24.1821 40.0919 24.2126 39.9803 24.2481 39.8686C24.3479 39.5538 24.3242 39.3998 24.0687 39.2238C23.9452 39.1375 23.7675 39.129 23.578 39.0766C23.3428 39.3829 23.0568 39.6486 22.9215 39.9769C22.8487 40.1512 22.7624 40.2916 22.6626 40.4422C22.3665 40.889 22.0889 41.3476 21.8047 41.8028C21.7184 41.9416 21.7167 42.0618 21.8317 42.1955C21.9502 42.3325 22.0839 42.3291 22.2226 42.2699C22.3275 42.2259 22.4646 42.1718 22.5069 42.0838C22.693 41.6878 23.0805 41.4813 23.3394 41.1581C23.4257 41.0498 23.5086 40.9398 23.6068 40.8129H23.6102ZM35.5532 19.0314C35.4246 19.0314 35.2757 19.0128 35.1352 19.0382C35.0455 19.0551 34.9017 19.1313 34.8949 19.1939C34.8713 19.4037 34.6868 19.4951 34.6141 19.6424C34.2756 20.321 33.8018 20.9116 33.4093 21.5546C33.262 21.7966 33.2959 21.9557 33.5768 22.2113C33.7443 22.108 34.0117 22.0369 34.0607 21.8931C34.1403 21.6579 34.3095 21.602 34.4736 21.5022C34.4127 21.1925 34.7985 21.2703 34.8696 21.0402C34.9237 20.8676 35.0726 20.6865 35.3857 20.678C35.3434 20.8354 35.3315 20.9742 35.2706 21.0876C35.1945 21.228 35.0675 21.3397 34.9846 21.4785C34.8746 21.6629 34.7867 21.8609 34.6919 22.0556C34.6157 22.2146 34.4922 22.3737 34.4871 22.5362C34.4821 22.6885 34.6056 22.8442 34.7122 23.0862C34.8933 22.7731 35.2334 22.7579 35.3146 22.4499C35.6378 22.3585 35.719 22.0285 35.9441 21.8203C36.0151 21.9185 36.0862 22.0133 36.1522 22.1029C35.6564 22.6242 35.5921 22.7985 35.6886 23.406C36.4991 23.0726 36.7817 22.2806 37.2825 21.7239C37.1776 21.3719 36.939 21.2263 36.6141 21.1502C36.6717 20.9234 36.7258 20.7136 36.7529 20.6036C36.5448 20.3971 36.3823 20.2364 36.2114 20.0671C36.1387 20.0942 36.0219 20.1365 35.8611 20.194V19.3394C35.7495 19.2277 35.6598 19.1381 35.5515 19.0298L35.5532 19.0314ZM23.8335 20.7288C23.7675 20.9691 23.7557 21.1062 23.6948 21.2162C23.512 21.5445 23.2988 21.8542 23.1211 22.1842C23.0213 22.372 22.9536 22.5819 22.9029 22.79C22.8606 22.9626 22.9976 23.0625 23.1431 23.0929C23.243 23.1149 23.4071 23.164 23.4122 22.9474C23.4122 22.8983 23.4697 22.8188 23.5154 22.8069C23.7303 22.7494 23.7489 22.4719 23.9131 22.4194C24.1398 22.3466 24.1584 22.1266 24.3073 22.0133C24.3615 21.9726 24.441 21.9676 24.6711 21.8965C24.3869 22.482 24.067 22.922 24.0738 23.4602C24.507 23.4686 24.5239 23.4822 24.7304 23.23C25.0231 22.8712 25.3023 22.4989 25.5612 22.1165C25.6543 21.9794 25.6712 21.7933 25.7202 21.6359C25.4647 21.5479 25.2617 21.4785 25.0468 21.404C25.0654 21.2873 25.0535 21.1722 25.1026 21.0943C25.1602 21.0013 25.1957 20.9522 25.15 20.8253C24.9605 20.3125 24.9723 20.3074 24.4325 20.3007C24.353 20.3007 24.2735 20.3007 24.1889 20.3007C24.2295 20.0519 24.2633 19.8404 24.2955 19.6288C24.331 19.3936 24.133 19.2768 23.9926 19.1956C23.8809 19.1313 23.6491 19.1533 23.5408 19.2328C23.3614 19.3648 23.3445 19.6796 23.0467 19.7084C23.0382 19.7084 23.0331 19.7439 23.0247 19.7608C22.8978 19.9825 22.6744 20.2008 22.666 20.4276C22.6541 20.7627 22.3326 20.8253 22.2463 21.0876C22.1617 21.3448 21.9451 21.558 21.7539 21.8389C21.7539 21.8339 21.7657 21.8999 21.7522 21.9591C21.7133 22.1351 21.8148 22.2603 21.9417 22.3196C22.072 22.3805 22.2226 22.35 22.3275 22.2113C22.5509 21.9168 22.9282 21.7526 23.0433 21.3668C23.3394 21.2754 23.3902 20.898 23.8352 20.7288H23.8335ZM29.9742 13.3251C30.6731 13.078 31.0014 12.4535 31.3686 11.8832C31.5293 11.6345 31.4549 11.3925 31.1757 11.2859C30.866 11.1691 30.8965 10.9525 30.9151 10.7325C30.9472 10.3754 30.9269 10.2773 30.6832 10.13C30.5834 10.0708 30.47 10.0353 30.382 9.99802C30.1485 10.0843 30.0927 10.4397 29.7593 10.3602C29.7695 10.0606 30.0453 9.98618 30.1248 9.80679C30.2924 9.26865 29.9573 9.05034 29.5884 8.88281C29.3854 9.0368 29.1569 9.15188 29.0131 9.33295C28.8202 9.57664 28.7035 9.87956 28.5359 10.1469C28.3041 10.5176 28.1214 10.9135 27.8354 11.2571C27.6763 11.4483 27.5562 11.7309 27.629 12.0677C27.8185 12.0271 27.9995 12.0321 28.1214 11.9492C28.3092 11.8189 28.4649 11.6378 28.6189 11.4635C28.7796 11.2808 28.8896 10.966 29.0774 10.9169C29.3702 10.8408 29.3431 10.5751 29.5106 10.4499C29.5377 10.4296 29.5681 10.416 29.6003 10.3991C29.6697 10.4752 29.7357 10.548 29.7847 10.6039C29.6883 10.9 29.3363 10.966 29.3735 11.318C29.3989 11.5617 29.0351 11.6209 28.9877 11.9052C28.9471 12.1405 28.7475 12.3503 28.6205 12.5652C28.7407 12.8614 28.981 12.8021 29.1908 12.7886C29.514 12.5517 29.6967 12.1692 30.0893 12.0118C30.3533 12.5111 29.7543 12.7277 29.7712 13.1186C29.8389 13.1863 29.8981 13.2455 29.9759 13.3234L29.9742 13.3251ZM40.9494 18.5695C40.9172 18.539 40.8783 18.4764 40.8242 18.4561C40.5686 18.363 40.3097 18.3427 40.0559 18.4696C39.8393 18.5779 39.6295 18.6964 39.3689 18.6507C39.2234 18.6253 39.1033 18.6744 38.9696 18.7624C38.8664 18.8301 38.6481 18.8318 38.5415 18.7658C38.2674 18.5948 37.9814 18.6778 37.7005 18.6473C37.3993 18.6151 37.1015 18.561 36.802 18.5255C36.7478 18.5187 36.6903 18.5525 36.6361 18.5661V19.0179C37.1472 19.2565 37.3468 19.8065 37.6328 20.2651C37.9171 20.7203 38.2809 21.1925 38.1557 21.7899C38.3452 21.9473 38.5026 22.0793 38.6633 22.2096C38.6768 22.2197 38.7039 22.2096 38.7547 22.2096C38.8105 21.8626 38.775 21.4497 38.951 21.1722C39.1456 20.8659 39.2488 20.5274 39.4332 20.2245C39.6329 19.8962 39.8326 19.5679 40.1168 19.3039C40.3876 19.0534 40.6702 18.8148 40.9528 18.5678L40.9494 18.5695ZM30.4717 48.792C31.1147 49.3217 31.9963 50.5469 32.2789 51.3676C32.3669 51.3 32.5074 51.2441 32.5107 51.1815C32.5243 50.9023 32.6969 50.7381 32.8762 50.5672C32.9152 50.53 32.9439 50.4623 32.9422 50.4081C32.9405 50.2152 33.0285 50.1221 33.2113 50.0494C33.4093 49.9698 33.5412 49.7735 33.7968 49.7718C34.0489 49.7718 34.2046 49.5298 34.3975 49.4046C34.9711 49.0272 35.5312 48.7903 35.9474 47.9069C35.6564 47.9018 35.6615 47.9103 35.2435 48.1472C34.7477 48.4281 34.2215 48.6312 33.6766 48.8021C33.5226 48.8495 33.3805 48.9138 33.218 48.9138C32.9219 48.9138 32.6275 48.9138 32.3314 48.9138C32.1486 48.9138 31.971 48.9257 31.8102 48.7903C31.6681 48.6684 31.4853 48.6448 31.2958 48.6549C31.1757 48.6617 31.02 48.6735 30.9405 48.6075C30.6748 48.3926 30.6426 48.6617 30.4734 48.7903L30.4717 48.792ZM26.7507 43.9927C26.6797 44.2127 26.5849 44.3599 26.5968 44.497C26.6171 44.7457 26.4732 44.915 26.3785 45.1096C26.3429 45.1806 26.211 45.2331 26.2127 45.2906C26.2262 45.6325 25.9318 45.8203 25.8404 46.0894C25.7338 46.4042 25.5003 46.5886 25.3158 46.8256C25.0823 47.1268 25.0722 47.1759 25.1229 47.538C25.3801 47.4872 25.6323 47.4043 25.8895 47.3942C26.4377 47.3722 26.9893 47.3891 27.5393 47.3857C27.6865 47.3857 27.8202 47.4788 27.9335 47.494C28.2415 47.5329 28.5393 47.8003 28.8642 47.5905C28.7424 47.4991 28.5833 47.4314 28.5021 47.3112C28.2026 46.8679 27.9725 46.3754 27.6307 45.9642C27.4022 45.69 27.2939 45.3651 27.2432 45.0487C27.1822 44.6679 26.9775 44.392 26.7541 43.9944L26.7507 43.9927ZM38.7327 41.6658C38.7547 41.6319 38.797 41.5964 38.7919 41.5659C38.7665 41.3679 38.8833 41.1429 38.6802 40.9787C38.5787 40.2866 38.8681 39.6858 39.4908 39.3609C39.8918 39.1527 40.3588 39.0157 40.6397 38.6129C40.9138 38.6197 40.9612 38.2914 41.1795 38.2372C41.5044 38.1543 41.4705 37.8581 41.6838 37.5671C41.4942 37.6094 41.3792 37.606 41.3639 37.6432C41.3183 37.7566 41.3233 37.8886 41.1372 37.8514C40.9206 37.8091 40.7599 37.9512 40.5805 38.0341C40.4383 38.0984 40.2928 38.227 40.1558 38.2203C39.6566 38.1949 39.2437 38.5824 38.7395 38.486C38.3147 38.7618 37.8426 38.5418 37.3976 38.6129C37.0575 38.3337 36.8426 38.5604 36.6125 38.8346C37.2385 39.2052 37.4856 39.9075 37.9729 40.4067C38.0203 40.4558 38.0051 40.559 38.0321 40.6335C38.0998 40.8162 38.1235 41.0701 38.2572 41.1615C38.4603 41.3019 38.5584 41.5135 38.731 41.6641L38.7327 41.6658ZM32.6292 14.4267C32.5598 14.5367 32.5023 14.64 32.4363 14.7347C32.1639 15.1256 32.0962 15.6096 31.8153 16.0056C31.6511 16.2375 31.4938 16.4693 31.2975 16.6758C31.1198 16.8619 30.954 17.0582 30.7848 17.2512C30.734 17.3104 30.6883 17.3747 30.5868 17.505C31.5445 17.505 32.4075 17.4999 33.2705 17.5084C33.4888 17.5101 33.7003 17.4813 33.9254 17.6167C34.147 17.7487 34.3095 17.6201 34.4753 17.3121C34.4008 17.2393 34.3213 17.1682 34.2502 17.0904C33.8797 16.6826 33.4346 16.3542 33.1961 15.8144C33.0708 15.5318 32.9287 15.2813 32.9456 14.9649C32.9575 14.7567 32.9727 14.5401 32.6309 14.4267H32.6292ZM25.0552 27.7636C25.2803 27.8178 25.4529 27.8347 25.6509 27.6892C25.8201 27.5656 26.0519 27.5284 26.2871 27.5436C26.6661 27.5673 27.0469 27.5487 27.4276 27.5504C27.5528 27.5504 27.7085 27.5098 27.7982 27.5673C28.1129 27.7721 28.4276 27.6452 28.7948 27.6672C28.7373 27.4963 28.7288 27.3592 28.6578 27.278C28.2347 26.794 27.7965 26.3235 27.3633 25.8497C27.3464 25.377 27.1382 24.9815 26.7389 24.6634C26.4868 24.7886 26.6408 25.0424 26.5578 25.2218C26.4428 25.4706 26.216 25.7194 26.2262 25.9597C26.2431 26.3303 25.8928 26.4098 25.8048 26.684C25.7473 26.8633 25.5409 26.9987 25.3937 27.146C25.2211 27.3186 25.0688 27.4963 25.0519 27.7619L25.0552 27.7636ZM32.6783 32.0011C32.8086 31.7947 32.9321 31.6864 32.9355 31.573C32.9439 31.2785 32.9761 31.0145 33.1944 30.7878C33.2688 30.7099 33.2857 30.5745 33.3263 30.4662C33.389 30.3021 33.4499 30.1379 33.5108 29.9738C33.8678 30.0093 33.636 29.6573 33.8052 29.527C34.0235 29.3595 34.1639 29.0887 34.3704 28.8213C33.5785 28.8213 32.8627 28.8213 32.1469 28.8213C32.0031 28.8213 31.8339 28.8518 31.7188 28.7909C31.3347 28.5844 31.0031 28.6978 30.6985 28.867C30.932 29.2918 31.3246 29.549 31.6478 29.8773C32.0133 30.2462 32.0623 30.2361 32.1249 30.6253C32.1994 31.089 32.4414 31.4664 32.6749 32.0011H32.6783ZM26.7863 21.8897C26.9081 21.6663 27.0739 21.4954 27.0807 21.3194C27.0993 20.8963 27.3413 20.5596 27.5224 20.2347C27.7322 19.859 28.0706 19.5408 28.3024 19.1601C28.6205 19.1736 28.4496 18.9485 28.4886 18.8182C27.2448 18.7167 25.4258 18.7471 25.0045 18.8927C25.1906 19.0856 25.3395 19.2904 25.5358 19.4308C25.7744 19.6017 25.7693 19.8945 25.9335 20.0942C26.106 20.3024 26.1839 20.5291 26.2211 20.8033C26.2566 21.0656 26.5815 21.2196 26.5951 21.5343C26.5985 21.6376 26.7 21.7357 26.7863 21.8897ZM20.4594 48.704C20.4899 48.8648 20.5136 49.0204 20.5525 49.1728C20.6388 49.5163 20.6828 49.8666 20.5305 50.1949C20.3224 50.6417 20.1785 51.0935 20.2259 51.5944C20.2411 51.762 20.2428 51.9346 20.2259 52.1021C20.1971 52.361 20.3241 52.5489 20.4357 52.7655C20.7285 52.5996 20.8638 52.4287 20.8808 52.1089C20.8994 51.7823 21.1075 51.4793 21.1227 51.1358C21.3952 51.0207 21.3275 50.7093 21.4764 50.5181C21.6338 50.3167 21.7319 50.0697 21.8893 49.8666C22.1431 49.5417 22.3749 49.1592 22.71 48.9544C22.9604 48.8004 22.8741 48.7006 22.8707 48.5314C22.4629 48.5314 22.0822 48.5111 21.7031 48.5365C21.319 48.5635 20.9366 48.6363 20.4594 48.7023V48.704ZM21.7556 19.3513C21.2564 19.7896 21.0094 20.3819 20.7403 20.9607C20.7116 21.0216 20.7505 21.113 20.7589 21.1908H21.3258C21.605 20.9065 21.9045 20.6103 22.1939 20.304C22.4663 20.018 22.7269 19.7202 23.0247 19.3953C23.0247 19.3513 23.0179 19.2464 23.0247 19.1414C23.0399 18.9451 23.0213 18.7573 22.8301 18.6558C22.7286 18.6016 22.5983 18.5576 22.4917 18.5728C22.3952 18.5881 22.3157 18.6998 22.2209 18.7522C22.1262 18.8047 22.0196 18.8385 21.896 18.8893C21.7657 18.5864 21.5661 18.3511 21.1667 18.2564C20.896 18.5762 20.5863 18.9011 20.3258 19.2633C20.1362 19.5273 20.0127 19.8404 19.8604 20.1314C20.0105 20.2397 20.2034 20.2826 20.4391 20.26C20.7014 19.7608 21.1549 19.485 21.5745 19.177C21.6185 19.221 21.6642 19.2667 21.7522 19.3547L21.7556 19.3513ZM25.2566 39.1764C25.3937 39.4083 25.458 39.5589 25.5578 39.6773C25.7219 39.8686 25.9453 40.0175 26.0824 40.2256C26.2076 40.4169 26.2566 40.6589 26.3311 40.8806C26.4309 41.1784 26.5951 41.4559 26.5951 41.7893C26.5951 41.8756 26.7084 41.9602 26.8083 42.099C26.925 41.857 27.0959 41.6708 27.0773 41.505C27.0384 41.153 27.4462 41.0058 27.3887 40.6741C27.7593 40.4727 27.695 39.9566 28.0571 39.7416C28.1112 39.7095 28.1163 39.6012 28.1501 39.5318C28.3109 39.2001 28.2195 39.0038 27.876 38.9987C27.1366 38.9886 26.3971 38.9886 25.6576 39.0038C25.5358 39.0055 25.414 39.1053 25.2566 39.1764ZM19.8029 39.9752C20.1633 40.3644 20.3867 40.3695 20.6083 40.0361C20.6642 39.9532 20.7149 39.7992 20.7708 39.7975C21.0263 39.7907 20.9603 39.4675 21.1227 39.4455C21.363 39.415 21.3359 39.1815 21.473 39.085C21.5356 39.041 21.6067 39.0055 21.7268 38.9361C21.7387 39.0884 21.7877 39.212 21.7471 39.2796C21.561 39.586 21.3427 39.8736 21.1481 40.1749C20.9366 40.5032 20.654 40.8112 20.7623 41.2647C21.0669 41.329 21.2852 41.197 21.4679 40.9939C21.8842 40.5319 22.4104 40.1698 22.732 39.6164C22.7844 39.5284 22.9265 39.4912 23.0264 39.432C23.0264 39.3896 23.0264 39.3473 23.0264 39.305C23.0253 38.847 22.7731 38.6157 22.27 38.6112C22.1871 38.7178 22.0737 38.8633 21.9519 39.0207C21.6778 38.7364 21.6676 38.249 21.226 38.2321C20.5407 38.6501 20.4307 39.4878 19.8063 39.9735L19.8029 39.9752ZM31.5953 37.3521C31.9777 37.298 32.3517 37.4249 32.7053 37.2252C32.817 37.1626 33.0455 37.1592 33.1284 37.232C33.2823 37.3674 33.4346 37.3301 33.5937 37.342C33.7934 37.3555 33.988 37.3183 34.1843 37.4537C34.2638 37.5078 34.4668 37.3809 34.6699 37.3183C34.2993 36.8681 33.9761 36.4806 33.6614 36.0846C33.5379 35.9289 33.345 35.758 33.3433 35.5922C33.3399 35.1065 33.0691 34.8289 32.6969 34.5192C32.6461 34.7799 32.6106 34.9931 32.5615 35.2029C32.531 35.3349 32.5023 35.4771 32.4312 35.5905C32.2434 35.8951 31.9946 36.1675 31.8457 36.4874C31.729 36.7429 31.3906 36.9409 31.5919 37.3521H31.5953ZM37.3468 46.8306C37.5076 46.8594 37.6243 46.8763 37.7377 46.9034C37.8511 46.9305 37.9645 47.0049 38.0728 46.9965C38.247 46.9829 38.4315 46.9474 38.5804 46.8645C38.6498 46.8256 38.6176 46.6292 38.687 46.5531C38.8088 46.4177 38.7733 46.3483 38.7073 46.1893C38.6278 45.9963 38.6109 45.7053 38.7056 45.5293C38.8613 45.2382 38.7598 44.9877 38.7801 44.5867C38.4856 44.9657 38.1946 45.2094 38.0778 45.5191C37.9086 45.9709 37.626 46.3416 37.3451 46.8272L37.3468 46.8306Z" fill="black"/>
<path id="Vector_2" d="M57.268 47.5837C57.4051 47.4331 57.5455 47.2774 57.6724 47.1403C58.3171 47.0896 58.9077 47.2199 59.4898 47.4043C59.5829 47.5922 59.5135 47.7936 59.6353 47.9932C59.7825 48.2319 59.9924 48.4958 59.9077 48.8292C60.2157 49.1068 60.2834 49.5264 60.5203 49.8463C60.6032 49.958 60.7217 50.0748 60.7369 50.1983C60.7792 50.5706 61.0567 50.7432 61.2547 50.9581C61.6506 50.8735 61.5677 50.5283 61.6743 50.3151C61.8825 49.8954 61.9654 49.4266 62.2463 49.0238C62.3698 48.8462 62.4662 48.6126 62.5745 48.4028C62.6727 48.2115 62.7776 48.0152 62.8216 47.8088C62.852 47.6649 62.8385 47.5042 62.9857 47.4331C63.1431 47.3569 63.3157 47.2825 63.4866 47.2689C63.8233 47.2436 64.1651 47.2486 64.5019 47.2639C64.9469 47.2842 65.1076 47.472 65.1229 47.9086C65.1347 48.2285 65.0349 48.4874 64.8521 48.7548C64.644 49.0577 64.5052 49.4131 64.3614 49.7549C64.2464 50.0274 64.1262 50.2931 63.9925 50.5571C63.825 50.8904 63.5746 51.2069 63.4917 51.5504C63.402 51.9278 63.1888 52.2358 63.0585 52.5844C62.9248 52.9432 62.7218 53.2884 62.5678 53.6506C62.4256 53.989 62.3106 54.3156 62.3156 54.693C62.3309 55.7524 62.3139 56.8117 62.3241 57.8694C62.3275 58.235 62.275 58.5988 62.4324 58.966C62.5559 59.2554 62.4104 59.538 62.1041 59.7208H60.1074C59.7673 59.4856 59.6658 59.1894 59.8587 58.8137C59.8773 58.7782 59.901 58.7426 59.9027 58.7054C59.9382 58.0454 60.1108 57.3922 60.0296 56.7254C60.0025 56.5088 59.9314 56.2956 59.9094 56.079C59.8891 55.8691 59.8925 55.6542 59.9094 55.4444C59.9297 55.1838 59.9044 54.9333 60.0042 54.6608C60.0871 54.4341 60.126 54.1041 59.9348 53.8198C59.8333 53.6675 59.9264 53.3747 59.8164 53.2444C59.6827 53.0853 59.6624 52.9178 59.6116 52.7503C59.5084 52.4067 59.3781 52.0852 59.1649 51.789C58.9703 51.5183 58.8637 51.1815 58.6539 50.926C58.4661 50.6958 58.4576 50.398 58.2952 50.1831C58.1175 49.9461 57.9652 49.7228 57.9956 49.4148C57.9973 49.3945 57.999 49.3674 57.9889 49.3555C57.5269 48.8681 57.5557 48.1794 57.2646 47.5871L57.268 47.5837Z" fill="black"/>
</g>
</g>
</g>
<defs>
<clipPath id="clip0_2775_1703">
<rect width="65.1282" height="60" fill="white"/>
</clipPath>
</defs>
</svg>
