<?xml version="1.0" encoding="utf-8"?>
<!-- Generator: Adobe Illustrator 22.1.0, SVG Export Plug-In . SVG Version: 6.00 Build 0)  -->
<svg version="1.1" id="Layer_1" xmlns="http://www.w3.org/2000/svg" xmlns:xlink="http://www.w3.org/1999/xlink" x="0px" y="0px"
	 viewBox="0 0 300 300" style="enable-background:new 0 0 300 300;" xml:space="preserve">
<style type="text/css">
	.st0{fill:#F8F6EE;}
	.st1{fill:#5FB35F;}
	.st2{opacity:0.7;clip-path:url(#SVGID_2_);}
	.st3{fill:#FFFFFF;}
	.st4{fill:#97D7D9;}
	.st5{fill:#58585B;}
	.st6{fill:none;stroke:#A7A9AC;stroke-miterlimit:10;}
	.st7{opacity:0.6;}
	.st8{opacity:0.85;fill:#333333;}
	.st9{fill:#A7A9AC;}
	.st10{opacity:0.5;}
	.st11{clip-path:url(#SVGID_4_);}
	.st12{opacity:0.7;}
	.st13{fill:#F8F5ED;}
	.st14{fill:#5FB35F;stroke:#5FB35F;stroke-width:2;stroke-miterlimit:10;}
	.st15{fill:none;stroke:#5FB35F;stroke-width:6;stroke-linecap:round;stroke-linejoin:round;stroke-miterlimit:10;}
	.st16{fill:#FFFFFF;stroke:#E6E6E6;stroke-miterlimit:10;}
	.st17{opacity:0.3;fill:#FFFFFF;}
	.st18{opacity:0.7;clip-path:url(#SVGID_6_);}
</style>
<g>
	<circle class="st0" cx="150" cy="150" r="92"/>
	<g transform="translate(0,-952.36218)">
		<path class="st1" d="M193.1,1136.9c-1.8,0-3.2,1.4-3.2,3.2v15.7c0,1.8,1.4,3.2,3.2,3.2h22.2c1.8,0,3.2-1.4,3.2-3.2
			c0-0.7-0.2-1.3-0.6-1.9l-11.2-15.7c-0.6-0.9-1.6-1.4-2.6-1.4H193.1z M196.3,1143.4h6.1l6.6,9.3h-12.7
			C196.3,1152.7,196.3,1143.4,196.3,1143.4z"/>
		<path class="st1" d="M97.2,1108.3c-5.6,0-10.3,4.6-10.3,10.3v56c0,5.6,4.6,10.3,10.3,10.3h10c1.7,6.1,7.3,10.6,13.9,10.6
			c6.6,0,12.2-4.5,13.9-10.6h56.5c1.7,6.1,7.3,10.6,13.9,10.6c6.6,0,12.2-4.5,13.9-10.6h1.3c4.6,0,8.4-3.8,8.4-8.4V1156
			c0.1-0.5,0-0.9-0.1-1.4c0-0.1,0-0.1-0.1-0.2c0,0,0,0,0,0c0,0,0,0,0,0c-0.1-0.4-0.4-0.8-0.7-1.1l-17.2-23.9
			c-0.6-0.8-1.6-1.3-2.6-1.3l-20.9,0v-9.5c0-5.6-4.6-10.3-10.3-10.3L97.2,1108.3L97.2,1108.3z M97.2,1114.7h79.9
			c2.1,0,3.8,1.7,3.8,3.8v59.8h-45.6c-1.2-6.7-7.1-11.9-14.2-11.9c-7.1,0-13,5.2-14.2,11.9h-9.7c-2.1,0-3.8-1.7-3.8-3.8v-56
			C93.3,1116.4,95,1114.7,97.2,1114.7z M187.4,1134.5l19.2,0l15.9,22.1v19.8c0,1.1-0.9,2-2,2h-1c-1.2-6.7-7.1-11.9-14.2-11.9
			c-7.1,0-13,5.2-14.2,11.9h-3.8V1134.5L187.4,1134.5z M121.1,1172.9c4.4,0,8,3.5,8,8v0.2c-0.1,4.4-3.6,7.8-8,7.8c-4.4,0-8-3.5-8-8
			l0,0v0C113.1,1176.5,116.6,1172.9,121.1,1172.9L121.1,1172.9z M205.3,1172.9c4.4,0,8,3.5,8,8c0,4.4-3.5,8-8,8c-4.4,0-8-3.5-8-8
			C197.4,1176.5,200.9,1172.9,205.3,1172.9z"/>
		<path class="st1" d="M139.4,1130.9c-1.8,0-3.2,1.4-3.3,3.2c0,1.8,1.4,3.2,3.2,3.3c0,0,0.1,0,0.1,0h31.7c1.8,0,3.2-1.4,3.3-3.2
			c0-1.8-1.4-3.2-3.2-3.3c0,0-0.1,0-0.1,0H139.4z"/>
		<path class="st1" d="M124.9,1145.4c-1.8,0-3.2,1.4-3.3,3.2c0,1.8,1.4,3.2,3.2,3.3c0,0,0.1,0,0.1,0h46.2c1.8,0,3.2-1.4,3.3-3.2
			c0-1.8-1.4-3.2-3.2-3.3c0,0-0.1,0-0.1,0H124.9z"/>
	</g>
	<path class="st1" d="M43.7,168.9H31.1c-1.9,0-3.4-1.5-3.4-3.4c0-1.9,1.5-3.4,3.4-3.4h9.1v-40c0-1.9,1.5-3.4,3.4-3.4H70
		c1.9,0,3.4,1.5,3.4,3.4v8h32V53.4c0-1.9,1.5-3.4,3.4-3.4h50.3c1.9,0,3.4,1.5,3.4,3.4v37.5L178.4,75c0.7-0.7,1.6-1,2.5-1
		c0.9,0,1.8,0.4,2.5,1.1l22.9,25.2c0.6,0.6,0.9,1.5,0.9,2.3v18.3h33.2c1.9,0,3.4,1.5,3.4,3.4v26.3h25.2c1.9,0,3.4,1.5,3.4,3.4
		s-1.5,3.4-3.4,3.4h-28.6c-1.9,0-3.4-1.5-3.4-3.4v-26.3h-33.2c-1.9,0-3.4-1.5-3.4-3.4v-20.4l-19.6-21.5l-19.2,19.2
		c-1,1-2.5,1.3-3.7,0.7c-1.3-0.5-2.1-1.8-2.1-3.2V56.9h-43.4v76.6c0,1.9-1.5,3.4-3.4,3.4H70c-1.9,0-3.4-1.5-3.4-3.4v-8H47.1v40
		C47.1,167.4,45.6,168.9,43.7,168.9z"/>
	<g>
		<path class="st1" d="M127.1,79.7c-1.9,0-3.4-1.5-3.4-3.4v-9.1c0-1.9,1.5-3.4,3.4-3.4c1.9,0,3.4,1.5,3.4,3.4v9.1
			C130.6,78.2,129,79.7,127.1,79.7z"/>
		<path class="st1" d="M142,79.7c-1.9,0-3.4-1.5-3.4-3.4v-9.1c0-1.9,1.5-3.4,3.4-3.4c1.9,0,3.4,1.5,3.4,3.4v9.1
			C145.4,78.2,143.9,79.7,142,79.7z"/>
		<path class="st1" d="M127.1,102.6c-1.9,0-3.4-1.5-3.4-3.4V90c0-1.9,1.5-3.4,3.4-3.4c1.9,0,3.4,1.5,3.4,3.4v9.1
			C130.6,101.1,129,102.6,127.1,102.6z"/>
		<path class="st1" d="M142,102.6c-1.9,0-3.4-1.5-3.4-3.4V90c0-1.9,1.5-3.4,3.4-3.4c1.9,0,3.4,1.5,3.4,3.4v9.1
			C145.4,101.1,143.9,102.6,142,102.6z"/>
		<path class="st1" d="M127.1,125.5c-1.9,0-3.4-1.5-3.4-3.4v-9.1c0-1.9,1.5-3.4,3.4-3.4c1.9,0,3.4,1.5,3.4,3.4v9.1
			C130.6,123.9,129,125.5,127.1,125.5z"/>
		<path class="st1" d="M142,125.5c-1.9,0-3.4-1.5-3.4-3.4v-9.1c0-1.9,1.5-3.4,3.4-3.4c1.9,0,3.4,1.5,3.4,3.4v9.1
			C145.4,123.9,143.9,125.5,142,125.5z"/>
	</g>
	<path class="st1" d="M180.9,80.9c-1.9,0-3.4-1.5-3.4-3.4V62.6c0-1.9,1.5-3.4,3.4-3.4s3.4,1.5,3.4,3.4v14.9
		C184.3,79.3,182.8,80.9,180.9,80.9z"/>
	<path class="st1" d="M70,149.8c-1.9,0-3.4-1.5-3.4-3.4v-23.9c0-1.9,1.5-3.4,3.4-3.4c1.9,0,3.4,1.5,3.4,3.4v23.9
		C73.4,148.3,71.9,149.8,70,149.8z"/>
	<path class="st1" d="M159.1,118.6c-1.9,0-3.4-1.5-3.4-3.4V53.4c0-1.9,1.5-3.4,3.4-3.4c1.9,0,3.4,1.5,3.4,3.4v61.7
		C162.6,117.1,161,118.6,159.1,118.6z"/>
	<path class="st1" d="M184.3,140.3c-1.9,0-3.4-1.5-3.4-3.4v-12.6c0-1.9,1.5-3.4,3.4-3.4h56c1.9,0,3.4,1.5,3.4,3.4
		c0,1.9-1.5,3.4-3.4,3.4h-52.6v9.1C187.7,138.8,186.2,140.3,184.3,140.3z"/>
</g>
</svg>
