<?xml version="1.0" encoding="utf-8"?>
<!-- Generator: Adobe Illustrator 22.1.0, SVG Export Plug-In . SVG Version: 6.00 Build 0)  -->
<svg version="1.1" id="Layer_1" xmlns="http://www.w3.org/2000/svg" xmlns:xlink="http://www.w3.org/1999/xlink" x="0px" y="0px"
	 viewBox="0 0 300 300" style="enable-background:new 0 0 300 300;" xml:space="preserve">
<style type="text/css">
	.st0{fill:#F8F6EE;}
	.st1{fill:#5FB35F;}
	.st2{opacity:0.7;clip-path:url(#SVGID_2_);}
	.st3{fill:#FFFFFF;}
	.st4{fill:#97D7D9;}
	.st5{fill:#58585B;}
	.st6{fill:none;stroke:#A7A9AC;stroke-miterlimit:10;}
	.st7{opacity:0.6;}
	.st8{opacity:0.85;fill:#333333;}
	.st9{fill:#A7A9AC;}
	.st10{opacity:0.5;}
	.st11{clip-path:url(#SVGID_4_);}
	.st12{opacity:0.7;}
	.st13{fill:#F8F5ED;}
	.st14{fill:#5FB35F;stroke:#5FB35F;stroke-width:2;stroke-miterlimit:10;}
	.st15{fill:none;stroke:#5FB35F;stroke-width:6;stroke-linecap:round;stroke-linejoin:round;stroke-miterlimit:10;}
	.st16{fill:#FFFFFF;stroke:#E6E6E6;stroke-miterlimit:10;}
	.st17{opacity:0.3;fill:#FFFFFF;}
	.st18{opacity:0.7;clip-path:url(#SVGID_6_);}
</style>
<g>
	<circle class="st0" cx="150" cy="150" r="92"/>
	<g>
		<g>
			<path class="st1" d="M226.6,206.6c-0.8,0-1.5-0.3-2.2-0.8c-0.4-0.3-10.3-8.4-20.2-20.7c-13.6-16.8-20.5-32.9-20.5-47.7
				c0-23.6,19.2-42.9,42.9-42.9s42.9,19.2,42.9,42.9c0,16-7.1,33-20.5,49c-10,12-19.9,19.2-20.3,19.5
				C228,206.4,227.3,206.6,226.6,206.6z M226.6,101.4c-19.9,0-36,16.2-36,36c0,27.4,28.2,54.3,36.1,61.3c8-6.5,35.9-31.2,35.9-61.3
				C262.6,117.6,246.4,101.4,226.6,101.4z"/>
			<path class="st1" d="M226.6,158.6c-11.7,0-21.2-9.5-21.2-21.2s9.5-21.2,21.2-21.2c11.7,0,21.2,9.5,21.2,21.2
				S238.2,158.6,226.6,158.6z M226.6,123.1c-7.9,0-14.3,6.4-14.3,14.3c0,7.9,6.4,14.3,14.3,14.3c7.9,0,14.3-6.4,14.3-14.3
				C240.8,129.5,234.4,123.1,226.6,123.1z"/>
		</g>
		<path class="st1" d="M78,202.8c-0.8,0-1.5-0.3-2.2-0.8c-1.5-1.2-37.5-30.8-44.2-65.2c-0.7-3.7-1.1-7.3-1.1-10.7c0-0.4,0-0.9,0-1.3
			c0.4-12.7,9.8-23.4,22.1-24.8c1-0.1,2-0.2,3.1-0.2c9.2,0,17.1,6.2,21.8,13.7c4.5-8.3,12.9-15.2,22.7-15.2c0.5,0,1.1,0,1.6,0
			c12.3,0.7,22.3,11,23.4,23.8c0,0,0,0,0,0c0.1,1.3,0.2,2.6,0.2,4c0,2.5-0.2,5.2-0.5,7.8c-4.8,38.8-43.3,67.1-44.9,68.2
			C79.4,202.6,78.7,202.8,78,202.8z M55.7,106.7c-0.8,0-1.5,0-2.3,0.1c-8.9,1-15.8,8.9-16,18.2c0,0.4,0,0.7,0,1.1
			c0,3,0.3,6.2,0.9,9.4c5.3,27.5,32,52.7,39.7,59.5c8-6.4,36.2-31.1,40-61.9c0.3-2.4,0.4-4.7,0.4-7c0-1.1,0-2.3-0.1-3.4
			c-0.8-9.5-8.1-17-17-17.5c-0.4,0-0.8,0-1.2,0c-9.4,0-17.2,9.3-19.1,17.9c-0.3,1.5-1.7,2.6-3.2,2.7c-1.6,0-3-1-3.4-2.5
			C72.1,115.1,64.4,106.7,55.7,106.7z"/>
		<g>
			<path class="st1" d="M172.3,158.6h-36.6c-1.9,0-3.4-1.5-3.4-3.4s1.5-3.4,3.4-3.4h36.6c1.9,0,3.4,1.5,3.4,3.4
				S174.1,158.6,172.3,158.6z"/>
			<path class="st1" d="M157.4,173.4c-0.9,0-1.8-0.3-2.4-1c-1.3-1.3-1.3-3.5,0-4.8l12.4-12.4L155,142.7c-1.3-1.3-1.3-3.5,0-4.8
				c1.3-1.3,3.5-1.3,4.8,0l14.9,14.9c1.3,1.3,1.3,3.5,0,4.8l-14.9,14.9C159.1,173.1,158.3,173.4,157.4,173.4z"/>
		</g>
	</g>
</g>
</svg>
