<?xml version="1.0" encoding="utf-8"?>
<!-- Generator: Adobe Illustrator 22.1.0, SVG Export Plug-In . SVG Version: 6.00 Build 0)  -->
<svg version="1.1" id="Layer_1" xmlns="http://www.w3.org/2000/svg" xmlns:xlink="http://www.w3.org/1999/xlink" x="0px" y="0px"
	 viewBox="0 0 300 300" style="enable-background:new 0 0 300 300;" xml:space="preserve">
<style type="text/css">
	.st0{fill:#F8F6EE;}
	.st1{fill:#5FB35F;}
	.st2{opacity:0.7;clip-path:url(#SVGID_2_);}
	.st3{fill:#FFFFFF;}
	.st4{fill:#97D7D9;}
	.st5{fill:#58585B;}
	.st6{fill:none;stroke:#A7A9AC;stroke-miterlimit:10;}
	.st7{opacity:0.6;}
	.st8{opacity:0.85;fill:#333333;}
	.st9{fill:#A7A9AC;}
	.st10{opacity:0.5;}
	.st11{clip-path:url(#SVGID_4_);}
	.st12{opacity:0.7;}
	.st13{fill:#F8F5ED;}
	.st14{fill:#5FB35F;stroke:#5FB35F;stroke-width:2;stroke-miterlimit:10;}
	.st15{fill:none;stroke:#5FB35F;stroke-width:6;stroke-linecap:round;stroke-linejoin:round;stroke-miterlimit:10;}
	.st16{fill:#FFFFFF;stroke:#E6E6E6;stroke-miterlimit:10;}
	.st17{opacity:0.3;fill:#FFFFFF;}
	.st18{opacity:0.7;clip-path:url(#SVGID_6_);}
</style>
<g>
	<circle class="st0" cx="150" cy="150" r="92"/>
	<g>
		<g>
			<g>
				<path class="st1" d="M230.5,200.4c6.9,0,12.4-5.6,12.4-12.4c0-6.9-5.6-12.4-12.4-12.4c-6.9,0-12.4,5.6-12.4,12.4
					C218.1,194.8,223.6,200.4,230.5,200.4z M230.5,180.5c4.1,0,7.5,3.3,7.5,7.5s-3.3,7.5-7.5,7.5s-7.5-3.3-7.5-7.5
					S226.4,180.5,230.5,180.5z"/>
				<path class="st1" d="M230.5,201.5c-7.5,0-13.6-6.1-13.6-13.6s6.1-13.6,13.6-13.6s13.6,6.1,13.6,13.6S238,201.5,230.5,201.5z
					 M230.5,176.7c-6.2,0-11.3,5.1-11.3,11.3s5.1,11.3,11.3,11.3s11.3-5.1,11.3-11.3S236.7,176.7,230.5,176.7z M230.5,196.6
					c-4.7,0-8.6-3.9-8.6-8.6s3.9-8.6,8.6-8.6c4.7,0,8.6,3.9,8.6,8.6S235.2,196.6,230.5,196.6z M230.5,181.6c-3.5,0-6.3,2.8-6.3,6.3
					c0,3.5,2.8,6.3,6.3,6.3c3.5,0,6.3-2.8,6.3-6.3C236.8,184.5,234,181.6,230.5,181.6z"/>
			</g>
			<g>
				<path class="st1" d="M195.7,202.9c5.5,0,10-4.5,10-10c0-1.4-1.1-2.5-2.5-2.5c-1.4,0-2.5,1.1-2.5,2.5c0,2.7-2.2,5-5,5
					c-2.7,0-5-2.2-5-5c0-2.7,2.2-5,5-5c1.4,0,2.5-1.1,2.5-2.5s-1.1-2.5-2.5-2.5c-5.5,0-10,4.5-10,10S190.2,202.9,195.7,202.9z"/>
				<path class="st1" d="M195.7,204c-6.1,0-11.1-5-11.1-11.1c0-6.1,5-11.1,11.1-11.1c2,0,3.6,1.6,3.6,3.6s-1.6,3.6-3.6,3.6
					c-2.1,0-3.8,1.7-3.8,3.8s1.7,3.8,3.8,3.8s3.8-1.7,3.8-3.8c0-2,1.6-3.6,3.6-3.6s3.6,1.6,3.6,3.6C206.8,199,201.8,204,195.7,204z
					 M195.7,184.1c-4.9,0-8.8,4-8.8,8.8s4,8.8,8.8,8.8s8.8-4,8.8-8.8c0-0.7-0.6-1.3-1.3-1.3s-1.3,0.6-1.3,1.3c0,3.4-2.7,6.1-6.1,6.1
					s-6.1-2.7-6.1-6.1s2.7-6.1,6.1-6.1c0.7,0,1.3-0.6,1.3-1.3C197,184.7,196.4,184.1,195.7,184.1z"/>
			</g>
			<g>
				<path class="st1" d="M252.8,166.9c-0.6-22.1-19.3-38.7-44-38.7c-0.6,0-1.3,0.2-1.7,0.7l-38.1,36.5l0,0c-0.5,0.5-0.8,1.1-0.8,1.8
					v13.3c0,1.4,1.1,2.5,2.5,2.5c2.7,0,5,2.2,5,5c0,2.7-2.2,5-5,5c-1.4,0-2.5,1.1-2.5,2.5v24.9c0,1.4,1.1,2.5,2.5,2.5h22.4
					c1.4,0,2.5-1.1,2.5-2.5c0-4.1,3.3-7.5,7.5-7.5c4.1,0,7.5,3.3,7.5,7.5c0,1.4,1.1,2.5,2.5,2.5h37.3c1.4,0,2.5-1.1,2.5-2.5v-53.1
					C252.9,167.1,252.8,167,252.8,166.9z M209.8,133.2c20.5,0.4,36.2,13.6,37.9,31.5H177L209.8,133.2z M247.9,217.8h-32.6
					c-1.2-5.7-6.2-10-12.2-10c-6,0-11,4.3-12.2,10h-17.7v-20.2c4.3-1.1,7.5-5,7.5-9.6s-3.2-8.5-7.5-9.6v-8.6h74.6V217.8z"/>
				<path class="st1" d="M250.4,223.9h-37.3c-2,0-3.6-1.6-3.6-3.6c0-3.5-2.8-6.3-6.3-6.3c-3.5,0-6.3,2.8-6.3,6.3
					c0,2-1.6,3.6-3.6,3.6h-22.4c-2,0-3.6-1.6-3.6-3.6v-24.9c0-2,1.6-3.6,3.6-3.6c2.1,0,3.8-1.7,3.8-3.8s-1.7-3.8-3.8-3.8
					c-2,0-3.6-1.6-3.6-3.6v-13.3c0-0.7,0.2-1.3,0.5-1.9l-0.1-0.1l0.6-0.6l38.1-36.5c0.7-0.7,1.6-1,2.5-1c25,0,44.4,17.1,45.1,39.7
					c0,0.1,0.1,0.3,0.1,0.5v53.1C254,222.3,252.4,223.9,250.4,223.9z M203.1,211.7c4.7,0,8.6,3.9,8.6,8.6c0,0.7,0.6,1.3,1.3,1.3
					h37.3c0.7,0,1.3-0.6,1.3-1.3v-53c0-0.1,0-0.2,0-0.2l0-0.1c-0.6-21.4-19-37.6-42.8-37.6c-0.3,0-0.7,0.1-0.9,0.4l-38.1,36.5
					c-0.3,0.3-0.4,0.6-0.4,1v13.3c0,0.7,0.6,1.3,1.3,1.3c3.4,0,6.1,2.7,6.1,6.1s-2.7,6.1-6.1,6.1c-0.7,0-1.3,0.6-1.3,1.3v24.9
					c0,0.7,0.6,1.3,1.3,1.3h22.4c0.7,0,1.3-0.6,1.3-1.3C194.5,215.6,198.4,211.7,203.1,211.7z M251.7,167.2
					C251.7,167.2,251.7,167.2,251.7,167.2L251.7,167.2z M249.1,219h-34.7l-0.2-0.9c-1.1-5.2-5.7-9-11.1-9c-5.3,0-10,3.8-11.1,9
					l-0.2,0.9h-19.7v-22.3l0.9-0.2c3.9-1,6.6-4.5,6.6-8.5s-2.7-7.5-6.6-8.5l-0.9-0.2v-10.6h76.9V219z M216.2,216.7h30.6v-45.8h-72.4
					v6.6c4.4,1.5,7.5,5.7,7.5,10.5s-3,9-7.5,10.5v18.2H190c1.6-5.8,7-10,13.1-10C209.2,206.7,214.6,210.9,216.2,216.7z M249,165.9
					h-74.9l35.3-33.8l0.5,0c20.8,0.4,37.2,14.1,39,32.5L249,165.9z M179.8,163.6h66.6c-2.3-16.7-16.9-28.6-36.2-29.2L179.8,163.6z"
					/>
			</g>
		</g>
		<g>
			<g>
				<path class="st1" d="M163.8,75.6c0.8,0.4,3.4,3.8,8.4,3.5c2.7-0.2,4,3.4,1.5,5c-0.7,0.5-4.9,3.7-5.3,9.3
					c6.5,0.8,9.2-6.7,12.3-3.1c0.3,0.4,2.9,5.7,4.2,6.3c0,0,1.1,0,1.8,0.9c4.3-10.6-3.9-15.7,0.9-17.9c5.8-2.6,8,15,2.4,23.1
					c-1.1,1.6-2.8,1.2-4.3,0.6c-5.7,11.6-27.4,52.6-49.1,51.6c-15.6-0.7-24.7-9.1-26.6-24.6c-2.6-21.4,36.7-46.3,48.2-53
					c-0.9-1.1-1.3-1.8-1.3-1.8l0,0c-0.8-1.4-0.3-3.2,1.2-3.8c19.6-8.6,24.5,1,24.5,1c1.7,3.1-3,5.7-4.7,2.5c0,0-2.2-4.4-14.3,0.1
					C163.7,75.4,163.7,75.5,163.8,75.6z M162.3,81.3c-8.7,5-49.2,29.4-46.9,48.5c1.5,12.9,8.5,19.4,21.5,19.9
					c18.8,0.8,39.5-39.2,44.3-49.3c-1.5-1.4-2.6-3-3.5-4.4c-6.4,4-14.5,3.2-14.7-0.5c-0.3-5.2,1.6-9.2,3.7-11.9
					C165.1,83,163.6,82.2,162.3,81.3z"/>
				<path class="st1" d="M137.4,156.2c-0.3,0-0.5,0-0.8,0c-16.2-0.7-25.7-9.6-27.6-25.6c-2.6-21.4,34.4-45.6,47.6-53.5
					c-0.4-0.5-0.6-0.9-0.6-0.9l-0.4-0.7l0.1-0.1c-0.2-0.7-0.2-1.5,0-2.3c0.3-1.1,1.1-1.9,2.1-2.4c10.9-4.8,17.4-4,21-2.5
					c3.3,1.4,4.7,3.5,4.9,4.1l0,0c1.2,2.2,0.1,4.2-1.6,5.1c-1.6,0.9-3.9,0.7-5.1-1.4l0,0c0,0-0.1-0.1-0.1-0.1c0,0-1.9-3-11.1-0.1
					c1.2,1,3.3,2.4,6.4,2.2c1.8-0.1,3.3,1,3.9,2.6c0.6,1.7-0.1,3.4-1.6,4.4c-0.9,0.7-3.9,3.1-4.7,7.3c2.1-0.1,3.8-1.3,5.3-2.4
					c1.9-1.3,4.3-3,6.5-0.4c0.2,0.2,0.3,0.4,0.7,1.3c1.5,2.7,2.5,4.3,3,4.7c0.3,0,0.6,0.1,0.9,0.2c1.5-4.7,0.4-8.1-0.5-10.7
					c-0.8-2.5-1.6-5,1.5-6.4c1.7-0.7,3.3-0.3,4.6,1.2c3.5,4.3,3.8,16.9-0.8,23.6c-1.3,2-3.4,1.8-4.7,1.4
					C179.7,118.1,158.8,156.2,137.4,156.2z M158.2,75.4c0.2,0.3,0.5,0.8,1,1.3l0.8,1l-1.1,0.7c-5.1,3-18.1,11-29.1,20.9
					c-13.3,11.8-19.5,22.3-18.5,31c1.8,15,10.4,23,25.5,23.6c0.2,0,0.5,0,0.7,0c21.2,0,43.1-42.4,47.3-51l0.5-0.9l1,0.4
					c1.9,0.7,2.5,0.5,3-0.2c4.2-6.1,3.6-17.6,0.9-20.8c-0.8-0.9-1.4-0.8-1.9-0.6c-1.1,0.5-1.2,0.8-0.3,3.6c1,3,2.4,7.5-0.1,13.6
					l-0.7,1.7l-1.2-1.4c-0.4-0.4-0.8-0.5-1-0.5l-0.4-0.1c-1.1-0.5-2.3-2.4-4.1-5.8c-0.2-0.5-0.4-0.8-0.5-0.9
					c-0.7-0.9-1.2-0.8-3.4,0.8c-1.9,1.3-4.5,3.2-8.1,2.7l-1.1-0.1l0.1-1.1c0.5-5.9,4.6-9.3,5.8-10.2c1-0.7,0.8-1.6,0.8-1.8
					c-0.2-0.5-0.7-1.1-1.6-1.1c-4.5,0.3-7.2-2.1-8.5-3.2c-0.2-0.2-0.4-0.3-0.5-0.4l-0.2-0.2c-0.1-0.1-0.1-0.1-0.2-0.2l-0.1-0.1
					l-1.4-1.3l1.7-0.6c11.5-4.3,14.9-0.8,15.6,0.3l0,0l0.1,0.2c0.7,1.3,1.8,0.7,2.1,0.6c0.1-0.1,1.3-0.8,0.6-2l0,0
					c-0.2-0.4-5.1-8.4-23-0.5c-0.4,0.2-0.7,0.5-0.8,1c-0.1,0.4-0.1,0.9,0.1,1.2L158.2,75.4z M137.5,150.8c-0.2,0-0.4,0-0.6,0
					c-13.6-0.6-21-7.4-22.6-20.9c-1-8.5,5.6-18.8,19.7-30.6c10.9-9.1,23-16.4,27.7-19.1l0.6-0.4l0.6,0.4c1.3,0.9,2.7,1.7,4.1,2.2
					l1.5,0.5l-0.9,1.2c-1.7,2.3-3.7,6.1-3.4,11.2c0,0.6,0.4,1.1,1.2,1.4c2.4,1.2,7.5,0.9,11.8-1.8l1-0.6l0.6,1c1,1.6,2.1,3,3.3,4.2
					l0.6,0.6l-0.4,0.7C176.5,112.7,156.5,150.8,137.5,150.8z M162.3,82.6c-5,2.9-16.5,9.9-26.8,18.5c-13.3,11.1-19.8,21-18.9,28.5
					c1.5,12.4,8,18.4,20.4,18.9c0.2,0,0.4,0,0.5,0c17.7,0,37.6-38.3,42.4-47.9c-0.9-0.9-1.7-1.9-2.4-3.1c-4.9,2.7-10.3,2.8-13.1,1.4
					c-1.5-0.7-2.3-1.9-2.4-3.3c-0.3-5,1.3-8.8,3-11.5C164,83.7,163.1,83.2,162.3,82.6z"/>
			</g>
			<g>
				<path class="st1" d="M197.1,57.5c1.6-3.1,6.4-0.7,4.8,2.4c0,0-5.3,10.3-16.6,21.7c-2.5,2.5-6.3-1.3-3.8-3.8
					C192.2,67.1,197,57.5,197.1,57.5z"/>
				<path class="st1" d="M183.5,83.6c-1,0-2-0.5-2.7-1.2c-1.3-1.3-1.8-3.6,0-5.4C190.7,66.9,195.5,58,196,57.1l0-0.1
					c1.1-2.2,3.4-2.5,5.1-1.6c1.7,0.9,2.8,2.9,1.7,5.1l-0.1,0.2c-1.1,2.1-6.5,11.6-16.7,21.8C185.3,83.2,184.4,83.6,183.5,83.6z
					 M198.1,58c-0.8,1.5-5.6,10.4-15.8,20.6c-1,1-0.1,2,0,2.2c0.1,0.1,1.1,1.1,2.1,0c10.1-10.2,15.4-19.6,16.3-21.3l0-0.1
					c0.6-1.3-0.6-1.9-0.7-2C200,57.3,198.7,56.7,198.1,58L198.1,58z"/>
			</g>
		</g>
		<g>
			<g>
				<path class="st1" d="M144.8,182.7c0-0.3,0-0.6-0.1-1l-0.1-0.6c-1-6.7-7.8-10.5-13.4-11.7c-3.4-0.6-6.9-1.1-10.4-1.2l-0.7,0
					c-2.7-0.2-5.3-0.5-7.9-1c-4.1-1-8.2-2.5-12-4.3l-0.2-0.1c-0.2-0.1-0.4-0.2-0.6-0.3l-1.1-0.5c-5.4-2.8-11.1-4.8-17.1-6
					c-1.5-0.2-3-0.4-4.5-0.3h-0.1c-5.4,0.1-10.7,1.6-15.3,4.4l-0.1,0l0,0c-4.5,2.7-8.2,6.5-10.7,11.2c-1.6,3-2.6,6.3-2.8,9.7
					c-1.1,6-0.6,12.1,1.3,17.9c1.2,5.9,4.2,11.2,8.5,15.3c8,6.7,18.3,10.2,28.7,9.7c13.3-0.3,26.4-3.4,38.5-8.9
					c6.9-3.3,12.7-8.6,16.6-15.3c0.2-0.4,0.3-0.6,0.3-0.6C144.3,194.1,145.4,188.4,144.8,182.7z M111.1,172.2c2.4,0.5,4.9,0.8,7.4,1
					l13.9,19.5c-2.5,1.6-5.1,3.1-7.7,4.4l-18.9-26.4C107.5,171.3,109.3,171.8,111.1,172.2L111.1,172.2z M96.1,166.6l0.8,0.4l23,32.2
					c-2.8,1.2-5.7,2.2-8.7,3.1l-29.3-41C86.9,162.5,91.6,164.3,96.1,166.6z M75.4,160.8l30.6,42.8c-3.2,0.7-6.4,1.3-9.7,1.6
					l-30.1-42.1C69.1,161.8,72.2,161,75.4,160.8z M61.9,165.7l28.6,40c-3.5,0.2-7.1,0.2-10.6,0l-0.3,0l-23.8-33.3
					C57.3,169.7,59.4,167.5,61.9,165.7z M52.7,181.7c0-0.1,0-0.1,0-0.2c0.1-1.3,0.3-2.6,0.7-3.8l19.4,27.1
					c-3.6-0.6-7.1-1.9-10.3-3.8c-2.5-1.6-4.7-3.8-6.3-6.3c-1.2-1.9-2.2-3.9-2.8-6.1C52.8,186.4,52.5,184.1,52.7,181.7z M136.9,197
					l-0.2,0.4c-3.3,5.6-8.3,10.1-14.2,12.9c-11.3,5.4-44.3,16.1-61.6,0.1c-2.7-2.6-4.8-5.8-6.1-9.3c1.5,1.6,3.1,2.9,4.9,4.1
					c5.5,3.3,11.8,5.1,18.2,5.3l1.5,0.1c2,0.1,4,0.2,6,0.2c3.3,0,6.6-0.2,9.9-0.5c5.2-0.5,10.4-1.5,15.5-2.8c4.8-1.3,9.4-3,14-5.1
					c3.9-1.7,7.6-3.8,11.1-6.2c0.5-0.3,1-0.7,1.4-1l0,0c0.1,0,0.1-0.1,0.2-0.2l0.3-0.2C137.6,195.6,137.3,196.3,136.9,197L136.9,197
					z M139.3,185.1c-0.6,1.7-1.6,3.2-2.9,4.4l-11.3-15.8c1.7,0.2,3.4,0.4,5.1,0.8c4.3,0.9,8.9,3.6,9.4,7.1c0,0.1,0,0.2,0,0.2v0v0.2
					c0,0.2,0.1,0.3,0.1,0.5C139.7,183.4,139.6,184.3,139.3,185.1L139.3,185.1z"/>
				<path class="st1" d="M84.1,225.1c-10,0-19.6-3.5-27.3-10c-4.6-4.3-7.6-9.8-8.9-15.9c-2-5.9-2.4-12.2-1.3-18.3
					c0.3-3.6,1.3-7,3-10.1c2.5-4.8,6.4-8.9,11.1-11.6c4.8-2.9,10.3-4.5,15.9-4.6h0.1c1.6,0,3.2,0.1,4.7,0.4
					c6.1,1.2,11.9,3.2,17.4,6.1l1,0.5c0.2,0.1,0.4,0.2,0.6,0.3l0.1,0.1c3.8,1.8,7.8,3.3,11.9,4.3c2.5,0.5,5.1,0.8,7.7,1l0.7,0
					c3.5,0.2,7.1,0.6,10.5,1.3c6,1.3,13.3,5.3,14.3,12.6l0.1,0.6c0.1,0.4,0.1,0.7,0.1,1.1c0.6,5.9-0.5,11.8-3.4,17
					c0,0.1-0.1,0.3-0.3,0.6c-4,6.9-9.9,12.3-17.1,15.8c-12.3,5.7-25.4,8.7-38.9,9C85.5,225.1,84.8,225.1,84.1,225.1z M76.5,156.8
					c-5.2,0.1-10.3,1.5-14.7,4.2c-4.4,2.6-8,6.3-10.3,10.8c-1.6,2.9-2.5,6-2.7,9.3l0,0.1c-1,5.8-0.6,11.8,1.3,17.3l0,0.1
					c1.2,5.7,4,10.7,8.2,14.7c7.8,6.5,17.7,9.9,27.9,9.4c13.2-0.3,26-3.3,38-8.8c6.8-3.2,12.3-8.3,16-14.8c0.1-0.2,0.2-0.4,0.2-0.4
					l0.4-1l0.1,0c2.3-4.6,3.3-9.7,2.7-14.9l0-0.1c0-0.3,0-0.5-0.1-0.8l-0.1-0.5c-0.9-6.2-7.3-9.6-12.5-10.7c-3.3-0.6-6.8-1-10.2-1.2
					l-0.7,0c-2.7-0.2-5.4-0.5-8-1c-4.3-1.1-8.4-2.6-12.3-4.4l-0.3-0.2c-0.1-0.1-0.2-0.1-0.3-0.1l-0.1-0.1l-1.1-0.5
					c-5.3-2.8-10.9-4.8-16.8-5.9c-1.4-0.2-2.8-0.3-4.3-0.3H76.5z M86.2,220c-9.6,0-19.1-2.2-26.1-8.7c-2.9-2.7-5.1-6.1-6.4-9.8
					l-1.8-5.1l3.7,4c1.4,1.5,3,2.8,4.7,3.9c5.3,3.1,11.4,4.9,17.6,5.2l1.6,0.1c1.9,0.1,4,0.2,5.9,0.2c0,0,0,0,0,0
					c3.2,0,6.5-0.2,9.7-0.5c5.2-0.5,10.3-1.4,15.3-2.8c4.7-1.3,9.3-3,13.8-5c3.8-1.7,7.5-3.7,10.9-6.1c0.5-0.3,0.9-0.6,1.3-1
					l0.6-0.5l0.8-1.5v0.8l2.4-1.9l-1.5,3.9c-0.3,0.7-0.6,1.4-1,2.2l-2.2,4v-0.7c-3.3,4.5-7.7,8.1-12.8,10.5
					C116,214.8,101,220,86.2,220z M58.4,205.7c1,1.4,2.1,2.8,3.3,4c16.8,15.5,49.2,5,60.3-0.3c5.1-2.4,9.4-6.1,12.6-10.8
					c-3,1.8-6.1,3.5-9.3,4.9c-4.5,2.1-9.3,3.8-14.1,5.1c-5.1,1.4-10.4,2.3-15.7,2.9c-3.3,0.3-6.6,0.5-9.9,0.5c0,0,0,0,0,0
					c-2,0-4.1-0.1-6.1-0.2l-1.6-0.1c-6.5-0.2-13-2.1-18.7-5.5C58.9,206.1,58.6,205.9,58.4,205.7z M85.5,207c-1.9,0-3.8-0.1-5.7-0.2
					l-0.9-0.1l-24.6-34.4l0.4-0.6c1.7-2.7,3.8-5,6.4-6.9l0.9-0.7l30.5,42.6l-2.1,0.1C88.9,206.9,87.2,207,85.5,207z M80.2,204.6
					c2.7,0.2,5.4,0.2,8.1,0.1l-26.7-37.3c-1.7,1.4-3.3,3.1-4.5,4.9L80.2,204.6z M95.8,206.4l-31.3-43.8l1.2-0.6
					c3-1.4,6.2-2.3,9.6-2.5l0.6,0l32,44.7l-1.7,0.4c-3.2,0.7-6.5,1.3-9.8,1.7L95.8,206.4z M68,163.6L96.9,204
					c2.4-0.3,4.8-0.7,7.2-1.2L74.8,162C72.5,162.2,70.2,162.7,68,163.6z M75.3,206.4l-2.7-0.4c-3.8-0.6-7.4-2-10.7-4
					c-2.7-1.7-4.9-4-6.7-6.6c-1.3-2-2.3-4.1-2.9-6.4c-0.7-2.4-0.9-4.8-0.8-7.3v-0.2c0.1-1.4,0.3-2.8,0.7-4.1l0.6-2.3L75.3,206.4z
					 M53.9,180.5c0,0.4-0.1,0.7-0.1,1.1l0,0.2l0,0c-0.2,2.2,0.1,4.4,0.7,6.5c0.6,2,1.4,4,2.6,5.7c1.6,2.4,3.6,4.4,6,5.9
					c2.2,1.3,4.5,2.3,7,3L53.9,180.5z M110.8,203.6l-31.6-44.1l3,0.7c5,1.2,9.8,3.1,14.4,5.4l1,0.5l24,33.6l-1.3,0.5
					c-2.9,1.2-5.8,2.2-8.8,3.1L110.8,203.6z M84.8,163.2l26.9,37.7c2.2-0.7,4.3-1.4,6.5-2.3l-22-30.8l-0.6-0.3
					C92.1,165.8,88.5,164.4,84.8,163.2z M124.3,198.5l-21.5-30.2l3.4,1.2c1.7,0.6,3.4,1.1,5.2,1.5l0.6,0.1c2.2,0.4,4.4,0.7,6.6,0.9
					l0.5,0L134,193l-1,0.7c-2.5,1.6-5.2,3.1-7.9,4.4L124.3,198.5z M108.7,172.8l16.3,22.8c2-1,3.9-2.1,5.8-3.2l-12.9-18.1
					c-2.3-0.2-4.7-0.5-7-1l-0.7-0.2C109.7,173,109.2,172.9,108.7,172.8z M136.2,191.3l-13.6-19l2.5,0.2c1.7,0.2,3.5,0.4,5.2,0.8
					c4.7,1,9.7,3.9,10.3,8l0,0.5c0,0.1,0,0.2,0.1,0.3l0,0.2c0.1,1.1-0.1,2.1-0.4,3.1l-0.7,1.9l-0.1-0.1c-0.6,1.2-1.5,2.2-2.4,3.2
					L136.2,191.3z M127.5,175.2l9,12.6c0.7-0.9,1.3-1.9,1.7-3l0.1-0.2c0.2-0.6,0.3-1.3,0.2-1.9c0-0.2-0.1-0.3-0.1-0.5l0-0.5
					c-0.5-2.9-4.7-5.2-8.5-6.1C129.1,175.4,128.3,175.3,127.5,175.2z"/>
			</g>
		</g>
	</g>
</g>
</svg>
