<?xml version="1.0" standalone="no"?>
<!DOCTYPE svg PUBLIC "-//W3C//DTD SVG 20010904//EN"
 "http://www.w3.org/TR/2001/REC-SVG-20010904/DTD/svg10.dtd">
<svg version="1.0" xmlns="http://www.w3.org/2000/svg"
 width="512.000000pt" height="512.000000pt" viewBox="0 0 512.000000 512.000000"
 preserveAspectRatio="xMidYMid meet">
<metadata>
Created by potrace 1.11, written by Peter Selinger 2001-2013
</metadata>
<g transform="translate(0.000000,512.000000) scale(0.100000,-0.100000)"
fill="#000000" stroke="none">
<path d="M10 2560 l0 -2560 2555 0 2555 0 0 2560 0 2560 -2555 0 -2555 0 0
-2560z m2820 1514 c244 -42 495 -153 687 -306 475 -377 689 -996 543 -1573
-148 -590 -598 -1018 -1200 -1146 -142 -30 -418 -33 -560 -5 -633 123 -1105
586 -1242 1220 -32 146 -32 446 0 592 146 674 675 1156 1356 1234 98 12 302 4
416 -16z"/>
<path d="M2345 3875 c-418 -77 -770 -336 -960 -706 -106 -206 -147 -380 -147
-614 1 -367 126 -667 387 -931 203 -206 440 -331 714 -378 121 -21 340 -21
457 -1 563 98 1002 548 1089 1115 80 516 -151 1029 -593 1317 -135 89 -280
150 -452 189 -96 22 -394 27 -495 9z m-225 -612 c0 -10 -38 -180 -85 -377 -47
-198 -85 -375 -85 -393 0 -45 22 -86 62 -115 29 -20 47 -23 145 -27 l113 -3 2
463 3 464 100 0 100 0 3 -462 2 -463 45 0 45 0 0 -100 0 -100 -45 0 -45 0 0
-180 0 -180 -105 0 -105 0 0 179 0 179 -132 4 c-120 3 -139 6 -193 31 -77 36
-147 110 -176 185 -38 99 -32 148 60 537 45 193 84 356 86 363 3 8 33 12 105
12 89 0 100 -2 100 -17z m1140 12 c0 -3 32 -173 71 -378 78 -410 80 -444 36
-539 -61 -136 -178 -208 -334 -208 l-73 0 0 100 0 100 48 0 c100 0 165 41 182
113 7 33 -32 271 -91 555 l-10 52 -110 0 -109 0 0 -640 0 -640 -105 0 -105 0
0 738 c0 406 3 742 7 745 8 8 593 9 593 2z"/>
</g>
</svg>
